<svg xmlns="http://www.w3.org/2000/svg" id="Layer_1" version="1.1" viewBox="76.7 477.5 926.6 125">
  <!-- Generator: Adobe Illustrator 30.0.0, SVG Export Plug-In . SVG Version: 2.1.1 Build 123)  -->
  <path d="M402.03,477.5v41.32c7.76-2.83,11.76-7.25,20.61-8.05,32.82-2.98,52.8,19.22,50.09,51.42-3.03,35.96-45.36,51.89-72.01,28.61v9.33h-24.01v-122.63h25.33,0ZM416.31,532.43c-19.13,4.26-21.28,46.18,6.34,47.77,31.84,1.83,31.31-45.05,6.74-48.08-3.18-.39-10.02-.37-13.08.31Z"/>
  <path d="M129.78,483.17c20.05-2.54,43.11,3.01,56.21,19.17l-15.42,16.38c-7.97-6.56-14.4-11.97-25.28-13.08-54.64-5.56-57.02,81.36,4.02,73.05,8.78-1.2,14.05-7.66,21.25-11.77l15.38,14.16c1.12,4.3-13.08,13.17-16.68,14.9-29.44,14.12-69.72,4.96-85.43-24.88-19.9-37.79,3.89-82.59,45.95-87.92h0Z"/>
  <path d="M521.67,511.17c23.76-3.21,53.55,6.46,58.37,32.92,12.18,66.93-80.74,75.63-94.46,25.15-7.13-26.2,8.19-54.29,36.1-58.07h-.01ZM524.28,532.43c-4.62,1.04-11.62,9.2-13.02,13.64-11.57,36.55,37.33,46.8,43.48,16.82,4.27-20.82-9.34-35.22-30.45-30.45h-.01Z"/>
  <path d="M619.97,510.82c.65.11,3.19,1.43,3.38,2.24l-.04,7.08c6.19-2.64,11.36-7.84,18.31-9.01,14.29-2.41,31.26.14,40.34,12.35,1.83,2.46,6.67,12.17,6.67,14.66v61.98h-25.33v-52.65c0-8.76-9.66-15.44-17.99-15.44-7.56,0-20.66,7.14-20.66,15.44v50.65l-2,2h-24.66v-87.31l2-2c6.18.7,14.11-.96,19.99,0h-.01Z"/>
  <path d="M282.06,600.13h-23.99v-9.33c-15.09,17.26-56.26,14.36-59.86-11.45-1.79-12.81,2.93-22.73,14.98-27.44,2.81-1.1,11.14-3.77,13.56-3.77h27.99c3.71-3.94-1.45-11.99-5.53-14.46-12.46-7.54-28.05-.09-40.35,3.71-2.56-10.83-13.41-14.73.53-21.27,18.6-8.72,54.76-9.36,67.13,10.25,1.71,2.71,5.55,13.11,5.55,15.78v57.98h-.01ZM234.74,562.81c-17.38,3.04-15.43,21.46,2.67,21.44,11.43-.02,20.87-7.12,19.14-19.22l-1.81-2.21h-20Z"/>
  <path d="M859.23,512.15v53.98c0,.46,2.74,6.39,3.38,7.28,6.18,8.65,23.21,7.17,29.74-.81,1.64-2,5.53-11.12,5.53-13.13v-46.65l2-2h21.33l2,2v87.31h-23.99c-.1-3.32,1.06-7.09-2-9.3-16.11,17.64-50.72,13.42-60.5-8.84-.55-1.25-2.81-7.27-2.81-7.85v-63.32h21.99c.44,0,2.02,1.77,3.33,1.33h0Z"/>
  <path d="M975.2,492.16v19.33l2,2h20.66v19.99h-22.66v36.66c0,.59,2.04,5.86,2.61,6.72,6.54,9.74,18.23.7,20,1.98l5.49,17.79c-13.73,7.7-38.38,7.31-47.87-6.71-1.35-1.99-5.56-11.31-5.56-13.1v-43.32h-13.33v-19.99h13.33v-21.33h25.33v-.02Z"/>
  <path d="M328.05,510.82l2.67,12.01c6.29-9.58,18.9-12.96,29.99-12.01v22.66c-9.31-.72-20.46.97-25.93,9.39-.68,1.05-3.39,6.72-3.39,7.27v49.99h-25.33v-89.31h21.99Z"/>
  <g>
    <path d="M779.8,578.68c-21.29,2.89-41.68-6.37-45.27-29.14-1.18-7.49-.53-14.25,1.48-20.08l-22.54-14.2c-8.79,17.14-9.34,38.55,1.57,57.76,19.53,34.38,77.71,40.81,101.43,7.96l-15.42-14.04c-7.78,3.81-11.94,10.47-21.25,11.74Z"/>
    <path d="M740.3,520.97c12.55-18.21,40.93-22.09,59.6-2.39l16.58-16.24c-13.55-15.76-36-21.46-56.19-19.14-18.01,2.07-32.56,11.31-41.91,24.12l21.92,13.65Z"/>
  </g>
</svg>