<?xml version="1.0" encoding="UTF-8"?>
<svg id="Layer_1" xmlns="http://www.w3.org/2000/svg" version="1.1" viewBox="0 0 1080 1080">
  <!-- Generator: Adobe Illustrator 30.0.0, SVG Export Plug-In . SVG Version: 2.1.1 Build 123)  -->
  <path d="M868.42,449.67c-68.6-118.81-237.8-81.96-281.57,37-3.96,1.07-4.35-1.04-6.57-2.58-39.37-27.32-74.49-72.78-118.57-94.34-80.63-39.45-178.13-7.88-221.4,69.72-83.97,150.59,78.54,307.91,227.51,230.14,5.84-3.05,8.9-10.16,16.44-8.31,11.26,30.17,32.46,55.5,55.26,77.53,1.23,5.09-1.4,3.24-3.24,4.55-78.77,56.38-199.74,55.37-282.35,7.64-175.86-101.61-173.94-356.48-.65-458.93,96.99-57.34,208.36-45.44,298.12,19.41,21.57-11.63,40.83-26.44,63.48-36.33,121.78-53.19,268.39-10.52,339.78,101.26.66,4.63-7.41,7.66-10.51,9.84-7.58,5.32-72.1,45.88-75.71,43.41h-.02Z"/>
  <path d="M871.22,634.37c2.99-1.77,6.98-.44,9.89.98l76.23,47.12c-110.41,178.37-382.93,164.27-468.18-31.05-19.64-45-27.13-93.12-20.16-141.99,1.25-8.74,7.76-43.5,11.44-49.02,3.95-5.93,12.44,2.75,15.68,5.3,25.73,20.28,49.37,43.85,75.13,64.19,5.38,9.39,1.32,25.53,2.52,36.9,7.39,69.66,62.65,137.16,135.24,143.39,71.53,6.15,110.92-19.91,157.95-68.42,2.01-2.08,3.46-6.95,4.26-7.42v.02Z"/>
</svg>