<?xml version="1.0" encoding="UTF-8"?>
<svg id="Layer_1" xmlns="http://www.w3.org/2000/svg" version="1.1" xmlns:xlink="http://www.w3.org/1999/xlink" viewBox="0 0 1080 1350">
  <!-- Generator: Adobe Illustrator 30.0.0, SVG Export Plug-In . SVG Version: 2.1.1 Build 123)  -->
  <defs>
    <style>
      .st0 {
        fill: #fff;
      }

      .st1 {
        fill: #6c5f31;
      }

      .st2 {
        opacity: .68;
      }

      .st3, .st4 {
        fill: none;
      }

      .st5 {
        fill: #cbffbc;
      }

      .st4 {
        stroke: #fff;
        stroke-linecap: round;
        stroke-miterlimit: 10;
        stroke-width: 3px;
      }

      .st6 {
        opacity: .38;
      }

      .st7 {
        fill: #00a63d;
      }

      .st8 {
        clip-path: url(#clippath);
      }
    </style>
    <clipPath id="clippath">
      <rect class="st3" width="1080" height="1350" rx="31.79" ry="31.79"/>
    </clipPath>
  </defs>
  <g class="st8">
    <rect class="st1" width="1080" height="1350" rx="31.79" ry="31.79"/>
    <g>
      <path class="st0" d="M176.58,558.45c-7.94,0-15.24-1.3-21.9-3.9-6.67-2.6-12.47-6.3-17.42-11.1-4.95-4.8-8.8-10.39-11.54-16.76-2.74-6.37-4.12-13.42-4.12-21.17s1.37-14.8,4.12-21.17c2.74-6.37,6.62-11.96,11.61-16.76,5-4.8,10.83-8.5,17.49-11.1,6.66-2.6,13.96-3.9,21.9-3.9,8.43,0,16.12,1.45,23.08,4.34,6.96,2.89,12.84,7.18,17.64,12.86l-12.35,11.61c-3.82-4.02-8.04-7.03-12.64-9.04-4.61-2.01-9.55-3.01-14.85-3.01s-10.32.88-14.77,2.65c-4.46,1.76-8.33,4.26-11.61,7.5-3.28,3.23-5.86,7.06-7.72,11.47-1.86,4.41-2.79,9.26-2.79,14.55s.93,10.14,2.79,14.55c1.86,4.41,4.43,8.23,7.72,11.47,3.28,3.23,7.15,5.73,11.61,7.5,4.46,1.76,9.38,2.65,14.77,2.65s10.24-1,14.85-3.01c4.61-2.01,8.82-5.07,12.64-9.19l12.35,11.61c-4.8,5.68-10.68,10-17.64,12.94-6.96,2.94-14.7,4.41-23.23,4.41Z"/>
      <path class="st0" d="M255.67,558.01c-5.88,0-11.03-1.01-15.44-3.01-4.41-2.01-7.82-4.8-10.22-8.38-2.4-3.58-3.6-7.62-3.6-12.13s1.05-8.38,3.16-11.91c2.11-3.53,5.56-6.32,10.36-8.38,4.8-2.06,11.17-3.09,19.11-3.09h22.79v12.2h-21.46c-6.17,0-10.36,1.01-12.57,3.01-2.21,2.01-3.31,4.53-3.31,7.57,0,3.23,1.32,5.83,3.97,7.79,2.65,1.96,6.32,2.94,11.02,2.94s8.55-1.03,12.13-3.09c3.58-2.06,6.2-5.09,7.86-9.11l2.94,11.02c-1.76,4.61-4.9,8.18-9.41,10.73-4.51,2.55-10.29,3.82-17.35,3.82ZM280.36,556.98v-16.02l-.88-3.23v-27.78c0-5.39-1.64-9.58-4.92-12.57-3.28-2.99-8.26-4.48-14.92-4.48-4.31,0-8.58.69-12.79,2.06-4.21,1.37-7.84,3.28-10.88,5.73l-7.2-13.38c4.31-3.23,9.36-5.68,15.14-7.35,5.78-1.67,11.81-2.5,18.08-2.5,11.47,0,20.29,2.74,26.46,8.23,6.17,5.49,9.26,13.92,9.26,25.28v46.01h-17.35Z"/>
      <path class="st0" d="M321.38,556.98v-78.5h17.49v21.61l-2.06-6.32c2.25-5.29,5.93-9.33,11.02-12.13,5.09-2.79,11.32-4.19,18.67-4.19v17.49c-.69-.1-1.37-.17-2.06-.22-.69-.05-1.32-.07-1.91-.07-7.06,0-12.64,2.01-16.76,6.03-4.12,4.02-6.17,10.14-6.17,18.38v37.93h-18.23Z"/>
      <path class="st0" d="M382.38,556.98v-109.07h18.23v48.8l-1.47,20.87.73,20.87v18.52h-17.49ZM425.75,558.01c-6.57,0-12.5-1.44-17.79-4.34-5.29-2.89-9.38-7.32-12.27-13.3-2.89-5.98-4.34-13.52-4.34-22.64s1.52-16.78,4.56-22.71c3.04-5.93,7.15-10.34,12.35-13.23,5.19-2.89,11.02-4.34,17.49-4.34,7.64,0,14.46,1.67,20.43,5,5.98,3.33,10.71,8.04,14.19,14.11,3.48,6.08,5.22,13.13,5.22,21.17s-1.74,15.21-5.22,21.24c-3.48,6.03-8.21,10.71-14.19,14.04-5.98,3.33-12.79,5-20.43,5ZM423.54,542.43c4.51,0,8.5-1,11.98-3.01,3.48-2.01,6.25-4.9,8.31-8.67,2.06-3.77,3.09-8.11,3.09-13.01s-1.03-9.33-3.09-13.01c-2.06-3.68-4.83-6.52-8.31-8.53-3.48-2.01-7.47-3.01-11.98-3.01s-8.23,1.01-11.76,3.01c-3.53,2.01-6.32,4.85-8.38,8.53-2.06,3.67-3.09,8.01-3.09,13.01s1.03,9.24,3.09,13.01c2.06,3.77,4.85,6.67,8.38,8.67,3.53,2.01,7.45,3.01,11.76,3.01Z"/>
      <path class="st0" d="M518.36,558.01c-7.94,0-15.07-1.74-21.39-5.22-6.32-3.48-11.3-8.25-14.92-14.33-3.63-6.08-5.44-12.98-5.44-20.73s1.81-14.9,5.44-20.87c3.62-5.98,8.57-10.71,14.85-14.19,6.27-3.48,13.42-5.22,21.46-5.22s15.36,1.74,21.68,5.22c6.32,3.48,11.27,8.21,14.85,14.19,3.58,5.98,5.37,12.94,5.37,20.87s-1.79,14.77-5.37,20.8c-3.58,6.03-8.55,10.78-14.92,14.26-6.37,3.48-13.58,5.22-21.61,5.22ZM518.36,542.43c4.51,0,8.53-1,12.05-3.01,3.53-2.01,6.3-4.9,8.31-8.67,2.01-3.77,3.01-8.11,3.01-13.01s-1.01-9.33-3.01-13.01c-2.01-3.68-4.78-6.52-8.31-8.53-3.53-2.01-7.5-3.01-11.91-3.01s-8.38,1.01-11.91,3.01c-3.53,2.01-6.32,4.85-8.38,8.53-2.06,3.67-3.09,8.01-3.09,13.01s1.03,9.24,3.09,13.01c2.06,3.77,4.85,6.67,8.38,8.67,3.53,2.01,7.45,3.01,11.76,3.01Z"/>
      <path class="st0" d="M578.04,556.98v-78.5h17.49v21.31l-3.09-6.61c2.65-5,6.59-8.87,11.83-11.61,5.24-2.74,11.29-4.12,18.15-4.12,6.37,0,11.98,1.23,16.83,3.67,4.85,2.45,8.72,6.22,11.61,11.32,2.89,5.1,4.34,11.61,4.34,19.55v44.98h-18.38v-42.63c0-6.96-1.62-12.15-4.85-15.58-3.23-3.43-7.84-5.15-13.82-5.15-4.31,0-8.14.88-11.47,2.65-3.33,1.76-5.91,4.39-7.72,7.86-1.81,3.48-2.72,7.86-2.72,13.16v39.69h-18.23Z"/>
      <path class="st0" d="M680.35,556.98v-102.9h19.11v86.73h53.8v16.17h-72.91Z"/>
      <path class="st0" d="M775.9,465.55c-3.43,0-6.25-1.08-8.45-3.23-2.21-2.15-3.31-4.8-3.31-7.94,0-2.94,1.1-5.49,3.31-7.64,2.21-2.15,5.02-3.23,8.45-3.23s6.25,1.01,8.45,3.01c2.21,2.01,3.31,4.58,3.31,7.72s-1.08,5.81-3.23,8.01c-2.16,2.21-5,3.31-8.53,3.31ZM766.78,556.98v-78.5h18.23v78.5h-18.23Z"/>
      <path class="st0" d="M829.99,556.98l-33.66-78.5h18.96l29.11,69.24h-9.41l29.99-69.24h17.64l-33.66,78.5h-18.96Z"/>
      <path class="st0" d="M928.77,558.01c-8.72,0-16.34-1.74-22.86-5.22-6.52-3.48-11.57-8.23-15.14-14.26-3.58-6.03-5.37-12.96-5.37-20.8s1.74-14.77,5.22-20.8c3.48-6.03,8.28-10.78,14.41-14.26,6.12-3.48,13.11-5.22,20.95-5.22s14.45,1.69,20.43,5.07c5.98,3.38,10.68,8.11,14.11,14.19,3.43,6.08,5.14,13.28,5.14,21.61,0,.69-.03,1.54-.07,2.57-.05,1.03-.12,1.94-.22,2.72h-65.42v-12.2h55.71l-7.35,3.82c.1-4.41-.81-8.35-2.72-11.83-1.91-3.48-4.53-6.17-7.86-8.08-3.33-1.91-7.25-2.87-11.76-2.87s-8.36.96-11.83,2.87c-3.48,1.91-6.15,4.63-8.01,8.16-1.86,3.53-2.79,7.6-2.79,12.2v2.94c0,4.7,1.05,8.87,3.16,12.5,2.11,3.63,5.12,6.45,9.04,8.45,3.92,2.01,8.48,3.01,13.67,3.01,4.41,0,8.38-.74,11.91-2.21,3.53-1.47,6.66-3.62,9.41-6.47l10,11.47c-3.63,4.12-8.11,7.25-13.45,9.41-5.34,2.16-11.44,3.23-18.3,3.23Z"/>
      <path class="st0" d="M183.54,694.99c-3.63-6.01-6.42-12.94-8.37-20.79-1.95-7.85-2.92-16.37-2.92-25.54s.97-17.74,2.92-25.69c1.95-7.95,4.74-14.83,8.37-20.64h4.75c-3.9,6.6-6.73,13.73-8.51,21.38-1.78,7.66-2.67,15.97-2.67,24.95s.89,17.29,2.67,24.95c1.78,7.66,4.62,14.78,8.51,21.38h-4.75Z"/>
      <path class="st0" d="M205.02,675.78v-69.3h46.33v4.55h-41.28v60.19h42.77v4.55h-47.82ZM209.47,642.82v-4.46h37.52v4.46h-37.52Z"/>
      <path class="st0" d="M269.66,675.78v-51.68h4.75v14.35l-.69-1.58c1.58-4.09,4.19-7.31,7.82-9.65,3.63-2.34,8.08-3.51,13.36-3.51,4.22,0,7.9.81,11.04,2.43,3.13,1.62,5.58,4.06,7.33,7.33,1.75,3.27,2.62,7.31,2.62,12.13v30.19h-4.95v-29.8c0-5.81-1.47-10.23-4.41-13.27-2.94-3.04-7.05-4.55-12.33-4.55-4.03,0-7.52.83-10.49,2.48-2.97,1.65-5.23,3.96-6.78,6.93-1.55,2.97-2.33,6.53-2.33,10.69v27.52h-4.95Z"/>
      <path class="st0" d="M327.78,628.36v-4.26h30.89v4.26h-30.89ZM351.34,676.18c-4.55,0-8.04-1.25-10.44-3.76-2.41-2.51-3.61-5.94-3.61-10.3v-49.3h4.95v48.81c0,3.3.82,5.84,2.48,7.62,1.65,1.78,4.02,2.67,7.13,2.67s5.91-.96,8.02-2.87l2.08,3.46c-1.32,1.25-2.92,2.18-4.8,2.77-1.88.59-3.81.89-5.79.89Z"/>
      <path class="st0" d="M375.69,675.78v-51.68h4.75v14.16l-.5-1.58c1.45-4.16,3.89-7.36,7.33-9.6,3.43-2.24,7.72-3.37,12.87-3.37v4.85c-.2,0-.4-.02-.59-.05-.2-.03-.4-.05-.59-.05-5.74,0-10.23,1.8-13.46,5.4-3.23,3.6-4.85,8.6-4.85,15v26.93h-4.95Z"/>
      <path class="st0" d="M434.3,676.18c-5.21,0-9.82-1.12-13.81-3.37-3.99-2.24-7.13-5.35-9.4-9.31-2.28-3.96-3.42-8.48-3.42-13.56s1.07-9.69,3.22-13.61c2.14-3.93,5.1-7.01,8.86-9.26,3.76-2.24,7.99-3.37,12.67-3.37s8.89,1.09,12.62,3.27c3.73,2.18,6.67,5.23,8.81,9.16,2.14,3.93,3.22,8.46,3.22,13.61,0,.2-.02.41-.05.64-.03.23-.05.48-.05.74h-45.64v-3.86h42.97l-1.98,1.88c.06-4.02-.78-7.64-2.53-10.84-1.75-3.2-4.11-5.71-7.08-7.52-2.97-1.81-6.4-2.72-10.3-2.72s-7.24.91-10.25,2.72c-3,1.82-5.36,4.32-7.08,7.52-1.72,3.2-2.57,6.85-2.57,10.94v.89c0,4.22.94,7.97,2.82,11.24,1.88,3.27,4.47,5.81,7.77,7.62,3.3,1.82,7.06,2.72,11.29,2.72,3.3,0,6.39-.59,9.26-1.78s5.29-3,7.28-5.45l2.87,3.27c-2.24,2.77-5.07,4.87-8.46,6.29-3.4,1.42-7.08,2.13-11.04,2.13Z"/>
      <path class="st0" d="M472.41,694.99v-70.88h4.75v16.93l-.79,9.01.99,9.01v35.94h-4.95ZM498.35,676.18c-4.55,0-8.66-1.06-12.33-3.17-3.66-2.11-6.57-5.13-8.71-9.06-2.15-3.93-3.22-8.6-3.22-14.01s1.07-10.08,3.22-14.01c2.14-3.93,5.05-6.95,8.71-9.06,3.66-2.11,7.77-3.17,12.33-3.17,4.88,0,9.26,1.11,13.12,3.32,3.86,2.21,6.9,5.3,9.11,9.26,2.21,3.96,3.32,8.51,3.32,13.66s-1.11,9.7-3.32,13.66c-2.21,3.96-5.25,7.05-9.11,9.26-3.86,2.21-8.23,3.32-13.12,3.32ZM498.05,671.72c3.96,0,7.52-.91,10.69-2.72,3.17-1.81,5.66-4.37,7.47-7.67,1.81-3.3,2.72-7.09,2.72-11.38s-.91-8.17-2.72-11.43c-1.82-3.27-4.31-5.81-7.47-7.62-3.17-1.81-6.73-2.72-10.69-2.72s-7.51.91-10.64,2.72c-3.13,1.82-5.61,4.36-7.42,7.62-1.82,3.27-2.72,7.08-2.72,11.43s.91,8.09,2.72,11.38c1.81,3.3,4.29,5.86,7.42,7.67,3.13,1.82,6.68,2.72,10.64,2.72Z"/>
      <path class="st0" d="M539.24,675.78v-51.68h4.75v14.16l-.5-1.58c1.45-4.16,3.89-7.36,7.33-9.6,3.43-2.24,7.72-3.37,12.87-3.37v4.85c-.2,0-.4-.02-.59-.05-.2-.03-.4-.05-.59-.05-5.74,0-10.23,1.8-13.46,5.4-3.23,3.6-4.85,8.6-4.85,15v26.93h-4.95Z"/>
      <path class="st0" d="M579.83,611.53c-1.12,0-2.08-.4-2.87-1.19s-1.19-1.72-1.19-2.77c0-1.12.4-2.08,1.19-2.87s1.75-1.19,2.87-1.19c1.19,0,2.16.38,2.92,1.14.76.76,1.14,1.7,1.14,2.82s-.38,2.08-1.14,2.87c-.76.79-1.73,1.19-2.92,1.19ZM577.35,675.78v-51.68h4.95v51.68h-4.95Z"/>
      <path class="st0" d="M616.26,676.18c-4.29,0-8.3-.63-12.03-1.88-3.73-1.25-6.62-2.84-8.66-4.75l2.28-3.96c1.98,1.72,4.62,3.18,7.92,4.41,3.3,1.22,6.86,1.83,10.69,1.83,5.41,0,9.31-.89,11.68-2.67,2.38-1.78,3.56-4.12,3.56-7.03,0-2.11-.61-3.78-1.83-5-1.22-1.22-2.86-2.16-4.9-2.82-2.05-.66-4.29-1.2-6.73-1.63-2.44-.43-4.88-.91-7.33-1.44-2.44-.53-4.69-1.29-6.73-2.28-2.05-.99-3.68-2.36-4.9-4.11-1.22-1.75-1.83-4.07-1.83-6.98,0-2.64.73-5.02,2.18-7.13,1.45-2.11,3.63-3.81,6.53-5.1,2.9-1.29,6.53-1.93,10.89-1.93,3.23,0,6.49.46,9.75,1.39,3.27.92,5.92,2.15,7.97,3.66l-2.28,3.96c-2.18-1.65-4.62-2.84-7.33-3.56-2.71-.73-5.44-1.09-8.22-1.09-5.02,0-8.7.92-11.04,2.77-2.34,1.85-3.51,4.16-3.51,6.93,0,2.18.61,3.91,1.83,5.2,1.22,1.29,2.85,2.28,4.9,2.97,2.04.69,4.29,1.25,6.73,1.68,2.44.43,4.88.91,7.33,1.44,2.44.53,4.69,1.27,6.73,2.23,2.04.96,3.68,2.28,4.9,3.96,1.22,1.68,1.83,3.94,1.83,6.78s-.78,5.31-2.33,7.43c-1.55,2.11-3.85,3.76-6.88,4.95-3.04,1.19-6.77,1.78-11.19,1.78Z"/>
      <path class="st0" d="M671.5,676.18c-5.21,0-9.82-1.12-13.81-3.37-3.99-2.24-7.13-5.35-9.41-9.31s-3.42-8.48-3.42-13.56,1.07-9.69,3.22-13.61c2.14-3.93,5.1-7.01,8.86-9.26,3.76-2.24,7.99-3.37,12.67-3.37s8.89,1.09,12.62,3.27c3.73,2.18,6.67,5.23,8.81,9.16,2.14,3.93,3.22,8.46,3.22,13.61,0,.2-.02.41-.05.64-.03.23-.05.48-.05.74h-45.64v-3.86h42.97l-1.98,1.88c.07-4.02-.78-7.64-2.52-10.84-1.75-3.2-4.11-5.71-7.08-7.52-2.97-1.81-6.4-2.72-10.3-2.72s-7.24.91-10.25,2.72c-3,1.82-5.36,4.32-7.08,7.52-1.72,3.2-2.57,6.85-2.57,10.94v.89c0,4.22.94,7.97,2.82,11.24,1.88,3.27,4.47,5.81,7.77,7.62,3.3,1.82,7.06,2.72,11.29,2.72,3.3,0,6.39-.59,9.26-1.78s5.3-3,7.28-5.45l2.87,3.27c-2.25,2.77-5.07,4.87-8.46,6.29-3.4,1.42-7.08,2.13-11.04,2.13Z"/>
      <path class="st0" d="M725.06,675.78l31.88-69.3h5.05l31.88,69.3h-5.44l-30.1-66.13h2.18l-30,66.13h-5.45ZM736.74,656.28l1.68-4.26h41.48l1.68,4.26h-44.85Z"/>
      <path class="st0" d="M806.43,675.78v-69.3h24.85c5.81,0,10.79.92,14.95,2.77,4.16,1.85,7.36,4.5,9.6,7.97,2.24,3.47,3.37,7.67,3.37,12.62s-1.12,8.98-3.37,12.47c-2.24,3.5-5.44,6.17-9.6,8.02-4.16,1.85-9.14,2.77-14.95,2.77h-22.08l2.28-2.38v25.05h-5.05ZM811.48,651.03l-2.28-2.48h22.08c7.46,0,13.12-1.63,16.98-4.9,3.86-3.27,5.79-7.87,5.79-13.81s-1.93-10.64-5.79-13.91c-3.86-3.27-9.52-4.9-16.98-4.9h-22.08l2.28-2.48v42.47Z"/>
      <path class="st0" d="M876.23,675.78v-69.3h5.05v69.3h-5.05Z"/>
      <path class="st0" d="M898.11,694.99c3.83-6.6,6.63-13.73,8.42-21.38s2.67-15.97,2.67-24.95-.89-17.29-2.67-24.95c-1.78-7.66-4.59-14.78-8.42-21.38h4.65c3.63,5.81,6.43,12.69,8.42,20.64,1.98,7.95,2.97,16.52,2.97,25.69s-.99,17.69-2.97,25.54c-1.98,7.85-4.79,14.78-8.42,20.79h-4.65Z"/>
    </g>
    <line class="st4" x1="99.83" y1="738.8" x2="980.17" y2="738.8"/>
    <g>
      <path class="st0" d="M98.55,812.32v-36.4h14.4c3.85,0,7.23.78,10.14,2.34,2.91,1.56,5.17,3.71,6.79,6.45,1.61,2.74,2.42,5.88,2.42,9.41s-.81,6.67-2.42,9.41c-1.61,2.74-3.87,4.89-6.79,6.45-2.91,1.56-6.29,2.34-10.14,2.34h-14.4ZM101.2,809.93h11.54c3.43,0,6.41-.68,8.94-2.03,2.53-1.35,4.49-3.21,5.88-5.59,1.39-2.37,2.08-5.1,2.08-8.19s-.69-5.81-2.08-8.19c-1.39-2.37-3.35-4.24-5.88-5.59-2.53-1.35-5.51-2.03-8.94-2.03h-11.54v31.62Z"/>
      <path class="st0" d="M141.97,778.57c-.59,0-1.09-.21-1.51-.62s-.62-.9-.62-1.46c0-.59.21-1.09.62-1.51s.92-.62,1.51-.62c.62,0,1.14.2,1.53.6.4.4.6.89.6,1.48s-.2,1.09-.6,1.51c-.4.42-.91.62-1.53.62ZM140.67,812.32v-27.14h2.6v27.14h-2.6Z"/>
      <path class="st0" d="M154.24,812.32v-27.14h2.5v7.44l-.26-.83c.76-2.18,2.04-3.87,3.85-5.04,1.8-1.18,4.06-1.77,6.76-1.77v2.55c-.1,0-.21,0-.31-.03-.1-.02-.21-.03-.31-.03-3.02,0-5.37.95-7.07,2.83-1.7,1.89-2.55,4.52-2.55,7.88v14.14h-2.6Z"/>
      <path class="st0" d="M185.02,812.53c-2.74,0-5.16-.59-7.25-1.77-2.1-1.18-3.74-2.81-4.94-4.89-1.2-2.08-1.79-4.45-1.79-7.12s.56-5.09,1.69-7.15c1.13-2.06,2.68-3.68,4.65-4.86,1.98-1.18,4.19-1.77,6.66-1.77s4.67.57,6.63,1.72c1.96,1.14,3.5,2.75,4.63,4.81,1.13,2.06,1.69,4.45,1.69,7.15,0,.1,0,.22-.03.34-.02.12-.03.25-.03.39h-23.97v-2.03h22.57l-1.04.99c.03-2.11-.41-4.01-1.33-5.69-.92-1.68-2.16-3-3.72-3.95-1.56-.95-3.36-1.43-5.41-1.43s-3.8.48-5.38,1.43c-1.58.95-2.82,2.27-3.72,3.95-.9,1.68-1.35,3.6-1.35,5.75v.47c0,2.22.49,4.19,1.48,5.9.99,1.72,2.35,3.05,4.08,4,1.73.95,3.71,1.43,5.93,1.43,1.73,0,3.35-.31,4.86-.94,1.51-.62,2.78-1.58,3.82-2.86l1.51,1.72c-1.18,1.46-2.66,2.56-4.45,3.3-1.79.75-3.72,1.12-5.8,1.12Z"/>
      <path class="st0" d="M215.81,812.53c-2.63,0-4.98-.59-7.05-1.77-2.06-1.18-3.69-2.81-4.89-4.89-1.2-2.08-1.79-4.45-1.79-7.12s.6-5.1,1.79-7.18c1.2-2.08,2.83-3.7,4.89-4.86,2.06-1.16,4.41-1.74,7.05-1.74,2.18,0,4.17.42,5.95,1.25,1.79.83,3.23,2.08,4.34,3.74l-1.92,1.4c-.97-1.39-2.18-2.41-3.64-3.07-1.46-.66-3.03-.99-4.73-.99-2.11,0-4.01.48-5.69,1.43-1.68.95-3,2.29-3.95,4-.95,1.72-1.43,3.72-1.43,6.01s.48,4.29,1.43,6.01c.95,1.72,2.27,3.05,3.95,4,1.68.95,3.58,1.43,5.69,1.43,1.7,0,3.28-.33,4.73-.99,1.46-.66,2.67-1.68,3.64-3.07l1.92,1.4c-1.11,1.66-2.56,2.91-4.34,3.74-1.79.83-3.77,1.25-5.95,1.25Z"/>
      <path class="st0" d="M229.74,787.41v-2.24h16.22v2.24h-16.22ZM242.12,812.53c-2.39,0-4.22-.66-5.49-1.98-1.27-1.32-1.9-3.12-1.9-5.41v-25.9h2.6v25.64c0,1.73.43,3.07,1.3,4,.87.94,2.11,1.4,3.74,1.4s3.1-.5,4.21-1.51l1.09,1.82c-.69.66-1.53,1.14-2.52,1.46-.99.31-2,.47-3.04.47Z"/>
      <path class="st0" d="M263.02,812.32l16.74-36.4h2.65l16.74,36.4h-2.86l-15.81-34.74h1.14l-15.76,34.74h-2.86ZM269.16,802.08l.88-2.24h21.79l.88,2.24h-23.56Z"/>
      <path class="st0" d="M305.77,812.32v-36.4h13.05c3.05,0,5.67.49,7.85,1.46,2.18.97,3.87,2.37,5.04,4.19,1.18,1.82,1.77,4.03,1.77,6.63s-.59,4.71-1.77,6.55c-1.18,1.84-2.86,3.24-5.04,4.21-2.18.97-4.8,1.46-7.85,1.46h-11.6l1.2-1.25v13.16h-2.65ZM308.42,799.32l-1.2-1.3h11.6c3.92,0,6.89-.86,8.92-2.57s3.04-4.13,3.04-7.25-1.01-5.59-3.04-7.31c-2.03-1.72-5-2.57-8.92-2.57h-11.6l1.2-1.3v22.31Z"/>
      <path class="st0" d="M342.42,812.32v-36.4h2.65v36.4h-2.65Z"/>
      <path class="st0" d="M371.6,778.57c-.59,0-1.09-.21-1.51-.62s-.62-.9-.62-1.46c0-.59.21-1.09.62-1.51s.92-.62,1.51-.62c.62,0,1.14.2,1.53.6.4.4.6.89.6,1.48s-.2,1.09-.6,1.51c-.4.42-.91.62-1.53.62ZM370.3,812.32v-27.14h2.6v27.14h-2.6Z"/>
      <path class="st0" d="M383.87,812.32v-27.14h2.5v7.54l-.36-.83c.83-2.15,2.2-3.84,4.11-5.07,1.91-1.23,4.25-1.85,7.02-1.85,2.22,0,4.15.42,5.8,1.27,1.65.85,2.93,2.13,3.85,3.85.92,1.72,1.38,3.84,1.38,6.37v15.86h-2.6v-15.65c0-3.05-.77-5.37-2.31-6.97-1.54-1.59-3.7-2.39-6.47-2.39-2.12,0-3.95.43-5.51,1.3-1.56.87-2.75,2.08-3.56,3.64-.81,1.56-1.22,3.43-1.22,5.62v14.46h-2.6Z"/>
      <path class="st0" d="M414.39,787.41v-2.24h16.22v2.24h-16.22ZM426.77,812.53c-2.39,0-4.22-.66-5.49-1.98-1.27-1.32-1.9-3.12-1.9-5.41v-25.9h2.6v25.64c0,1.73.43,3.07,1.3,4,.87.94,2.11,1.4,3.74,1.4s3.1-.5,4.21-1.51l1.09,1.82c-.69.66-1.53,1.14-2.52,1.46-.99.31-2,.47-3.04.47Z"/>
      <path class="st0" d="M449.59,812.53c-2.74,0-5.16-.59-7.25-1.77-2.1-1.18-3.74-2.81-4.94-4.89-1.2-2.08-1.79-4.45-1.79-7.12s.56-5.09,1.69-7.15c1.13-2.06,2.68-3.68,4.65-4.86,1.98-1.18,4.19-1.77,6.66-1.77s4.67.57,6.63,1.72c1.96,1.14,3.5,2.75,4.63,4.81,1.13,2.06,1.69,4.45,1.69,7.15,0,.1,0,.22-.03.34-.02.12-.03.25-.03.39h-23.97v-2.03h22.57l-1.04.99c.03-2.11-.41-4.01-1.33-5.69-.92-1.68-2.16-3-3.72-3.95-1.56-.95-3.36-1.43-5.41-1.43s-3.8.48-5.38,1.43c-1.58.95-2.82,2.27-3.72,3.95-.9,1.68-1.35,3.6-1.35,5.75v.47c0,2.22.49,4.19,1.48,5.9.99,1.72,2.35,3.05,4.08,4,1.73.95,3.71,1.43,5.93,1.43,1.73,0,3.35-.31,4.86-.94,1.51-.62,2.78-1.58,3.82-2.86l1.51,1.72c-1.18,1.46-2.66,2.56-4.45,3.3-1.79.75-3.72,1.12-5.8,1.12Z"/>
      <path class="st0" d="M480.17,811.33c-2.57,0-4.86-.56-6.89-1.69-2.03-1.13-3.64-2.69-4.84-4.68-1.2-1.99-1.79-4.27-1.79-6.84s.6-4.89,1.79-6.86c1.2-1.98,2.81-3.52,4.84-4.63,2.03-1.11,4.32-1.66,6.89-1.66s4.67.53,6.63,1.59c1.96,1.06,3.51,2.57,4.65,4.52,1.14,1.96,1.72,4.31,1.72,7.05s-.57,5.04-1.72,7.02c-1.14,1.98-2.7,3.5-4.65,4.58-1.96,1.07-4.17,1.61-6.63,1.61ZM480.9,822.62c-2.46,0-4.8-.38-7.02-1.14-2.22-.76-4.02-1.82-5.41-3.17l1.4-1.98c1.35,1.25,2.97,2.22,4.86,2.91,1.89.69,3.93,1.04,6.11,1.04,3.64,0,6.32-.85,8.03-2.55,1.72-1.7,2.57-4.37,2.57-8.01v-7.54l.52-4.06-.42-4.06v-8.89h2.5v24.23c0,4.54-1.1,7.88-3.3,10.01-2.2,2.13-5.49,3.2-9.85,3.2ZM480.38,808.99c2.18,0,4.11-.46,5.77-1.38,1.66-.92,2.97-2.2,3.93-3.85.95-1.65,1.43-3.53,1.43-5.64s-.48-4.04-1.43-5.67c-.95-1.63-2.26-2.89-3.93-3.8-1.66-.9-3.59-1.35-5.77-1.35s-4.01.45-5.69,1.35c-1.68.9-3,2.17-3.95,3.8-.95,1.63-1.43,3.52-1.43,5.67s.48,4,1.43,5.64c.95,1.65,2.27,2.93,3.95,3.85,1.68.92,3.58,1.38,5.69,1.38Z"/>
      <path class="st0" d="M505.08,812.32v-27.14h2.5v7.44l-.26-.83c.76-2.18,2.04-3.87,3.85-5.04,1.8-1.18,4.06-1.77,6.76-1.77v2.55c-.1,0-.21,0-.31-.03-.1-.02-.21-.03-.31-.03-3.02,0-5.37.95-7.07,2.83-1.7,1.89-2.55,4.52-2.55,7.88v14.14h-2.6Z"/>
      <path class="st0" d="M530.92,812.53c-2.01,0-3.75-.32-5.23-.96-1.47-.64-2.6-1.55-3.38-2.73-.78-1.18-1.17-2.53-1.17-4.06,0-1.39.32-2.64.96-3.77.64-1.13,1.71-2.05,3.2-2.76,1.49-.71,3.48-1.07,5.98-1.07h9.98v2.03h-9.93c-2.81,0-4.78.52-5.9,1.56-1.13,1.04-1.69,2.34-1.69,3.9,0,1.73.66,3.12,1.98,4.16,1.32,1.04,3.17,1.56,5.56,1.56s4.22-.52,5.8-1.56c1.58-1.04,2.75-2.55,3.51-4.52l.73,1.77c-.73,1.98-1.97,3.54-3.72,4.71-1.75,1.16-3.98,1.74-6.68,1.74ZM540.7,812.32v-6.19l-.1-.94v-10.19c0-2.53-.69-4.45-2.05-5.77-1.37-1.32-3.37-1.98-6.01-1.98-1.87,0-3.61.32-5.23.96s-2.99,1.46-4.13,2.47l-1.3-1.87c1.35-1.21,2.98-2.16,4.89-2.83,1.91-.68,3.9-1.01,5.98-1.01,3.36,0,5.94.85,7.75,2.55,1.8,1.7,2.7,4.23,2.7,7.59v17.21h-2.5Z"/>
      <path class="st0" d="M549.43,787.41v-2.24h16.22v2.24h-16.22ZM561.81,812.53c-2.39,0-4.22-.66-5.49-1.98s-1.9-3.12-1.9-5.41v-25.9h2.6v25.64c0,1.73.43,3.07,1.3,4,.87.94,2.11,1.4,3.74,1.4s3.1-.5,4.21-1.51l1.09,1.82c-.69.66-1.53,1.14-2.52,1.46-.99.31-2,.47-3.04.47Z"/>
      <path class="st0" d="M575.9,778.57c-.59,0-1.09-.21-1.51-.62s-.62-.9-.62-1.46c0-.59.21-1.09.62-1.51s.92-.62,1.51-.62c.62,0,1.14.2,1.53.6.4.4.6.89.6,1.48s-.2,1.09-.6,1.51-.91.62-1.53.62ZM574.6,812.32v-27.14h2.6v27.14h-2.6Z"/>
      <path class="st0" d="M598.78,812.53c-2.6,0-4.91-.59-6.94-1.77-2.03-1.18-3.64-2.81-4.84-4.89-1.2-2.08-1.79-4.45-1.79-7.12s.6-5.09,1.79-7.15c1.2-2.06,2.81-3.68,4.84-4.86,2.03-1.18,4.34-1.77,6.94-1.77s4.92.59,6.97,1.77c2.04,1.18,3.66,2.8,4.84,4.86s1.77,4.45,1.77,7.15-.59,5.04-1.77,7.12-2.79,3.71-4.84,4.89c-2.05,1.18-4.37,1.77-6.97,1.77ZM598.78,810.19c2.08,0,3.95-.48,5.62-1.43s2.96-2.3,3.9-4.03c.94-1.73,1.4-3.73,1.4-5.98s-.47-4.29-1.4-6.01c-.94-1.72-2.24-3.05-3.9-4-1.66-.95-3.54-1.43-5.62-1.43s-3.94.48-5.59,1.43c-1.65.95-2.95,2.29-3.9,4-.95,1.72-1.43,3.72-1.43,6.01s.48,4.25,1.43,5.98c.95,1.73,2.25,3.08,3.9,4.03,1.65.95,3.51,1.43,5.59,1.43Z"/>
      <path class="st0" d="M620.41,812.32v-27.14h2.5v7.54l-.36-.83c.83-2.15,2.2-3.84,4.11-5.07,1.91-1.23,4.25-1.85,7.02-1.85,2.22,0,4.15.42,5.8,1.27,1.65.85,2.93,2.13,3.85,3.85.92,1.72,1.38,3.84,1.38,6.37v15.86h-2.6v-15.65c0-3.05-.77-5.37-2.31-6.97-1.54-1.59-3.7-2.39-6.47-2.39-2.12,0-3.95.43-5.51,1.3-1.56.87-2.75,2.08-3.56,3.64-.81,1.56-1.22,3.43-1.22,5.62v14.46h-2.6Z"/>
      <path class="st0" d="M664.3,787.41v-2.24h16.22v2.24h-16.22ZM669.29,812.32v-31.3c0-2.25.65-4.06,1.95-5.43,1.3-1.37,3.16-2.05,5.59-2.05,1,0,1.99.15,2.96.44.97.29,1.77.74,2.39,1.33l-1.04,1.98c-.52-.52-1.14-.9-1.87-1.14-.73-.24-1.51-.36-2.34-.36-1.66,0-2.93.46-3.8,1.38-.87.92-1.3,2.28-1.3,4.08v4.58l.05,1.25v25.27h-2.6Z"/>
      <path class="st0" d="M695.97,812.53c-2.6,0-4.91-.59-6.94-1.77-2.03-1.18-3.64-2.81-4.84-4.89-1.2-2.08-1.79-4.45-1.79-7.12s.6-5.09,1.79-7.15c1.2-2.06,2.81-3.68,4.84-4.86,2.03-1.18,4.34-1.77,6.94-1.77s4.92.59,6.97,1.77c2.04,1.18,3.66,2.8,4.84,4.86s1.77,4.45,1.77,7.15-.59,5.04-1.77,7.12-2.79,3.71-4.84,4.89c-2.05,1.18-4.37,1.77-6.97,1.77ZM695.97,810.19c2.08,0,3.95-.48,5.62-1.43s2.96-2.3,3.9-4.03c.94-1.73,1.4-3.73,1.4-5.98s-.47-4.29-1.4-6.01c-.94-1.72-2.24-3.05-3.9-4-1.66-.95-3.54-1.43-5.62-1.43s-3.94.48-5.59,1.43c-1.65.95-2.95,2.29-3.9,4-.95,1.72-1.43,3.72-1.43,6.01s.48,4.25,1.43,5.98c.95,1.73,2.25,3.08,3.9,4.03,1.65.95,3.51,1.43,5.59,1.43Z"/>
      <path class="st0" d="M717.6,812.32v-27.14h2.5v7.44l-.26-.83c.76-2.18,2.04-3.87,3.85-5.04,1.8-1.18,4.06-1.77,6.76-1.77v2.55c-.1,0-.21,0-.31-.03-.1-.02-.21-.03-.31-.03-3.02,0-5.37.95-7.07,2.83-1.7,1.89-2.55,4.52-2.55,7.88v14.14h-2.6Z"/>
      <path class="st0" d="M758.78,812.53c-2.01,0-3.75-.32-5.23-.96-1.47-.64-2.6-1.55-3.38-2.73-.78-1.18-1.17-2.53-1.17-4.06,0-1.39.32-2.64.96-3.77.64-1.13,1.71-2.05,3.2-2.76,1.49-.71,3.48-1.07,5.98-1.07h9.98v2.03h-9.93c-2.81,0-4.78.52-5.9,1.56-1.13,1.04-1.69,2.34-1.69,3.9,0,1.73.66,3.12,1.98,4.16s3.17,1.56,5.56,1.56,4.22-.52,5.8-1.56c1.58-1.04,2.75-2.55,3.51-4.52l.73,1.77c-.73,1.98-1.97,3.54-3.72,4.71-1.75,1.16-3.98,1.74-6.68,1.74ZM768.56,812.32v-6.19l-.1-.94v-10.19c0-2.53-.68-4.45-2.05-5.77-1.37-1.32-3.37-1.98-6.01-1.98-1.87,0-3.61.32-5.23.96-1.61.64-2.99,1.46-4.13,2.47l-1.3-1.87c1.35-1.21,2.98-2.16,4.89-2.83s3.9-1.01,5.98-1.01c3.36,0,5.95.85,7.75,2.55,1.8,1.7,2.7,4.23,2.7,7.59v17.21h-2.5Z"/>
      <path class="st0" d="M792.32,811.33c-2.57,0-4.86-.56-6.89-1.69-2.03-1.13-3.64-2.69-4.84-4.68-1.2-1.99-1.79-4.27-1.79-6.84s.6-4.89,1.79-6.86c1.2-1.98,2.81-3.52,4.84-4.63,2.03-1.11,4.32-1.66,6.89-1.66s4.67.53,6.63,1.59c1.96,1.06,3.51,2.57,4.65,4.52,1.14,1.96,1.72,4.31,1.72,7.05s-.57,5.04-1.72,7.02c-1.14,1.98-2.7,3.5-4.65,4.58-1.96,1.07-4.17,1.61-6.63,1.61ZM793.05,822.62c-2.46,0-4.8-.38-7.02-1.14-2.22-.76-4.02-1.82-5.41-3.17l1.4-1.98c1.35,1.25,2.97,2.22,4.86,2.91,1.89.69,3.93,1.04,6.11,1.04,3.64,0,6.32-.85,8.03-2.55,1.72-1.7,2.57-4.37,2.57-8.01v-7.54l.52-4.06-.42-4.06v-8.89h2.5v24.23c0,4.54-1.1,7.88-3.3,10.01-2.2,2.13-5.49,3.2-9.85,3.2ZM792.53,808.99c2.18,0,4.11-.46,5.77-1.38,1.66-.92,2.97-2.2,3.93-3.85s1.43-3.53,1.43-5.64-.48-4.04-1.43-5.67c-.95-1.63-2.26-2.89-3.93-3.8-1.66-.9-3.59-1.35-5.77-1.35s-4.01.45-5.69,1.35c-1.68.9-3,2.17-3.95,3.8-.95,1.63-1.43,3.52-1.43,5.67s.48,4,1.43,5.64c.95,1.65,2.27,2.93,3.95,3.85,1.68.92,3.58,1.38,5.69,1.38Z"/>
      <path class="st0" d="M828.25,812.53c-2.74,0-5.16-.59-7.25-1.77-2.1-1.18-3.74-2.81-4.94-4.89-1.2-2.08-1.79-4.45-1.79-7.12s.56-5.09,1.69-7.15c1.13-2.06,2.68-3.68,4.65-4.86,1.98-1.18,4.19-1.77,6.66-1.77s4.67.57,6.63,1.72c1.96,1.14,3.5,2.75,4.63,4.81,1.13,2.06,1.69,4.45,1.69,7.15,0,.1,0,.22-.03.34-.02.12-.03.25-.03.39h-23.97v-2.03h22.57l-1.04.99c.03-2.11-.41-4.01-1.33-5.69-.92-1.68-2.16-3-3.72-3.95-1.56-.95-3.36-1.43-5.41-1.43s-3.8.48-5.38,1.43c-1.58.95-2.82,2.27-3.72,3.95-.9,1.68-1.35,3.6-1.35,5.75v.47c0,2.22.49,4.19,1.48,5.9.99,1.72,2.35,3.05,4.08,4,1.73.95,3.71,1.43,5.93,1.43,1.73,0,3.35-.31,4.86-.94s2.78-1.58,3.82-2.86l1.51,1.72c-1.18,1.46-2.66,2.56-4.45,3.3-1.79.75-3.72,1.12-5.8,1.12Z"/>
      <path class="st0" d="M848.27,812.32v-27.14h2.5v7.54l-.36-.83c.83-2.15,2.2-3.84,4.11-5.07,1.91-1.23,4.25-1.85,7.02-1.85,2.22,0,4.15.42,5.8,1.27,1.65.85,2.93,2.13,3.85,3.85.92,1.72,1.38,3.84,1.38,6.37v15.86h-2.6v-15.65c0-3.05-.77-5.37-2.31-6.97-1.54-1.59-3.7-2.39-6.47-2.39-2.12,0-3.95.43-5.51,1.3-1.56.87-2.75,2.08-3.56,3.64-.81,1.56-1.22,3.43-1.22,5.62v14.46h-2.6Z"/>
      <path class="st0" d="M894.03,812.53c-2.64,0-4.98-.59-7.05-1.77-2.06-1.18-3.69-2.81-4.89-4.89-1.2-2.08-1.79-4.45-1.79-7.12s.6-5.1,1.79-7.18c1.2-2.08,2.83-3.7,4.89-4.86,2.06-1.16,4.41-1.74,7.05-1.74,2.18,0,4.17.42,5.95,1.25,1.78.83,3.23,2.08,4.34,3.74l-1.92,1.4c-.97-1.39-2.18-2.41-3.64-3.07-1.46-.66-3.03-.99-4.73-.99-2.12,0-4.01.48-5.69,1.43-1.68.95-3,2.29-3.95,4-.95,1.72-1.43,3.72-1.43,6.01s.48,4.29,1.43,6.01c.95,1.72,2.27,3.05,3.95,4,1.68.95,3.58,1.43,5.69,1.43,1.7,0,3.28-.33,4.73-.99,1.46-.66,2.67-1.68,3.64-3.07l1.92,1.4c-1.11,1.66-2.56,2.91-4.34,3.74-1.79.83-3.77,1.25-5.95,1.25Z"/>
      <path class="st0" d="M912.96,778.57c-.59,0-1.09-.21-1.51-.62s-.62-.9-.62-1.46c0-.59.21-1.09.62-1.51s.92-.62,1.51-.62c.62,0,1.14.2,1.53.6.4.4.6.89.6,1.48s-.2,1.09-.6,1.51-.91.62-1.53.62ZM911.66,812.32v-27.14h2.6v27.14h-2.6Z"/>
      <path class="st0" d="M936.25,812.53c-2.74,0-5.16-.59-7.25-1.77-2.1-1.18-3.74-2.81-4.94-4.89-1.2-2.08-1.79-4.45-1.79-7.12s.56-5.09,1.69-7.15c1.13-2.06,2.68-3.68,4.65-4.86,1.98-1.18,4.19-1.77,6.66-1.77s4.67.57,6.63,1.72c1.96,1.14,3.5,2.75,4.63,4.81,1.13,2.06,1.69,4.45,1.69,7.15,0,.1,0,.22-.03.34-.02.12-.03.25-.03.39h-23.97v-2.03h22.57l-1.04.99c.03-2.11-.41-4.01-1.33-5.69-.92-1.68-2.16-3-3.72-3.95-1.56-.95-3.36-1.43-5.41-1.43s-3.8.48-5.38,1.43c-1.58.95-2.82,2.27-3.72,3.95-.9,1.68-1.35,3.6-1.35,5.75v.47c0,2.22.49,4.19,1.48,5.9.99,1.72,2.35,3.05,4.08,4,1.73.95,3.71,1.43,5.93,1.43,1.73,0,3.35-.31,4.86-.94s2.78-1.58,3.82-2.86l1.51,1.72c-1.18,1.46-2.66,2.56-4.45,3.3-1.79.75-3.72,1.12-5.8,1.12Z"/>
      <path class="st0" d="M963.14,812.53c-2.25,0-4.36-.33-6.32-.99-1.96-.66-3.48-1.49-4.55-2.5l1.2-2.08c1.04.9,2.43,1.67,4.16,2.31,1.73.64,3.6.96,5.62.96,2.84,0,4.89-.47,6.14-1.4,1.25-.94,1.87-2.17,1.87-3.69,0-1.11-.32-1.98-.96-2.63-.64-.64-1.5-1.14-2.57-1.48-1.08-.35-2.25-.63-3.54-.86-1.28-.23-2.57-.48-3.85-.75-1.28-.28-2.46-.68-3.54-1.2-1.08-.52-1.93-1.24-2.57-2.16-.64-.92-.96-2.14-.96-3.67,0-1.39.38-2.63,1.14-3.74.76-1.11,1.91-2,3.43-2.68,1.52-.68,3.43-1.01,5.72-1.01,1.7,0,3.41.24,5.12.73,1.72.49,3.11,1.13,4.19,1.92l-1.2,2.08c-1.14-.87-2.43-1.49-3.85-1.87-1.42-.38-2.86-.57-4.32-.57-2.63,0-4.57.49-5.8,1.46-1.23.97-1.85,2.18-1.85,3.64,0,1.14.32,2.05.96,2.73.64.68,1.5,1.2,2.57,1.56,1.07.36,2.25.66,3.54.88,1.28.23,2.57.48,3.85.75,1.28.28,2.46.67,3.54,1.17,1.07.5,1.93,1.2,2.57,2.08.64.88.96,2.07.96,3.56s-.41,2.79-1.22,3.9c-.82,1.11-2.02,1.98-3.61,2.6-1.59.62-3.55.94-5.88.94Z"/>
      <path class="st0" d="M978.63,819.76l2.03-8.79.26,1.51c-.66,0-1.21-.21-1.64-.62-.43-.42-.65-.94-.65-1.56s.22-1.14.65-1.56c.43-.42.94-.62,1.53-.62.66,0,1.19.22,1.59.65.4.43.6.94.6,1.53,0,.24-.02.49-.05.73-.04.24-.09.49-.16.73-.07.24-.16.56-.26.94l-2.03,7.07h-1.87Z"/>
      <path class="st0" d="M151.02,874.72v-36.4h14.4c3.85,0,7.23.78,10.14,2.34,2.91,1.56,5.17,3.71,6.79,6.45,1.61,2.74,2.42,5.88,2.42,9.41s-.81,6.67-2.42,9.41c-1.61,2.74-3.87,4.89-6.79,6.45-2.91,1.56-6.29,2.34-10.14,2.34h-14.4ZM153.67,872.33h11.54c3.43,0,6.41-.68,8.94-2.03,2.53-1.35,4.49-3.21,5.88-5.59,1.39-2.37,2.08-5.1,2.08-8.19s-.69-5.81-2.08-8.19c-1.39-2.37-3.35-4.24-5.88-5.59-2.53-1.35-5.51-2.03-8.94-2.03h-11.54v31.62Z"/>
      <path class="st0" d="M203.54,874.98c-2.7,0-5.26-.46-7.67-1.38-2.41-.92-4.27-2.11-5.59-3.56l1.2-1.98c1.25,1.28,2.96,2.37,5.12,3.25,2.17.88,4.46,1.33,6.89,1.33s4.41-.32,5.95-.96c1.54-.64,2.69-1.5,3.43-2.57.75-1.07,1.12-2.27,1.12-3.59,0-1.56-.42-2.81-1.25-3.74-.83-.94-1.92-1.68-3.28-2.24s-2.83-1.02-4.42-1.4c-1.59-.38-3.21-.79-4.84-1.22-1.63-.43-3.12-1-4.47-1.69-1.35-.69-2.44-1.64-3.25-2.83-.81-1.2-1.22-2.75-1.22-4.65,0-1.73.45-3.33,1.35-4.78.9-1.46,2.3-2.63,4.21-3.54,1.91-.9,4.35-1.35,7.33-1.35,2.01,0,4,.29,5.95.88,1.96.59,3.63,1.39,5.02,2.39l-.99,2.13c-1.53-1.04-3.16-1.81-4.91-2.31-1.75-.5-3.44-.75-5.07-.75-2.32,0-4.25.33-5.77.99-1.53.66-2.65,1.53-3.38,2.63s-1.09,2.31-1.09,3.67c0,1.56.41,2.81,1.22,3.74.81.94,1.9,1.68,3.25,2.24s2.84,1.02,4.47,1.4c1.63.38,3.24.79,4.84,1.22,1.59.43,3.07,1,4.42,1.69,1.35.69,2.44,1.63,3.28,2.81s1.25,2.7,1.25,4.58c0,1.7-.47,3.29-1.4,4.76s-2.37,2.65-4.29,3.54c-1.92.88-4.39,1.33-7.41,1.33Z"/>
      <path class="st0" d="M225.63,874.72v-36.4h13.05c3.05,0,5.67.49,7.85,1.46,2.18.97,3.87,2.37,5.04,4.19,1.18,1.82,1.77,4.03,1.77,6.63s-.59,4.71-1.77,6.55c-1.18,1.84-2.86,3.24-5.04,4.21-2.18.97-4.8,1.46-7.85,1.46h-11.6l1.2-1.25v13.16h-2.65ZM228.29,861.72l-1.2-1.3h11.6c3.92,0,6.89-.86,8.92-2.57s3.04-4.13,3.04-7.25-1.01-5.59-3.04-7.31c-2.03-1.72-5-2.57-8.92-2.57h-11.6l1.2-1.3v22.31Z"/>
      <path class="st0" d="M268.85,874.93c-2.25,0-4.36-.33-6.32-.99-1.96-.66-3.48-1.49-4.55-2.5l1.2-2.08c1.04.9,2.43,1.67,4.16,2.31,1.73.64,3.61.96,5.62.96,2.84,0,4.89-.47,6.14-1.4,1.25-.94,1.87-2.17,1.87-3.69,0-1.11-.32-1.98-.96-2.63-.64-.64-1.5-1.14-2.57-1.48-1.08-.35-2.25-.63-3.54-.86-1.28-.23-2.57-.48-3.85-.75-1.28-.28-2.46-.68-3.54-1.2-1.08-.52-1.93-1.24-2.57-2.16-.64-.92-.96-2.14-.96-3.67,0-1.39.38-2.63,1.14-3.74.76-1.11,1.91-2,3.43-2.68,1.53-.68,3.43-1.01,5.72-1.01,1.7,0,3.41.24,5.12.73,1.72.49,3.11,1.13,4.19,1.92l-1.2,2.08c-1.14-.87-2.43-1.49-3.85-1.87-1.42-.38-2.86-.57-4.32-.57-2.64,0-4.57.49-5.8,1.46-1.23.97-1.85,2.18-1.85,3.64,0,1.14.32,2.05.96,2.73.64.68,1.5,1.2,2.57,1.56,1.07.36,2.25.66,3.54.88,1.28.23,2.56.48,3.85.75,1.28.28,2.46.67,3.54,1.17,1.07.5,1.93,1.2,2.57,2.08.64.88.96,2.07.96,3.56s-.41,2.79-1.22,3.9c-.81,1.11-2.02,1.98-3.61,2.6-1.59.62-3.55.94-5.88.94Z"/>
      <path class="st0" d="M284.34,882.16l2.03-8.79.26,1.51c-.66,0-1.21-.21-1.64-.62-.43-.42-.65-.94-.65-1.56s.22-1.14.65-1.56c.43-.42.94-.62,1.53-.62.66,0,1.19.22,1.59.65.4.43.6.94.6,1.53,0,.24-.02.49-.05.73-.04.24-.09.49-.16.73-.07.24-.16.56-.26.94l-2.03,7.07h-1.87Z"/>
      <path class="st0" d="M321,874.98c-2.7,0-5.26-.46-7.67-1.38-2.41-.92-4.27-2.11-5.59-3.56l1.2-1.98c1.25,1.28,2.96,2.37,5.12,3.25,2.17.88,4.46,1.33,6.89,1.33s4.41-.32,5.95-.96c1.54-.64,2.69-1.5,3.43-2.57.75-1.07,1.12-2.27,1.12-3.59,0-1.56-.42-2.81-1.25-3.74-.83-.94-1.92-1.68-3.28-2.24s-2.83-1.02-4.42-1.4c-1.59-.38-3.21-.79-4.84-1.22-1.63-.43-3.12-1-4.47-1.69-1.35-.69-2.44-1.64-3.25-2.83-.81-1.2-1.22-2.75-1.22-4.65,0-1.73.45-3.33,1.35-4.78.9-1.46,2.3-2.63,4.21-3.54,1.91-.9,4.35-1.35,7.33-1.35,2.01,0,4,.29,5.95.88,1.96.59,3.63,1.39,5.02,2.39l-.99,2.13c-1.53-1.04-3.16-1.81-4.91-2.31-1.75-.5-3.44-.75-5.07-.75-2.32,0-4.25.33-5.77.99-1.53.66-2.65,1.53-3.38,2.63s-1.09,2.31-1.09,3.67c0,1.56.41,2.81,1.22,3.74.81.94,1.9,1.68,3.25,2.24s2.84,1.02,4.47,1.4c1.63.38,3.24.79,4.84,1.22,1.59.43,3.07,1,4.42,1.69,1.35.69,2.44,1.63,3.28,2.81s1.25,2.7,1.25,4.58c0,1.7-.47,3.29-1.4,4.76s-2.37,2.65-4.29,3.54c-1.92.88-4.39,1.33-7.41,1.33Z"/>
      <path class="st0" d="M352.67,874.98c-2.7,0-5.26-.46-7.67-1.38-2.41-.92-4.27-2.11-5.59-3.56l1.2-1.98c1.25,1.28,2.96,2.37,5.12,3.25,2.17.88,4.46,1.33,6.89,1.33s4.41-.32,5.95-.96c1.54-.64,2.69-1.5,3.43-2.57.75-1.07,1.12-2.27,1.12-3.59,0-1.56-.42-2.81-1.25-3.74-.83-.94-1.92-1.68-3.28-2.24s-2.83-1.02-4.42-1.4c-1.59-.38-3.21-.79-4.84-1.22-1.63-.43-3.12-1-4.47-1.69-1.35-.69-2.44-1.64-3.25-2.83-.81-1.2-1.22-2.75-1.22-4.65,0-1.73.45-3.33,1.35-4.78.9-1.46,2.3-2.63,4.21-3.54,1.91-.9,4.35-1.35,7.33-1.35,2.01,0,4,.29,5.95.88,1.96.59,3.63,1.39,5.02,2.39l-.99,2.13c-1.53-1.04-3.16-1.81-4.91-2.31-1.75-.5-3.44-.75-5.07-.75-2.32,0-4.25.33-5.77.99-1.53.66-2.65,1.53-3.38,2.63s-1.09,2.31-1.09,3.67c0,1.56.41,2.81,1.22,3.74.81.94,1.9,1.68,3.25,2.24s2.84,1.02,4.47,1.4c1.63.38,3.24.79,4.84,1.22,1.59.43,3.07,1,4.42,1.69,1.35.69,2.44,1.63,3.28,2.81s1.25,2.7,1.25,4.58c0,1.7-.47,3.29-1.4,4.76s-2.37,2.65-4.29,3.54c-1.92.88-4.39,1.33-7.41,1.33Z"/>
      <path class="st0" d="M374.77,874.72v-36.4h13.05c3.05,0,5.67.49,7.85,1.46,2.18.97,3.87,2.37,5.04,4.19,1.18,1.82,1.77,4.03,1.77,6.63s-.59,4.71-1.77,6.55c-1.18,1.84-2.86,3.24-5.04,4.21-2.18.97-4.8,1.46-7.85,1.46h-11.6l1.2-1.25v13.16h-2.65ZM377.42,861.72l-1.2-1.3h11.6c3.92,0,6.89-.86,8.92-2.57s3.04-4.13,3.04-7.25-1.01-5.59-3.04-7.31c-2.03-1.72-5-2.57-8.92-2.57h-11.6l1.2-1.3v22.31Z"/>
      <path class="st0" d="M417.98,874.93c-2.25,0-4.36-.33-6.32-.99-1.96-.66-3.48-1.49-4.55-2.5l1.2-2.08c1.04.9,2.43,1.67,4.16,2.31,1.73.64,3.61.96,5.62.96,2.84,0,4.89-.47,6.14-1.4,1.25-.94,1.87-2.17,1.87-3.69,0-1.11-.32-1.98-.96-2.63-.64-.64-1.5-1.14-2.57-1.48-1.08-.35-2.25-.63-3.54-.86-1.28-.23-2.57-.48-3.85-.75-1.28-.28-2.46-.68-3.54-1.2-1.08-.52-1.93-1.24-2.57-2.16-.64-.92-.96-2.14-.96-3.67,0-1.39.38-2.63,1.14-3.74.76-1.11,1.91-2,3.43-2.68,1.53-.68,3.43-1.01,5.72-1.01,1.7,0,3.41.24,5.12.73,1.72.49,3.11,1.13,4.19,1.92l-1.2,2.08c-1.14-.87-2.43-1.49-3.85-1.87-1.42-.38-2.86-.57-4.32-.57-2.64,0-4.57.49-5.8,1.46-1.23.97-1.85,2.18-1.85,3.64,0,1.14.32,2.05.96,2.73.64.68,1.5,1.2,2.57,1.56,1.07.36,2.25.66,3.54.88,1.28.23,2.56.48,3.85.75,1.28.28,2.46.67,3.54,1.17,1.07.5,1.93,1.2,2.57,2.08.64.88.96,2.07.96,3.56s-.41,2.79-1.22,3.9c-.81,1.11-2.02,1.98-3.61,2.6-1.59.62-3.55.94-5.88.94Z"/>
      <path class="st0" d="M433.48,882.16l2.03-8.79.26,1.51c-.66,0-1.21-.21-1.64-.62-.43-.42-.65-.94-.65-1.56s.22-1.14.65-1.56c.43-.42.94-.62,1.53-.62.66,0,1.19.22,1.59.65.4.43.6.94.6,1.53,0,.24-.02.49-.05.73-.04.24-.09.49-.16.73-.07.24-.16.56-.26.94l-2.03,7.07h-1.87Z"/>
      <path class="st0" d="M467.07,874.93c-2.01,0-3.75-.32-5.23-.96-1.47-.64-2.6-1.55-3.38-2.73-.78-1.18-1.17-2.53-1.17-4.06,0-1.39.32-2.64.96-3.77.64-1.13,1.71-2.05,3.2-2.76,1.49-.71,3.48-1.07,5.98-1.07h9.98v2.03h-9.93c-2.81,0-4.78.52-5.9,1.56-1.13,1.04-1.69,2.34-1.69,3.9,0,1.73.66,3.12,1.98,4.16,1.32,1.04,3.17,1.56,5.56,1.56s4.22-.52,5.8-1.56c1.58-1.04,2.75-2.55,3.51-4.52l.73,1.77c-.73,1.98-1.97,3.54-3.72,4.71-1.75,1.16-3.98,1.74-6.68,1.74ZM476.84,874.72v-6.19l-.1-.94v-10.19c0-2.53-.69-4.45-2.05-5.77-1.37-1.32-3.37-1.98-6.01-1.98-1.87,0-3.61.32-5.23.96s-2.99,1.46-4.13,2.47l-1.3-1.87c1.35-1.21,2.98-2.16,4.89-2.83,1.91-.68,3.9-1.01,5.98-1.01,3.36,0,5.94.85,7.75,2.55,1.8,1.7,2.7,4.23,2.7,7.59v17.21h-2.5Z"/>
      <path class="st0" d="M490.05,874.72v-27.14h2.5v7.54l-.36-.83c.83-2.15,2.2-3.84,4.11-5.07,1.91-1.23,4.25-1.85,7.02-1.85,2.22,0,4.15.42,5.8,1.27,1.65.85,2.93,2.13,3.85,3.85.92,1.72,1.38,3.84,1.38,6.37v15.86h-2.6v-15.65c0-3.05-.77-5.37-2.31-6.97-1.54-1.59-3.7-2.39-6.47-2.39-2.12,0-3.95.43-5.51,1.3-1.56.87-2.75,2.08-3.56,3.64-.81,1.56-1.22,3.43-1.22,5.62v14.46h-2.6Z"/>
      <path class="st0" d="M535.5,874.93c-2.53,0-4.81-.58-6.84-1.74-2.03-1.16-3.63-2.78-4.81-4.86-1.18-2.08-1.77-4.47-1.77-7.18s.59-5.14,1.77-7.2c1.18-2.06,2.78-3.67,4.81-4.84,2.03-1.16,4.31-1.74,6.84-1.74,2.39,0,4.55.55,6.47,1.66,1.92,1.11,3.45,2.69,4.58,4.73,1.13,2.05,1.69,4.51,1.69,7.38s-.55,5.25-1.66,7.33c-1.11,2.08-2.63,3.67-4.55,4.78-1.92,1.11-4.1,1.66-6.53,1.66ZM535.65,872.59c2.08,0,3.94-.48,5.59-1.43,1.65-.95,2.95-2.3,3.9-4.03.95-1.73,1.43-3.73,1.43-5.98s-.48-4.29-1.43-6.01c-.95-1.72-2.25-3.05-3.9-4-1.65-.95-3.51-1.43-5.59-1.43s-3.94.48-5.59,1.43c-1.65.95-2.95,2.29-3.9,4-.95,1.72-1.43,3.72-1.43,6.01s.48,4.25,1.43,5.98c.95,1.73,2.25,3.08,3.9,4.03s3.51,1.43,5.59,1.43ZM546.63,874.72v-8.89l.47-4.73-.52-4.73v-20.23h2.6v38.58h-2.55Z"/>
      <path class="st0" d="M580.84,874.93c-2.01,0-3.75-.32-5.23-.96-1.47-.64-2.6-1.55-3.38-2.73-.78-1.18-1.17-2.53-1.17-4.06,0-1.39.32-2.64.96-3.77.64-1.13,1.71-2.05,3.2-2.76,1.49-.71,3.48-1.07,5.98-1.07h9.98v2.03h-9.93c-2.81,0-4.78.52-5.9,1.56-1.13,1.04-1.69,2.34-1.69,3.9,0,1.73.66,3.12,1.98,4.16s3.17,1.56,5.56,1.56,4.22-.52,5.8-1.56c1.58-1.04,2.75-2.55,3.51-4.52l.73,1.77c-.73,1.98-1.97,3.54-3.72,4.71-1.75,1.16-3.98,1.74-6.68,1.74ZM590.62,874.72v-6.19l-.1-.94v-10.19c0-2.53-.68-4.45-2.05-5.77-1.37-1.32-3.37-1.98-6.01-1.98-1.87,0-3.61.32-5.23.96-1.61.64-2.99,1.46-4.13,2.47l-1.3-1.87c1.35-1.21,2.98-2.16,4.89-2.83s3.9-1.01,5.98-1.01c3.36,0,5.95.85,7.75,2.55,1.8,1.7,2.7,4.23,2.7,7.59v17.21h-2.5Z"/>
      <path class="st0" d="M614.28,874.93c-2.53,0-4.81-.58-6.84-1.74-2.03-1.16-3.63-2.78-4.81-4.86-1.18-2.08-1.77-4.47-1.77-7.18s.59-5.14,1.77-7.2c1.18-2.06,2.78-3.67,4.81-4.84,2.03-1.16,4.31-1.74,6.84-1.74,2.39,0,4.55.55,6.47,1.66,1.92,1.11,3.45,2.69,4.58,4.73,1.13,2.05,1.69,4.51,1.69,7.38s-.55,5.25-1.66,7.33c-1.11,2.08-2.63,3.67-4.55,4.78-1.92,1.11-4.1,1.66-6.53,1.66ZM614.43,872.59c2.08,0,3.94-.48,5.59-1.43s2.95-2.3,3.9-4.03c.95-1.73,1.43-3.73,1.43-5.98s-.48-4.29-1.43-6.01c-.95-1.72-2.25-3.05-3.9-4-1.65-.95-3.51-1.43-5.59-1.43s-3.94.48-5.59,1.43c-1.65.95-2.95,2.29-3.9,4-.95,1.72-1.43,3.72-1.43,6.01s.48,4.25,1.43,5.98c.95,1.73,2.25,3.08,3.9,4.03,1.65.95,3.51,1.43,5.59,1.43ZM625.4,874.72v-8.89l.47-4.73-.52-4.73v-20.23h2.6v38.58h-2.55Z"/>
      <path class="st0" d="M663.31,874.93c-2.74,0-5.16-.59-7.25-1.77-2.1-1.18-3.74-2.81-4.94-4.89-1.2-2.08-1.79-4.45-1.79-7.12s.56-5.09,1.69-7.15c1.13-2.06,2.68-3.68,4.65-4.86,1.98-1.18,4.19-1.77,6.66-1.77s4.67.57,6.63,1.72c1.96,1.14,3.5,2.75,4.63,4.81,1.13,2.06,1.69,4.45,1.69,7.15,0,.1,0,.22-.03.34-.02.12-.03.25-.03.39h-23.97v-2.03h22.57l-1.04.99c.03-2.11-.41-4.01-1.33-5.69-.92-1.68-2.16-3-3.72-3.95-1.56-.95-3.36-1.43-5.41-1.43s-3.8.48-5.38,1.43c-1.58.95-2.82,2.27-3.72,3.95-.9,1.68-1.35,3.6-1.35,5.75v.47c0,2.22.49,4.19,1.48,5.9.99,1.72,2.35,3.05,4.08,4,1.73.95,3.71,1.43,5.93,1.43,1.73,0,3.35-.31,4.86-.94s2.78-1.58,3.82-2.86l1.51,1.72c-1.18,1.46-2.66,2.56-4.45,3.3-1.79.75-3.72,1.12-5.8,1.12Z"/>
      <path class="st0" d="M678.23,874.72l11.28-14.66-.05,1.25-10.66-13.73h2.96l9.31,12.01h-1.09l9.26-12.01h2.91l-10.76,13.88.05-1.4,11.44,14.66h-3.07l-9.83-12.79.99.1-9.78,12.69h-2.96Z"/>
      <path class="st0" d="M719.37,874.93c-2.64,0-4.98-.59-7.05-1.77-2.06-1.18-3.69-2.81-4.89-4.89-1.2-2.08-1.79-4.45-1.79-7.12s.6-5.1,1.79-7.18c1.2-2.08,2.83-3.7,4.89-4.86,2.06-1.16,4.41-1.74,7.05-1.74,2.18,0,4.17.42,5.95,1.25,1.78.83,3.23,2.08,4.34,3.74l-1.92,1.4c-.97-1.39-2.18-2.41-3.64-3.07-1.46-.66-3.03-.99-4.73-.99-2.12,0-4.01.48-5.69,1.43-1.68.95-3,2.29-3.95,4-.95,1.72-1.43,3.72-1.43,6.01s.48,4.29,1.43,6.01c.95,1.72,2.27,3.05,3.95,4,1.68.95,3.58,1.43,5.69,1.43,1.7,0,3.28-.33,4.73-.99,1.46-.66,2.67-1.68,3.64-3.07l1.92,1.4c-1.11,1.66-2.56,2.91-4.34,3.74-1.79.83-3.77,1.25-5.95,1.25Z"/>
      <path class="st0" d="M737,874.72v-38.58h2.6v18.98l-.47-.83c.83-2.15,2.2-3.84,4.11-5.07,1.91-1.23,4.25-1.85,7.02-1.85,2.22,0,4.15.42,5.8,1.27,1.65.85,2.93,2.13,3.85,3.85.92,1.72,1.38,3.84,1.38,6.37v15.86h-2.6v-15.65c0-3.05-.77-5.37-2.31-6.97-1.54-1.59-3.7-2.39-6.47-2.39-2.12,0-3.95.43-5.51,1.3-1.56.87-2.75,2.08-3.56,3.64-.81,1.56-1.22,3.43-1.22,5.62v14.46h-2.6Z"/>
      <path class="st0" d="M779.32,874.93c-2.01,0-3.75-.32-5.23-.96-1.47-.64-2.6-1.55-3.38-2.73-.78-1.18-1.17-2.53-1.17-4.06,0-1.39.32-2.64.96-3.77.64-1.13,1.71-2.05,3.2-2.76,1.49-.71,3.48-1.07,5.98-1.07h9.98v2.03h-9.93c-2.81,0-4.78.52-5.9,1.56-1.13,1.04-1.69,2.34-1.69,3.9,0,1.73.66,3.12,1.98,4.16s3.17,1.56,5.56,1.56,4.22-.52,5.8-1.56c1.58-1.04,2.75-2.55,3.51-4.52l.73,1.77c-.73,1.98-1.97,3.54-3.72,4.71-1.75,1.16-3.98,1.74-6.68,1.74ZM789.1,874.72v-6.19l-.1-.94v-10.19c0-2.53-.68-4.45-2.05-5.77-1.37-1.32-3.37-1.98-6.01-1.98-1.87,0-3.61.32-5.23.96-1.61.64-2.99,1.46-4.13,2.47l-1.3-1.87c1.35-1.21,2.98-2.16,4.89-2.83s3.9-1.01,5.98-1.01c3.36,0,5.95.85,7.75,2.55,1.8,1.7,2.7,4.23,2.7,7.59v17.21h-2.5Z"/>
      <path class="st0" d="M802.31,874.72v-27.14h2.5v7.54l-.36-.83c.83-2.15,2.2-3.84,4.11-5.07,1.91-1.23,4.25-1.85,7.02-1.85,2.22,0,4.15.42,5.8,1.27,1.65.85,2.93,2.13,3.85,3.85.92,1.72,1.38,3.84,1.38,6.37v15.86h-2.6v-15.65c0-3.05-.77-5.37-2.31-6.97-1.54-1.59-3.7-2.39-6.47-2.39-2.12,0-3.95.43-5.51,1.3-1.56.87-2.75,2.08-3.56,3.64-.81,1.56-1.22,3.43-1.22,5.62v14.46h-2.6Z"/>
      <path class="st0" d="M847.86,873.73c-2.57,0-4.86-.56-6.89-1.69-2.03-1.13-3.64-2.69-4.84-4.68-1.2-1.99-1.79-4.27-1.79-6.84s.6-4.89,1.79-6.86c1.2-1.98,2.81-3.52,4.84-4.63,2.03-1.11,4.32-1.66,6.89-1.66s4.67.53,6.63,1.59c1.96,1.06,3.51,2.57,4.65,4.52,1.14,1.96,1.72,4.31,1.72,7.05s-.57,5.04-1.72,7.02c-1.14,1.98-2.7,3.5-4.65,4.58-1.96,1.07-4.17,1.61-6.63,1.61ZM848.58,885.02c-2.46,0-4.8-.38-7.02-1.14-2.22-.76-4.02-1.82-5.41-3.17l1.4-1.98c1.35,1.25,2.97,2.22,4.86,2.91,1.89.69,3.93,1.04,6.11,1.04,3.64,0,6.32-.85,8.03-2.55,1.72-1.7,2.57-4.37,2.57-8.01v-7.54l.52-4.06-.42-4.06v-8.89h2.5v24.23c0,4.54-1.1,7.88-3.3,10.01-2.2,2.13-5.49,3.2-9.85,3.2ZM848.07,871.39c2.18,0,4.11-.46,5.77-1.38,1.66-.92,2.97-2.2,3.93-3.85s1.43-3.53,1.43-5.64-.48-4.04-1.43-5.67c-.95-1.63-2.26-2.89-3.93-3.8-1.66-.9-3.59-1.35-5.77-1.35s-4.01.45-5.69,1.35c-1.68.9-3,2.17-3.95,3.8-.95,1.63-1.43,3.52-1.43,5.67s.48,4,1.43,5.64c.95,1.65,2.27,2.93,3.95,3.85,1.68.92,3.58,1.38,5.69,1.38Z"/>
      <path class="st0" d="M883.79,874.93c-2.74,0-5.16-.59-7.25-1.77-2.1-1.18-3.74-2.81-4.94-4.89-1.2-2.08-1.79-4.45-1.79-7.12s.56-5.09,1.69-7.15c1.13-2.06,2.68-3.68,4.65-4.86,1.98-1.18,4.19-1.77,6.66-1.77s4.67.57,6.63,1.72c1.96,1.14,3.5,2.75,4.63,4.81,1.13,2.06,1.69,4.45,1.69,7.15,0,.1,0,.22-.03.34-.02.12-.03.25-.03.39h-23.97v-2.03h22.57l-1.04.99c.03-2.11-.41-4.01-1.33-5.69-.92-1.68-2.16-3-3.72-3.95-1.56-.95-3.36-1.43-5.41-1.43s-3.8.48-5.38,1.43c-1.58.95-2.82,2.27-3.72,3.95-.9,1.68-1.35,3.6-1.35,5.75v.47c0,2.22.49,4.19,1.48,5.9.99,1.72,2.35,3.05,4.08,4,1.73.95,3.71,1.43,5.93,1.43,1.73,0,3.35-.31,4.86-.94s2.78-1.58,3.82-2.86l1.51,1.72c-1.18,1.46-2.66,2.56-4.45,3.3-1.79.75-3.72,1.12-5.8,1.12Z"/>
      <path class="st0" d="M910.67,874.93c-2.25,0-4.36-.33-6.32-.99-1.96-.66-3.48-1.49-4.55-2.5l1.2-2.08c1.04.9,2.43,1.67,4.16,2.31,1.73.64,3.6.96,5.62.96,2.84,0,4.89-.47,6.14-1.4,1.25-.94,1.87-2.17,1.87-3.69,0-1.11-.32-1.98-.96-2.63-.64-.64-1.5-1.14-2.57-1.48-1.08-.35-2.25-.63-3.54-.86-1.28-.23-2.57-.48-3.85-.75-1.28-.28-2.46-.68-3.54-1.2-1.08-.52-1.93-1.24-2.57-2.16-.64-.92-.96-2.14-.96-3.67,0-1.39.38-2.63,1.14-3.74.76-1.11,1.91-2,3.43-2.68,1.52-.68,3.43-1.01,5.72-1.01,1.7,0,3.41.24,5.12.73,1.72.49,3.11,1.13,4.19,1.92l-1.2,2.08c-1.14-.87-2.43-1.49-3.85-1.87-1.42-.38-2.86-.57-4.32-.57-2.63,0-4.57.49-5.8,1.46-1.23.97-1.85,2.18-1.85,3.64,0,1.14.32,2.05.96,2.73.64.68,1.5,1.2,2.57,1.56,1.07.36,2.25.66,3.54.88,1.28.23,2.57.48,3.85.75,1.28.28,2.46.67,3.54,1.17,1.07.5,1.93,1.2,2.57,2.08.64.88.96,2.07.96,3.56s-.41,2.79-1.22,3.9c-.82,1.11-2.02,1.98-3.61,2.6-1.59.62-3.55.94-5.88.94Z"/>
      <path class="st0" d="M926.17,882.16l2.03-8.79.26,1.51c-.66,0-1.21-.21-1.64-.62-.43-.42-.65-.94-.65-1.56s.22-1.14.65-1.56c.43-.42.94-.62,1.53-.62.66,0,1.19.22,1.59.65.4.43.6.94.6,1.53,0,.24-.02.49-.05.73-.04.24-.09.49-.16.73-.07.24-.16.56-.26.94l-2.03,7.07h-1.87Z"/>
      <path class="st0" d="M91.71,937.33c-2.74,0-5.16-.59-7.25-1.77-2.1-1.18-3.74-2.81-4.94-4.89-1.2-2.08-1.79-4.45-1.79-7.12s.56-5.09,1.69-7.15c1.13-2.06,2.68-3.68,4.65-4.86,1.98-1.18,4.19-1.77,6.66-1.77s4.67.57,6.63,1.72c1.96,1.14,3.5,2.75,4.63,4.81,1.13,2.06,1.69,4.45,1.69,7.15,0,.1,0,.22-.03.34-.02.12-.03.25-.03.39h-23.97v-2.03h22.57l-1.04.99c.03-2.11-.41-4.01-1.33-5.69-.92-1.68-2.16-3-3.72-3.95-1.56-.95-3.36-1.43-5.41-1.43s-3.8.48-5.38,1.43c-1.58.95-2.82,2.27-3.72,3.95-.9,1.68-1.35,3.6-1.35,5.75v.47c0,2.22.49,4.19,1.48,5.9.99,1.72,2.35,3.05,4.08,4,1.73.95,3.71,1.43,5.93,1.43,1.73,0,3.35-.31,4.86-.94,1.51-.62,2.78-1.58,3.82-2.86l1.51,1.72c-1.18,1.46-2.66,2.56-4.45,3.3-1.79.75-3.72,1.12-5.8,1.12Z"/>
      <path class="st0" d="M111.73,937.12v-27.14h2.5v7.49l-.36-.83c.8-2.11,2.13-3.79,4-5.02s4.12-1.85,6.76-1.85,4.98.68,6.84,2.05c1.85,1.37,3.02,3.41,3.51,6.11l-.88-.36c.73-2.32,2.1-4.2,4.11-5.64,2.01-1.44,4.45-2.16,7.33-2.16,2.18,0,4.08.42,5.69,1.27,1.61.85,2.87,2.13,3.77,3.85.9,1.72,1.35,3.84,1.35,6.37v15.86h-2.6v-15.65c0-3.05-.75-5.37-2.24-6.97-1.49-1.59-3.57-2.39-6.24-2.39-2.05,0-3.81.43-5.3,1.3-1.49.87-2.63,2.08-3.43,3.64-.8,1.56-1.2,3.43-1.2,5.62v14.46h-2.6v-15.65c0-3.05-.75-5.37-2.24-6.97-1.49-1.59-3.57-2.39-6.24-2.39-2.05,0-3.81.43-5.3,1.3-1.49.87-2.64,2.08-3.43,3.64-.8,1.56-1.2,3.43-1.2,5.62v14.46h-2.6Z"/>
      <path class="st0" d="M167.06,937.12v-38.58h2.6v20.23l-.52,4.73.42,4.73v8.89h-2.5ZM180.68,937.33c-2.39,0-4.55-.55-6.47-1.66-1.92-1.11-3.45-2.7-4.58-4.78-1.13-2.08-1.69-4.52-1.69-7.33s.56-5.34,1.69-7.38c1.13-2.04,2.65-3.62,4.58-4.73,1.92-1.11,4.08-1.66,6.47-1.66,2.56,0,4.86.58,6.89,1.74,2.03,1.16,3.62,2.77,4.78,4.84,1.16,2.06,1.74,4.46,1.74,7.2s-.58,5.1-1.74,7.18c-1.16,2.08-2.76,3.7-4.78,4.86-2.03,1.16-4.32,1.74-6.89,1.74ZM180.53,934.99c2.08,0,3.95-.48,5.62-1.43,1.66-.95,2.97-2.3,3.93-4.03.95-1.73,1.43-3.73,1.43-5.98s-.48-4.29-1.43-6.01c-.95-1.72-2.26-3.05-3.93-4-1.66-.95-3.54-1.43-5.62-1.43s-3.94.48-5.59,1.43c-1.65.95-2.95,2.29-3.9,4-.95,1.72-1.43,3.72-1.43,6.01s.48,4.25,1.43,5.98c.95,1.73,2.25,3.08,3.9,4.03,1.65.95,3.51,1.43,5.59,1.43Z"/>
      <path class="st0" d="M213.18,937.33c-2.74,0-5.16-.59-7.25-1.77-2.1-1.18-3.74-2.81-4.94-4.89-1.2-2.08-1.79-4.45-1.79-7.12s.56-5.09,1.69-7.15c1.13-2.06,2.68-3.68,4.65-4.86,1.98-1.18,4.19-1.77,6.66-1.77s4.67.57,6.63,1.72c1.96,1.14,3.5,2.75,4.63,4.81,1.13,2.06,1.69,4.45,1.69,7.15,0,.1,0,.22-.03.34-.02.12-.03.25-.03.39h-23.97v-2.03h22.57l-1.04.99c.03-2.11-.41-4.01-1.33-5.69-.92-1.68-2.16-3-3.72-3.95-1.56-.95-3.36-1.43-5.41-1.43s-3.8.48-5.38,1.43c-1.58.95-2.82,2.27-3.72,3.95-.9,1.68-1.35,3.6-1.35,5.75v.47c0,2.22.49,4.19,1.48,5.9.99,1.72,2.35,3.05,4.08,4,1.73.95,3.71,1.43,5.93,1.43,1.73,0,3.35-.31,4.86-.94,1.51-.62,2.78-1.58,3.82-2.86l1.51,1.72c-1.18,1.46-2.66,2.56-4.45,3.3-1.79.75-3.72,1.12-5.8,1.12Z"/>
      <path class="st0" d="M243.65,937.33c-2.53,0-4.81-.58-6.84-1.74-2.03-1.16-3.63-2.78-4.81-4.86-1.18-2.08-1.77-4.47-1.77-7.18s.59-5.14,1.77-7.2c1.18-2.06,2.78-3.67,4.81-4.84,2.03-1.16,4.31-1.74,6.84-1.74,2.39,0,4.55.55,6.47,1.66,1.92,1.11,3.45,2.69,4.58,4.73,1.13,2.05,1.69,4.51,1.69,7.38s-.56,5.25-1.66,7.33c-1.11,2.08-2.63,3.67-4.55,4.78-1.92,1.11-4.1,1.66-6.53,1.66ZM243.81,934.99c2.08,0,3.94-.48,5.59-1.43,1.65-.95,2.95-2.3,3.9-4.03.95-1.73,1.43-3.73,1.43-5.98s-.48-4.29-1.43-6.01c-.95-1.72-2.25-3.05-3.9-4-1.65-.95-3.51-1.43-5.59-1.43s-3.94.48-5.59,1.43c-1.65.95-2.95,2.29-3.9,4-.95,1.72-1.43,3.72-1.43,6.01s.48,4.25,1.43,5.98c.95,1.73,2.25,3.08,3.9,4.03s3.51,1.43,5.59,1.43ZM254.78,937.12v-8.89l.47-4.73-.52-4.73v-20.23h2.6v38.58h-2.55Z"/>
      <path class="st0" d="M278.75,937.33c-2.53,0-4.81-.58-6.84-1.74-2.03-1.16-3.63-2.78-4.81-4.86-1.18-2.08-1.77-4.47-1.77-7.18s.59-5.14,1.77-7.2c1.18-2.06,2.78-3.67,4.81-4.84,2.03-1.16,4.31-1.74,6.84-1.74,2.39,0,4.55.55,6.47,1.66,1.92,1.11,3.45,2.69,4.58,4.73,1.13,2.05,1.69,4.51,1.69,7.38s-.56,5.25-1.66,7.33c-1.11,2.08-2.63,3.67-4.55,4.78-1.92,1.11-4.1,1.66-6.53,1.66ZM278.91,934.99c2.08,0,3.94-.48,5.59-1.43,1.65-.95,2.95-2.3,3.9-4.03.95-1.73,1.43-3.73,1.43-5.98s-.48-4.29-1.43-6.01c-.95-1.72-2.25-3.05-3.9-4-1.65-.95-3.51-1.43-5.59-1.43s-3.94.48-5.59,1.43c-1.65.95-2.95,2.29-3.9,4-.95,1.72-1.43,3.72-1.43,6.01s.48,4.25,1.43,5.98c.95,1.73,2.25,3.08,3.9,4.03s3.51,1.43,5.59,1.43ZM289.88,937.12v-8.89l.47-4.73-.52-4.73v-20.23h2.6v38.58h-2.55Z"/>
      <path class="st0" d="M304.7,903.38c-.59,0-1.09-.21-1.51-.62s-.62-.9-.62-1.46c0-.59.21-1.09.62-1.51s.92-.62,1.51-.62c.62,0,1.14.2,1.53.6.4.4.6.89.6,1.48s-.2,1.09-.6,1.51c-.4.42-.91.62-1.53.62ZM303.4,937.12v-27.14h2.6v27.14h-2.6Z"/>
      <path class="st0" d="M316.97,937.12v-27.14h2.5v7.54l-.36-.83c.83-2.15,2.2-3.84,4.11-5.07,1.91-1.23,4.25-1.85,7.02-1.85,2.22,0,4.15.42,5.8,1.27,1.65.85,2.93,2.13,3.85,3.85.92,1.72,1.38,3.84,1.38,6.37v15.86h-2.6v-15.65c0-3.05-.77-5.37-2.31-6.97-1.54-1.59-3.7-2.39-6.47-2.39-2.12,0-3.95.43-5.51,1.3-1.56.87-2.75,2.08-3.56,3.64-.81,1.56-1.22,3.43-1.22,5.62v14.46h-2.6Z"/>
      <path class="st0" d="M362.52,936.13c-2.57,0-4.86-.56-6.89-1.69-2.03-1.13-3.64-2.69-4.84-4.68-1.2-1.99-1.79-4.27-1.79-6.84s.6-4.89,1.79-6.86c1.2-1.98,2.81-3.52,4.84-4.63,2.03-1.11,4.32-1.66,6.89-1.66s4.67.53,6.63,1.59c1.96,1.06,3.51,2.57,4.65,4.52,1.14,1.96,1.72,4.31,1.72,7.05s-.57,5.04-1.72,7.02c-1.14,1.98-2.7,3.5-4.65,4.58-1.96,1.07-4.17,1.61-6.63,1.61ZM363.25,947.42c-2.46,0-4.8-.38-7.02-1.14-2.22-.76-4.02-1.82-5.41-3.17l1.4-1.98c1.35,1.25,2.97,2.22,4.86,2.91,1.89.69,3.93,1.04,6.11,1.04,3.64,0,6.32-.85,8.03-2.55,1.72-1.7,2.57-4.37,2.57-8.01v-7.54l.52-4.06-.42-4.06v-8.89h2.5v24.23c0,4.54-1.1,7.88-3.3,10.01-2.2,2.13-5.49,3.2-9.85,3.2ZM362.73,933.79c2.18,0,4.11-.46,5.77-1.38,1.66-.92,2.97-2.2,3.93-3.85.95-1.65,1.43-3.53,1.43-5.64s-.48-4.04-1.43-5.67c-.95-1.63-2.26-2.89-3.93-3.8-1.66-.9-3.59-1.35-5.77-1.35s-4.01.45-5.69,1.35c-1.68.9-3,2.17-3.95,3.8-.95,1.63-1.43,3.52-1.43,5.67s.48,4,1.43,5.64c.95,1.65,2.27,2.93,3.95,3.85,1.68.92,3.58,1.38,5.69,1.38Z"/>
      <path class="st0" d="M417.02,937.38c-2.7,0-5.21-.46-7.51-1.38-2.31-.92-4.31-2.21-6.01-3.87-1.7-1.66-3.02-3.61-3.95-5.85-.94-2.24-1.4-4.69-1.4-7.36s.47-5.12,1.4-7.36c.94-2.24,2.26-4.19,3.98-5.85,1.72-1.66,3.72-2.96,6.01-3.87,2.29-.92,4.78-1.38,7.49-1.38s4.97.42,7.2,1.25,4.15,2.1,5.75,3.8l-1.66,1.72c-1.56-1.52-3.29-2.63-5.17-3.3-1.89-.68-3.89-1.01-6.01-1.01-2.32,0-4.48.4-6.47,1.2-1.99.8-3.73,1.92-5.2,3.38-1.47,1.46-2.62,3.15-3.43,5.1-.81,1.94-1.22,4.06-1.22,6.34s.41,4.4,1.22,6.34c.81,1.94,1.96,3.64,3.43,5.1,1.47,1.46,3.21,2.58,5.2,3.38,1.99.8,4.15,1.2,6.47,1.2,2.11,0,4.12-.34,6.01-1.01,1.89-.68,3.61-1.79,5.17-3.35l1.66,1.72c-1.6,1.7-3.51,2.97-5.75,3.82s-4.64,1.27-7.2,1.27Z"/>
      <path class="st0" d="M444.37,937.33c-2.01,0-3.75-.32-5.23-.96-1.47-.64-2.6-1.55-3.38-2.73-.78-1.18-1.17-2.53-1.17-4.06,0-1.39.32-2.64.96-3.77.64-1.13,1.71-2.05,3.2-2.76,1.49-.71,3.48-1.07,5.98-1.07h9.98v2.03h-9.93c-2.81,0-4.78.52-5.9,1.56-1.13,1.04-1.69,2.34-1.69,3.9,0,1.73.66,3.12,1.98,4.16,1.32,1.04,3.17,1.56,5.56,1.56s4.22-.52,5.8-1.56c1.58-1.04,2.75-2.55,3.51-4.52l.73,1.77c-.73,1.98-1.97,3.54-3.72,4.71-1.75,1.16-3.98,1.74-6.68,1.74ZM454.15,937.12v-6.19l-.1-.94v-10.19c0-2.53-.69-4.45-2.05-5.77-1.37-1.32-3.37-1.98-6.01-1.98-1.87,0-3.61.32-5.23.96s-2.99,1.46-4.13,2.47l-1.3-1.87c1.35-1.21,2.98-2.16,4.89-2.83,1.91-.68,3.9-1.01,5.98-1.01,3.36,0,5.94.85,7.75,2.55,1.8,1.7,2.7,4.23,2.7,7.59v17.21h-2.5Z"/>
      <path class="st0" d="M467.35,937.12v-27.14h2.5v7.44l-.26-.83c.76-2.18,2.04-3.87,3.85-5.04,1.8-1.18,4.06-1.77,6.76-1.77v2.55c-.1,0-.21,0-.31-.03-.1-.02-.21-.03-.31-.03-3.02,0-5.37.95-7.07,2.83-1.7,1.89-2.55,4.52-2.55,7.88v14.14h-2.6Z"/>
      <path class="st0" d="M487.37,937.12v-38.58h2.6v20.23l-.52,4.73.42,4.73v8.89h-2.5ZM501,937.33c-2.39,0-4.55-.55-6.47-1.66-1.92-1.11-3.45-2.7-4.58-4.78-1.13-2.08-1.69-4.52-1.69-7.33s.56-5.34,1.69-7.38c1.13-2.04,2.65-3.62,4.58-4.73,1.92-1.11,4.08-1.66,6.47-1.66,2.56,0,4.86.58,6.89,1.74,2.03,1.16,3.62,2.77,4.78,4.84,1.16,2.06,1.74,4.46,1.74,7.2s-.58,5.1-1.74,7.18c-1.16,2.08-2.76,3.7-4.78,4.86-2.03,1.16-4.32,1.74-6.89,1.74ZM500.84,934.99c2.08,0,3.95-.48,5.62-1.43,1.66-.95,2.97-2.3,3.93-4.03.95-1.73,1.43-3.73,1.43-5.98s-.48-4.29-1.43-6.01c-.95-1.72-2.26-3.05-3.93-4-1.66-.95-3.54-1.43-5.62-1.43s-3.94.48-5.59,1.43c-1.65.95-2.95,2.29-3.9,4-.95,1.72-1.43,3.72-1.43,6.01s.48,4.25,1.43,5.98c.95,1.73,2.25,3.08,3.9,4.03,1.65.95,3.51,1.43,5.59,1.43Z"/>
      <path class="st0" d="M533.08,937.33c-2.6,0-4.91-.59-6.94-1.77-2.03-1.18-3.64-2.81-4.84-4.89-1.2-2.08-1.79-4.45-1.79-7.12s.6-5.09,1.79-7.15c1.2-2.06,2.81-3.68,4.84-4.86,2.03-1.18,4.34-1.77,6.94-1.77s4.92.59,6.97,1.77c2.04,1.18,3.66,2.8,4.84,4.86s1.77,4.45,1.77,7.15-.59,5.04-1.77,7.12-2.79,3.71-4.84,4.89c-2.05,1.18-4.37,1.77-6.97,1.77ZM533.08,934.99c2.08,0,3.95-.48,5.62-1.43s2.96-2.3,3.9-4.03c.94-1.73,1.4-3.73,1.4-5.98s-.47-4.29-1.4-6.01c-.94-1.72-2.24-3.05-3.9-4-1.66-.95-3.54-1.43-5.62-1.43s-3.94.48-5.59,1.43c-1.65.95-2.95,2.29-3.9,4-.95,1.72-1.43,3.72-1.43,6.01s.48,4.25,1.43,5.98c.95,1.73,2.25,3.08,3.9,4.03s3.51,1.43,5.59,1.43Z"/>
      <path class="st0" d="M554.71,937.12v-27.14h2.5v7.54l-.36-.83c.83-2.15,2.2-3.84,4.11-5.07,1.91-1.23,4.25-1.85,7.02-1.85,2.22,0,4.15.42,5.8,1.27,1.65.85,2.93,2.13,3.85,3.85.92,1.72,1.38,3.84,1.38,6.37v15.86h-2.6v-15.65c0-3.05-.77-5.37-2.31-6.97-1.54-1.59-3.7-2.39-6.47-2.39-2.12,0-3.95.43-5.51,1.3-1.56.87-2.75,2.08-3.56,3.64-.81,1.56-1.22,3.43-1.22,5.62v14.46h-2.6Z"/>
      <path class="st0" d="M605.93,937.38c-2.7,0-5.21-.46-7.51-1.38-2.31-.92-4.31-2.21-6.01-3.87-1.7-1.66-3.02-3.61-3.95-5.85-.94-2.24-1.4-4.69-1.4-7.36s.47-5.12,1.4-7.36c.94-2.24,2.26-4.19,3.98-5.85s3.72-2.96,6.01-3.87c2.29-.92,4.78-1.38,7.49-1.38,2.56,0,4.97.42,7.2,1.25,2.24.83,4.15,2.1,5.75,3.8l-1.66,1.72c-1.56-1.52-3.28-2.63-5.17-3.3s-3.89-1.01-6.01-1.01c-2.32,0-4.48.4-6.47,1.2-1.99.8-3.73,1.92-5.2,3.38-1.47,1.46-2.62,3.15-3.43,5.1-.82,1.94-1.22,4.06-1.22,6.34s.41,4.4,1.22,6.34c.81,1.94,1.96,3.64,3.43,5.1,1.47,1.46,3.21,2.58,5.2,3.38,1.99.8,4.15,1.2,6.47,1.2,2.11,0,4.12-.34,6.01-1.01s3.61-1.79,5.17-3.35l1.66,1.72c-1.59,1.7-3.51,2.97-5.75,3.82-2.24.85-4.64,1.27-7.2,1.27Z"/>
      <path class="st0" d="M636.46,937.33c-2.32,0-4.33-.42-6.03-1.27-1.7-.85-3.01-2.13-3.93-3.85-.92-1.72-1.38-3.84-1.38-6.37v-15.86h2.6v15.65c0,3.05.78,5.37,2.34,6.97,1.56,1.6,3.76,2.39,6.6,2.39,2.04,0,3.81-.43,5.3-1.3,1.49-.87,2.63-2.09,3.43-3.67.8-1.58,1.2-3.44,1.2-5.59v-14.46h2.6v27.14h-2.5v-7.54l.36.88c-.8,2.12-2.12,3.79-3.98,5.02s-4.07,1.85-6.63,1.85Z"/>
      <path class="st0" d="M655.75,912.21v-2.24h16.22v2.24h-16.22ZM668.12,937.33c-2.39,0-4.22-.66-5.49-1.98s-1.9-3.12-1.9-5.41v-25.9h2.6v25.64c0,1.73.43,3.07,1.3,4,.87.94,2.11,1.4,3.74,1.4s3.1-.5,4.21-1.51l1.09,1.82c-.69.66-1.53,1.14-2.52,1.46-.99.31-2,.47-3.04.47Z"/>
      <path class="st0" d="M695.58,903.38c-.59,0-1.09-.21-1.51-.62s-.62-.9-.62-1.46c0-.59.21-1.09.62-1.51s.92-.62,1.51-.62c.62,0,1.14.2,1.53.6.4.4.6.89.6,1.48s-.2,1.09-.6,1.51-.91.62-1.53.62ZM694.28,937.12v-27.14h2.6v27.14h-2.6Z"/>
      <path class="st0" d="M707.85,937.12v-27.14h2.5v7.54l-.36-.83c.83-2.15,2.2-3.84,4.11-5.07,1.91-1.23,4.25-1.85,7.02-1.85,2.22,0,4.15.42,5.8,1.27,1.65.85,2.93,2.13,3.85,3.85.92,1.72,1.38,3.84,1.38,6.37v15.86h-2.6v-15.65c0-3.05-.77-5.37-2.31-6.97-1.54-1.59-3.7-2.39-6.47-2.39-2.12,0-3.95.43-5.51,1.3-1.56.87-2.75,2.08-3.56,3.64-.81,1.56-1.22,3.43-1.22,5.62v14.46h-2.6Z"/>
      <path class="st0" d="M738.37,912.21v-2.24h16.22v2.24h-16.22ZM750.75,937.33c-2.39,0-4.22-.66-5.49-1.98s-1.9-3.12-1.9-5.41v-25.9h2.6v25.64c0,1.73.43,3.07,1.3,4,.87.94,2.11,1.4,3.74,1.4s3.1-.5,4.21-1.51l1.09,1.82c-.69.66-1.53,1.14-2.52,1.46-.99.31-2,.47-3.04.47Z"/>
      <path class="st0" d="M773.16,937.33c-2.6,0-4.91-.59-6.94-1.77-2.03-1.18-3.64-2.81-4.84-4.89-1.2-2.08-1.79-4.45-1.79-7.12s.6-5.09,1.79-7.15c1.2-2.06,2.81-3.68,4.84-4.86,2.03-1.18,4.34-1.77,6.94-1.77s4.92.59,6.97,1.77c2.04,1.18,3.66,2.8,4.84,4.86s1.77,4.45,1.77,7.15-.59,5.04-1.77,7.12-2.79,3.71-4.84,4.89c-2.05,1.18-4.37,1.77-6.97,1.77ZM773.16,934.99c2.08,0,3.95-.48,5.62-1.43s2.96-2.3,3.9-4.03c.94-1.73,1.4-3.73,1.4-5.98s-.47-4.29-1.4-6.01c-.94-1.72-2.24-3.05-3.9-4-1.66-.95-3.54-1.43-5.62-1.43s-3.94.48-5.59,1.43c-1.65.95-2.95,2.29-3.9,4-.95,1.72-1.43,3.72-1.43,6.01s.48,4.25,1.43,5.98c.95,1.73,2.25,3.08,3.9,4.03,1.65.95,3.51,1.43,5.59,1.43Z"/>
      <path class="st0" d="M819.18,937.33c-2.74,0-5.16-.59-7.25-1.77-2.1-1.18-3.74-2.81-4.94-4.89-1.2-2.08-1.79-4.45-1.79-7.12s.56-5.09,1.69-7.15c1.13-2.06,2.68-3.68,4.65-4.86,1.98-1.18,4.19-1.77,6.66-1.77s4.67.57,6.63,1.72c1.96,1.14,3.5,2.75,4.63,4.81,1.13,2.06,1.69,4.45,1.69,7.15,0,.1,0,.22-.03.34-.02.12-.03.25-.03.39h-23.97v-2.03h22.57l-1.04.99c.03-2.11-.41-4.01-1.33-5.69-.92-1.68-2.16-3-3.72-3.95-1.56-.95-3.36-1.43-5.41-1.43s-3.8.48-5.38,1.43c-1.58.95-2.82,2.27-3.72,3.95-.9,1.68-1.35,3.6-1.35,5.75v.47c0,2.22.49,4.19,1.48,5.9.99,1.72,2.35,3.05,4.08,4,1.73.95,3.71,1.43,5.93,1.43,1.73,0,3.35-.31,4.86-.94s2.78-1.58,3.82-2.86l1.51,1.72c-1.18,1.46-2.66,2.56-4.45,3.3-1.79.75-3.72,1.12-5.8,1.12Z"/>
      <path class="st0" d="M834.1,937.12l11.28-14.66-.05,1.25-10.66-13.73h2.96l9.31,12.01h-1.09l9.26-12.01h2.91l-10.76,13.88.05-1.4,11.44,14.66h-3.07l-9.83-12.79.99.1-9.78,12.69h-2.96Z"/>
      <path class="st0" d="M866.71,903.38c-.59,0-1.09-.21-1.51-.62s-.62-.9-.62-1.46c0-.59.21-1.09.62-1.51s.92-.62,1.51-.62c.62,0,1.14.2,1.53.6.4.4.6.89.6,1.48s-.2,1.09-.6,1.51-.91.62-1.53.62ZM865.41,937.12v-27.14h2.6v27.14h-2.6Z"/>
      <path class="st0" d="M885.84,937.33c-2.25,0-4.36-.33-6.32-.99-1.96-.66-3.48-1.49-4.55-2.5l1.2-2.08c1.04.9,2.43,1.67,4.16,2.31,1.73.64,3.6.96,5.62.96,2.84,0,4.89-.47,6.14-1.4,1.25-.94,1.87-2.17,1.87-3.69,0-1.11-.32-1.98-.96-2.63-.64-.64-1.5-1.14-2.57-1.48-1.08-.35-2.25-.63-3.54-.86-1.28-.23-2.57-.48-3.85-.75-1.28-.28-2.46-.68-3.54-1.2-1.08-.52-1.93-1.24-2.57-2.16-.64-.92-.96-2.14-.96-3.67,0-1.39.38-2.63,1.14-3.74.76-1.11,1.91-2,3.43-2.68,1.52-.68,3.43-1.01,5.72-1.01,1.7,0,3.41.24,5.12.73,1.72.49,3.11,1.13,4.19,1.92l-1.2,2.08c-1.14-.87-2.43-1.49-3.85-1.87-1.42-.38-2.86-.57-4.32-.57-2.63,0-4.57.49-5.8,1.46-1.23.97-1.85,2.18-1.85,3.64,0,1.14.32,2.05.96,2.73.64.68,1.5,1.2,2.57,1.56,1.07.36,2.25.66,3.54.88,1.28.23,2.57.48,3.85.75,1.28.28,2.46.67,3.54,1.17,1.07.5,1.93,1.2,2.57,2.08.64.88.96,2.07.96,3.56s-.41,2.79-1.22,3.9c-.82,1.11-2.02,1.98-3.61,2.6-1.59.62-3.55.94-5.88.94Z"/>
      <path class="st0" d="M899.36,912.21v-2.24h16.22v2.24h-16.22ZM911.74,937.33c-2.39,0-4.22-.66-5.49-1.98s-1.9-3.12-1.9-5.41v-25.9h2.6v25.64c0,1.73.43,3.07,1.3,4,.87.94,2.11,1.4,3.74,1.4s3.1-.5,4.21-1.51l1.09,1.82c-.69.66-1.53,1.14-2.52,1.46-.99.31-2,.47-3.04.47Z"/>
      <path class="st0" d="M925.83,903.38c-.59,0-1.09-.21-1.51-.62s-.62-.9-.62-1.46c0-.59.21-1.09.62-1.51s.92-.62,1.51-.62c.62,0,1.14.2,1.53.6.4.4.6.89.6,1.48s-.2,1.09-.6,1.51-.91.62-1.53.62ZM924.53,937.12v-27.14h2.6v27.14h-2.6Z"/>
      <path class="st0" d="M938.1,937.12v-27.14h2.5v7.54l-.36-.83c.83-2.15,2.2-3.84,4.11-5.07,1.91-1.23,4.25-1.85,7.02-1.85,2.22,0,4.15.42,5.8,1.27,1.65.85,2.93,2.13,3.85,3.85.92,1.72,1.38,3.84,1.38,6.37v15.86h-2.6v-15.65c0-3.05-.77-5.37-2.31-6.97-1.54-1.59-3.7-2.39-6.47-2.39-2.12,0-3.95.43-5.51,1.3-1.56.87-2.75,2.08-3.56,3.64-.81,1.56-1.22,3.43-1.22,5.62v14.46h-2.6Z"/>
      <path class="st0" d="M983.65,936.13c-2.57,0-4.86-.56-6.89-1.69-2.03-1.13-3.64-2.69-4.84-4.68-1.2-1.99-1.79-4.27-1.79-6.84s.6-4.89,1.79-6.86c1.2-1.98,2.81-3.52,4.84-4.63,2.03-1.11,4.32-1.66,6.89-1.66s4.67.53,6.63,1.59c1.96,1.06,3.51,2.57,4.65,4.52,1.14,1.96,1.72,4.31,1.72,7.05s-.57,5.04-1.72,7.02c-1.14,1.98-2.7,3.5-4.65,4.58-1.96,1.07-4.17,1.61-6.63,1.61ZM984.38,947.42c-2.46,0-4.8-.38-7.02-1.14-2.22-.76-4.02-1.82-5.41-3.17l1.4-1.98c1.35,1.25,2.97,2.22,4.86,2.91,1.89.69,3.93,1.04,6.11,1.04,3.64,0,6.32-.85,8.03-2.55,1.72-1.7,2.57-4.37,2.57-8.01v-7.54l.52-4.06-.42-4.06v-8.89h2.5v24.23c0,4.54-1.1,7.88-3.3,10.01-2.2,2.13-5.49,3.2-9.85,3.2ZM983.86,933.79c2.18,0,4.11-.46,5.77-1.38,1.66-.92,2.97-2.2,3.93-3.85s1.43-3.53,1.43-5.64-.48-4.04-1.43-5.67c-.95-1.63-2.26-2.89-3.93-3.8-1.66-.9-3.59-1.35-5.77-1.35s-4.01.45-5.69,1.35c-1.68.9-3,2.17-3.95,3.8-.95,1.63-1.43,3.52-1.43,5.67s.48,4,1.43,5.64c.95,1.65,2.27,2.93,3.95,3.85,1.68.92,3.58,1.38,5.69,1.38Z"/>
      <path class="st0" d="M82.74,999.52v-27.14h2.5v7.49l-.36-.83c.8-2.11,2.13-3.79,4-5.02s4.12-1.85,6.76-1.85,4.98.68,6.84,2.05c1.85,1.37,3.02,3.41,3.51,6.11l-.88-.36c.73-2.32,2.1-4.2,4.11-5.64,2.01-1.44,4.45-2.16,7.33-2.16,2.18,0,4.08.42,5.69,1.27,1.61.85,2.87,2.13,3.77,3.85.9,1.72,1.35,3.84,1.35,6.37v15.86h-2.6v-15.65c0-3.05-.75-5.37-2.24-6.97-1.49-1.59-3.57-2.39-6.24-2.39-2.05,0-3.81.43-5.3,1.3-1.49.87-2.63,2.08-3.43,3.64-.8,1.56-1.2,3.43-1.2,5.62v14.46h-2.6v-15.65c0-3.05-.75-5.37-2.24-6.97-1.49-1.59-3.57-2.39-6.24-2.39-2.05,0-3.81.43-5.3,1.3-1.49.87-2.64,2.08-3.43,3.64-.8,1.56-1.2,3.43-1.2,5.62v14.46h-2.6Z"/>
      <path class="st0" d="M145.4,999.73c-2.01,0-3.75-.32-5.23-.96-1.47-.64-2.6-1.55-3.38-2.73-.78-1.18-1.17-2.53-1.17-4.06,0-1.39.32-2.64.96-3.77.64-1.13,1.71-2.05,3.2-2.76,1.49-.71,3.48-1.07,5.98-1.07h9.98v2.03h-9.93c-2.81,0-4.78.52-5.9,1.56-1.13,1.04-1.69,2.34-1.69,3.9,0,1.73.66,3.12,1.98,4.16,1.32,1.04,3.17,1.56,5.56,1.56s4.22-.52,5.8-1.56c1.58-1.04,2.75-2.55,3.51-4.52l.73,1.77c-.73,1.98-1.97,3.54-3.72,4.71-1.75,1.16-3.98,1.74-6.68,1.74ZM155.18,999.52v-6.19l-.1-.94v-10.19c0-2.53-.69-4.45-2.05-5.77-1.37-1.32-3.37-1.98-6.01-1.98-1.87,0-3.61.32-5.23.96s-2.99,1.46-4.13,2.47l-1.3-1.87c1.35-1.21,2.98-2.16,4.89-2.83,1.91-.68,3.9-1.01,5.98-1.01,3.36,0,5.94.85,7.75,2.55,1.8,1.7,2.7,4.23,2.7,7.59v17.21h-2.5Z"/>
      <path class="st0" d="M168.38,999.52v-27.14h2.5v7.44l-.26-.83c.76-2.18,2.04-3.87,3.85-5.04,1.8-1.18,4.06-1.77,6.76-1.77v2.55c-.1,0-.21,0-.31-.03-.1-.02-.21-.03-.31-.03-3.02,0-5.37.95-7.07,2.83-1.7,1.89-2.55,4.52-2.55,7.88v14.14h-2.6Z"/>
      <path class="st0" d="M188.4,999.52v-38.58h2.6v38.58h-2.6ZM190.38,992.03l.05-3.28,17.94-16.38h3.33l-11.91,11.18-1.56,1.3-7.85,7.18ZM209.62,999.52l-11.86-14.87,1.77-1.92,13.31,16.8h-3.22Z"/>
      <path class="st0" d="M228.65,999.73c-2.74,0-5.16-.59-7.25-1.77-2.1-1.18-3.74-2.81-4.94-4.89-1.2-2.08-1.79-4.45-1.79-7.12s.56-5.09,1.69-7.15c1.13-2.06,2.68-3.68,4.65-4.86,1.98-1.18,4.19-1.77,6.66-1.77s4.67.57,6.63,1.72c1.96,1.14,3.5,2.75,4.63,4.81,1.13,2.06,1.69,4.45,1.69,7.15,0,.1,0,.22-.03.34-.02.12-.03.25-.03.39h-23.97v-2.03h22.57l-1.04.99c.03-2.11-.41-4.01-1.33-5.69-.92-1.68-2.16-3-3.72-3.95-1.56-.95-3.36-1.43-5.41-1.43s-3.8.48-5.38,1.43c-1.58.95-2.82,2.27-3.72,3.95-.9,1.68-1.35,3.6-1.35,5.75v.47c0,2.22.49,4.19,1.48,5.9.99,1.72,2.35,3.05,4.08,4,1.73.95,3.71,1.43,5.93,1.43,1.73,0,3.35-.31,4.86-.94,1.51-.62,2.78-1.58,3.82-2.86l1.51,1.72c-1.18,1.46-2.66,2.56-4.45,3.3-1.79.75-3.72,1.12-5.8,1.12Z"/>
      <path class="st0" d="M244.2,974.61v-2.24h16.22v2.24h-16.22ZM256.57,999.73c-2.39,0-4.22-.66-5.49-1.98-1.27-1.32-1.9-3.12-1.9-5.41v-25.9h2.6v25.64c0,1.73.43,3.07,1.3,4,.87.94,2.11,1.4,3.74,1.4s3.1-.5,4.21-1.51l1.09,1.82c-.69.66-1.53,1.14-2.52,1.46-.99.31-2,.47-3.04.47Z"/>
      <path class="st0" d="M270.67,965.77c-.59,0-1.09-.21-1.51-.62s-.62-.9-.62-1.46c0-.59.21-1.09.62-1.51s.92-.62,1.51-.62c.62,0,1.14.2,1.53.6.4.4.6.89.6,1.48s-.2,1.09-.6,1.51c-.4.42-.91.62-1.53.62ZM269.37,999.52v-27.14h2.6v27.14h-2.6Z"/>
      <path class="st0" d="M282.94,999.52v-27.14h2.5v7.54l-.36-.83c.83-2.15,2.2-3.84,4.11-5.07,1.91-1.23,4.25-1.85,7.02-1.85,2.22,0,4.15.42,5.8,1.27,1.65.85,2.93,2.13,3.85,3.85.92,1.72,1.38,3.84,1.38,6.37v15.86h-2.6v-15.65c0-3.05-.77-5.37-2.31-6.97-1.54-1.59-3.7-2.39-6.47-2.39-2.12,0-3.95.43-5.51,1.3-1.56.87-2.75,2.08-3.56,3.64-.81,1.56-1.22,3.43-1.22,5.62v14.46h-2.6Z"/>
      <path class="st0" d="M328.49,998.53c-2.57,0-4.86-.56-6.89-1.69-2.03-1.13-3.64-2.69-4.84-4.68-1.2-1.99-1.79-4.27-1.79-6.84s.6-4.89,1.79-6.86c1.2-1.98,2.81-3.52,4.84-4.63,2.03-1.11,4.32-1.66,6.89-1.66s4.67.53,6.63,1.59c1.96,1.06,3.51,2.57,4.65,4.52,1.14,1.96,1.72,4.31,1.72,7.05s-.57,5.04-1.72,7.02c-1.14,1.98-2.7,3.5-4.65,4.58-1.96,1.07-4.17,1.61-6.63,1.61ZM329.22,1009.82c-2.46,0-4.8-.38-7.02-1.14-2.22-.76-4.02-1.82-5.41-3.17l1.4-1.98c1.35,1.25,2.97,2.22,4.86,2.91,1.89.69,3.93,1.04,6.11,1.04,3.64,0,6.32-.85,8.03-2.55,1.72-1.7,2.57-4.37,2.57-8.01v-7.54l.52-4.06-.42-4.06v-8.89h2.5v24.23c0,4.54-1.1,7.88-3.3,10.01-2.2,2.13-5.49,3.2-9.85,3.2ZM328.7,996.19c2.18,0,4.11-.46,5.77-1.38,1.66-.92,2.97-2.2,3.93-3.85.95-1.65,1.43-3.53,1.43-5.64s-.48-4.04-1.43-5.67c-.95-1.63-2.26-2.89-3.93-3.8-1.66-.9-3.59-1.35-5.77-1.35s-4.01.45-5.69,1.35c-1.68.9-3,2.17-3.95,3.8-.95,1.63-1.43,3.52-1.43,5.67s.48,4,1.43,5.64c.95,1.65,2.27,2.93,3.95,3.85,1.68.92,3.58,1.38,5.69,1.38Z"/>
      <path class="st0" d="M374.09,999.73c-2.01,0-3.75-.32-5.23-.96-1.47-.64-2.6-1.55-3.38-2.73-.78-1.18-1.17-2.53-1.17-4.06,0-1.39.32-2.64.96-3.77.64-1.13,1.71-2.05,3.2-2.76,1.49-.71,3.48-1.07,5.98-1.07h9.98v2.03h-9.93c-2.81,0-4.78.52-5.9,1.56-1.13,1.04-1.69,2.34-1.69,3.9,0,1.73.66,3.12,1.98,4.16,1.32,1.04,3.17,1.56,5.56,1.56s4.22-.52,5.8-1.56c1.58-1.04,2.75-2.55,3.51-4.52l.73,1.77c-.73,1.98-1.97,3.54-3.72,4.71-1.75,1.16-3.98,1.74-6.68,1.74ZM383.87,999.52v-6.19l-.1-.94v-10.19c0-2.53-.69-4.45-2.05-5.77-1.37-1.32-3.37-1.98-6.01-1.98-1.87,0-3.61.32-5.23.96s-2.99,1.46-4.13,2.47l-1.3-1.87c1.35-1.21,2.98-2.16,4.89-2.83,1.91-.68,3.9-1.01,5.98-1.01,3.36,0,5.94.85,7.75,2.55,1.8,1.7,2.7,4.23,2.7,7.59v17.21h-2.5Z"/>
      <path class="st0" d="M397.07,999.52v-27.14h2.5v7.54l-.36-.83c.83-2.15,2.2-3.84,4.11-5.07,1.91-1.23,4.25-1.85,7.02-1.85,2.22,0,4.15.42,5.8,1.27,1.65.85,2.93,2.13,3.85,3.85.92,1.72,1.38,3.84,1.38,6.37v15.86h-2.6v-15.65c0-3.05-.77-5.37-2.31-6.97-1.54-1.59-3.7-2.39-6.47-2.39-2.12,0-3.95.43-5.51,1.3-1.56.87-2.75,2.08-3.56,3.64-.81,1.56-1.22,3.43-1.22,5.62v14.46h-2.6Z"/>
      <path class="st0" d="M442.52,999.73c-2.53,0-4.81-.58-6.84-1.74-2.03-1.16-3.63-2.78-4.81-4.86-1.18-2.08-1.77-4.47-1.77-7.18s.59-5.14,1.77-7.2c1.18-2.06,2.78-3.67,4.81-4.84,2.03-1.16,4.31-1.74,6.84-1.74,2.39,0,4.55.55,6.47,1.66,1.92,1.11,3.45,2.69,4.58,4.73,1.13,2.05,1.69,4.51,1.69,7.38s-.56,5.25-1.66,7.33c-1.11,2.08-2.63,3.67-4.55,4.78-1.92,1.11-4.1,1.66-6.53,1.66ZM442.68,997.39c2.08,0,3.94-.48,5.59-1.43,1.65-.95,2.95-2.3,3.9-4.03.95-1.73,1.43-3.73,1.43-5.98s-.48-4.29-1.43-6.01c-.95-1.72-2.25-3.05-3.9-4-1.65-.95-3.51-1.43-5.59-1.43s-3.94.48-5.59,1.43c-1.65.95-2.95,2.29-3.9,4-.95,1.72-1.43,3.72-1.43,6.01s.48,4.25,1.43,5.98c.95,1.73,2.25,3.08,3.9,4.03s3.51,1.43,5.59,1.43ZM453.65,999.52v-8.89l.47-4.73-.52-4.73v-20.23h2.6v38.58h-2.55Z"/>
      <path class="st0" d="M480.53,999.52v-27.14h2.5v7.44l-.26-.83c.76-2.18,2.04-3.87,3.85-5.04,1.8-1.18,4.06-1.77,6.76-1.77v2.55c-.1,0-.21,0-.31-.03-.1-.02-.21-.03-.31-.03-3.02,0-5.37.95-7.07,2.83-1.7,1.89-2.55,4.52-2.55,7.88v14.14h-2.6Z"/>
      <path class="st0" d="M511.32,999.73c-2.74,0-5.16-.59-7.25-1.77-2.1-1.18-3.74-2.81-4.94-4.89-1.2-2.08-1.79-4.45-1.79-7.12s.56-5.09,1.69-7.15c1.13-2.06,2.68-3.68,4.65-4.86,1.98-1.18,4.19-1.77,6.66-1.77s4.67.57,6.63,1.72c1.96,1.14,3.5,2.75,4.63,4.81,1.13,2.06,1.69,4.45,1.69,7.15,0,.1,0,.22-.03.34-.02.12-.03.25-.03.39h-23.97v-2.03h22.57l-1.04.99c.03-2.11-.41-4.01-1.33-5.69-.92-1.68-2.16-3-3.72-3.95-1.56-.95-3.36-1.43-5.41-1.43s-3.8.48-5.38,1.43c-1.58.95-2.82,2.27-3.72,3.95-.9,1.68-1.35,3.6-1.35,5.75v.47c0,2.22.49,4.19,1.48,5.9.99,1.72,2.35,3.05,4.08,4,1.73.95,3.71,1.43,5.93,1.43,1.73,0,3.35-.31,4.86-.94,1.51-.62,2.78-1.58,3.82-2.86l1.51,1.72c-1.18,1.46-2.66,2.56-4.45,3.3-1.79.75-3.72,1.12-5.8,1.12Z"/>
      <path class="st0" d="M531.34,1009.61v-37.23h2.5v8.89l-.42,4.73.52,4.73v18.88h-2.6ZM544.96,999.73c-2.39,0-4.55-.55-6.47-1.66-1.92-1.11-3.45-2.7-4.58-4.76-1.13-2.06-1.69-4.52-1.69-7.36s.56-5.29,1.69-7.36c1.13-2.06,2.65-3.65,4.58-4.76,1.92-1.11,4.08-1.66,6.47-1.66,2.56,0,4.86.58,6.89,1.74,2.03,1.16,3.62,2.78,4.78,4.86,1.16,2.08,1.74,4.47,1.74,7.18s-.58,5.1-1.74,7.18c-1.16,2.08-2.76,3.7-4.78,4.86-2.03,1.16-4.33,1.74-6.89,1.74ZM544.8,997.39c2.08,0,3.95-.48,5.62-1.43s2.97-2.3,3.93-4.03c.95-1.73,1.43-3.73,1.43-5.98s-.48-4.29-1.43-6.01c-.96-1.72-2.26-3.05-3.93-4-1.66-.95-3.54-1.43-5.62-1.43s-3.94.48-5.59,1.43c-1.65.95-2.95,2.29-3.9,4-.95,1.72-1.43,3.72-1.43,6.01s.48,4.25,1.43,5.98c.95,1.73,2.25,3.08,3.9,4.03,1.65.95,3.51,1.43,5.59,1.43Z"/>
      <path class="st0" d="M577.04,999.73c-2.6,0-4.91-.59-6.94-1.77-2.03-1.18-3.64-2.81-4.84-4.89-1.2-2.08-1.79-4.45-1.79-7.12s.6-5.09,1.79-7.15c1.2-2.06,2.81-3.68,4.84-4.86,2.03-1.18,4.34-1.77,6.94-1.77s4.92.59,6.97,1.77c2.04,1.18,3.66,2.8,4.84,4.86s1.77,4.45,1.77,7.15-.59,5.04-1.77,7.12-2.79,3.71-4.84,4.89c-2.05,1.18-4.37,1.77-6.97,1.77ZM577.04,997.39c2.08,0,3.95-.48,5.62-1.43s2.96-2.3,3.9-4.03c.94-1.73,1.4-3.73,1.4-5.98s-.47-4.29-1.4-6.01c-.94-1.72-2.24-3.05-3.9-4-1.66-.95-3.54-1.43-5.62-1.43s-3.94.48-5.59,1.43c-1.65.95-2.95,2.29-3.9,4-.95,1.72-1.43,3.72-1.43,6.01s.48,4.25,1.43,5.98c.95,1.73,2.25,3.08,3.9,4.03,1.65.95,3.51,1.43,5.59,1.43Z"/>
      <path class="st0" d="M598.68,999.52v-27.14h2.5v7.44l-.26-.83c.76-2.18,2.04-3.87,3.85-5.04,1.8-1.18,4.06-1.77,6.76-1.77v2.55c-.1,0-.21,0-.31-.03-.1-.02-.21-.03-.31-.03-3.02,0-5.37.95-7.07,2.83-1.7,1.89-2.55,4.52-2.55,7.88v14.14h-2.6Z"/>
      <path class="st0" d="M615.47,974.61v-2.24h16.22v2.24h-16.22ZM627.85,999.73c-2.39,0-4.22-.66-5.49-1.98s-1.9-3.12-1.9-5.41v-25.9h2.6v25.64c0,1.73.43,3.07,1.3,4,.87.94,2.11,1.4,3.74,1.4s3.1-.5,4.21-1.51l1.09,1.82c-.69.66-1.53,1.14-2.52,1.46-.99.31-2,.47-3.04.47Z"/>
      <path class="st0" d="M641.94,965.77c-.59,0-1.09-.21-1.51-.62s-.62-.9-.62-1.46c0-.59.21-1.09.62-1.51s.92-.62,1.51-.62c.62,0,1.14.2,1.53.6.4.4.6.89.6,1.48s-.2,1.09-.6,1.51-.91.62-1.53.62ZM640.64,999.52v-27.14h2.6v27.14h-2.6Z"/>
      <path class="st0" d="M654.21,999.52v-27.14h2.5v7.54l-.36-.83c.83-2.15,2.2-3.84,4.11-5.07,1.91-1.23,4.25-1.85,7.02-1.85,2.22,0,4.15.42,5.8,1.27,1.65.85,2.93,2.13,3.85,3.85.92,1.72,1.38,3.84,1.38,6.37v15.86h-2.6v-15.65c0-3.05-.77-5.37-2.31-6.97-1.54-1.59-3.7-2.39-6.47-2.39-2.12,0-3.95.43-5.51,1.3-1.56.87-2.75,2.08-3.56,3.64-.81,1.56-1.22,3.43-1.22,5.62v14.46h-2.6Z"/>
      <path class="st0" d="M699.76,998.53c-2.57,0-4.86-.56-6.89-1.69-2.03-1.13-3.64-2.69-4.84-4.68-1.2-1.99-1.79-4.27-1.79-6.84s.6-4.89,1.79-6.86c1.2-1.98,2.81-3.52,4.84-4.63,2.03-1.11,4.32-1.66,6.89-1.66s4.67.53,6.63,1.59c1.96,1.06,3.51,2.57,4.65,4.52,1.14,1.96,1.72,4.31,1.72,7.05s-.57,5.04-1.72,7.02c-1.14,1.98-2.7,3.5-4.65,4.58-1.96,1.07-4.17,1.61-6.63,1.61ZM700.49,1009.82c-2.46,0-4.8-.38-7.02-1.14-2.22-.76-4.02-1.82-5.41-3.17l1.4-1.98c1.35,1.25,2.97,2.22,4.86,2.91,1.89.69,3.93,1.04,6.11,1.04,3.64,0,6.32-.85,8.03-2.55,1.72-1.7,2.57-4.37,2.57-8.01v-7.54l.52-4.06-.42-4.06v-8.89h2.5v24.23c0,4.54-1.1,7.88-3.3,10.01-2.2,2.13-5.49,3.2-9.85,3.2ZM699.97,996.19c2.18,0,4.11-.46,5.77-1.38,1.66-.92,2.97-2.2,3.93-3.85s1.43-3.53,1.43-5.64-.48-4.04-1.43-5.67c-.95-1.63-2.26-2.89-3.93-3.8-1.66-.9-3.59-1.35-5.77-1.35s-4.01.45-5.69,1.35c-1.68.9-3,2.17-3.95,3.8-.95,1.63-1.43,3.52-1.43,5.67s.48,4,1.43,5.64c.95,1.65,2.27,2.93,3.95,3.85,1.68.92,3.58,1.38,5.69,1.38Z"/>
      <path class="st0" d="M743.34,999.52l-10.3-27.14h2.5l9.57,25.69h-1.09l9.83-25.69h2.24l9.78,25.69h-1.14l9.72-25.69h2.39l-10.3,27.14h-2.44l-9.57-24.65h.83l-9.62,24.65h-2.39Z"/>
      <path class="st0" d="M792.69,999.73c-2.6,0-4.91-.59-6.94-1.77-2.03-1.18-3.64-2.81-4.84-4.89-1.2-2.08-1.79-4.45-1.79-7.12s.6-5.09,1.79-7.15c1.2-2.06,2.81-3.68,4.84-4.86,2.03-1.18,4.34-1.77,6.94-1.77s4.92.59,6.97,1.77c2.04,1.18,3.66,2.8,4.84,4.86s1.77,4.45,1.77,7.15-.59,5.04-1.77,7.12-2.79,3.71-4.84,4.89c-2.05,1.18-4.37,1.77-6.97,1.77ZM792.69,997.39c2.08,0,3.95-.48,5.62-1.43s2.96-2.3,3.9-4.03c.94-1.73,1.4-3.73,1.4-5.98s-.47-4.29-1.4-6.01c-.94-1.72-2.24-3.05-3.9-4-1.66-.95-3.54-1.43-5.62-1.43s-3.94.48-5.59,1.43c-1.65.95-2.95,2.29-3.9,4-.95,1.72-1.43,3.72-1.43,6.01s.48,4.25,1.43,5.98c.95,1.73,2.25,3.08,3.9,4.03,1.65.95,3.51,1.43,5.59,1.43Z"/>
      <path class="st0" d="M814.32,999.52v-27.14h2.5v7.44l-.26-.83c.76-2.18,2.04-3.87,3.85-5.04,1.8-1.18,4.06-1.77,6.76-1.77v2.55c-.1,0-.21,0-.31-.03-.1-.02-.21-.03-.31-.03-3.02,0-5.37.95-7.07,2.83-1.7,1.89-2.55,4.52-2.55,7.88v14.14h-2.6Z"/>
      <path class="st0" d="M834.34,999.52v-38.58h2.6v38.58h-2.6ZM836.31,992.03l.05-3.28,17.94-16.38h3.33l-11.91,11.18-1.56,1.3-7.85,7.18ZM855.55,999.52l-11.86-14.87,1.77-1.92,13.31,16.8h-3.22Z"/>
      <path class="st0" d="M860.18,974.61v-2.24h16.22v2.24h-16.22ZM865.17,999.52v-31.3c0-2.25.65-4.06,1.95-5.43,1.3-1.37,3.16-2.05,5.59-2.05,1,0,1.99.15,2.96.44.97.29,1.77.74,2.39,1.33l-1.04,1.98c-.52-.52-1.14-.9-1.87-1.14-.73-.24-1.51-.36-2.34-.36-1.66,0-2.93.46-3.8,1.38-.87.92-1.3,2.28-1.3,4.08v4.58l.05,1.25v25.27h-2.6ZM881.71,999.52v-38.58h2.6v38.58h-2.6Z"/>
      <path class="st0" d="M905.89,999.73c-2.6,0-4.91-.59-6.94-1.77-2.03-1.18-3.64-2.81-4.84-4.89-1.2-2.08-1.79-4.45-1.79-7.12s.6-5.09,1.79-7.15c1.2-2.06,2.81-3.68,4.84-4.86,2.03-1.18,4.34-1.77,6.94-1.77s4.92.59,6.97,1.77c2.04,1.18,3.66,2.8,4.84,4.86s1.77,4.45,1.77,7.15-.59,5.04-1.77,7.12-2.79,3.71-4.84,4.89c-2.05,1.18-4.37,1.77-6.97,1.77ZM905.89,997.39c2.08,0,3.95-.48,5.62-1.43s2.96-2.3,3.9-4.03c.94-1.73,1.4-3.73,1.4-5.98s-.47-4.29-1.4-6.01c-.94-1.72-2.24-3.05-3.9-4-1.66-.95-3.54-1.43-5.62-1.43s-3.94.48-5.59,1.43c-1.65.95-2.95,2.29-3.9,4-.95,1.72-1.43,3.72-1.43,6.01s.48,4.25,1.43,5.98c.95,1.73,2.25,3.08,3.9,4.03,1.65.95,3.51,1.43,5.59,1.43Z"/>
      <path class="st0" d="M932.05,999.52l-10.3-27.14h2.5l9.57,25.69h-1.09l9.83-25.69h2.24l9.78,25.69h-1.14l9.72-25.69h2.39l-10.3,27.14h-2.44l-9.57-24.65h.83l-9.62,24.65h-2.39Z"/>
      <path class="st0" d="M978.12,999.73c-2.25,0-4.36-.33-6.32-.99-1.96-.66-3.48-1.49-4.55-2.5l1.2-2.08c1.04.9,2.43,1.67,4.16,2.31,1.73.64,3.6.96,5.62.96,2.84,0,4.89-.47,6.14-1.4,1.25-.94,1.87-2.17,1.87-3.69,0-1.11-.32-1.98-.96-2.63-.64-.64-1.5-1.14-2.57-1.48-1.08-.35-2.25-.63-3.54-.86-1.28-.23-2.57-.48-3.85-.75-1.28-.28-2.46-.68-3.54-1.2-1.08-.52-1.93-1.24-2.57-2.16-.64-.92-.96-2.14-.96-3.67,0-1.39.38-2.63,1.14-3.74.76-1.11,1.91-2,3.43-2.68,1.52-.68,3.43-1.01,5.72-1.01,1.7,0,3.41.24,5.12.73,1.72.49,3.11,1.13,4.19,1.92l-1.2,2.08c-1.14-.87-2.43-1.49-3.85-1.87-1.42-.38-2.86-.57-4.32-.57-2.63,0-4.57.49-5.8,1.46-1.23.97-1.85,2.18-1.85,3.64,0,1.14.32,2.05.96,2.73.64.68,1.5,1.2,2.57,1.56,1.07.36,2.25.66,3.54.88,1.28.23,2.57.48,3.85.75,1.28.28,2.46.67,3.54,1.17,1.07.5,1.93,1.2,2.57,2.08.64.88.96,2.07.96,3.56s-.41,2.79-1.22,3.9c-.82,1.11-2.02,1.98-3.61,2.6-1.59.62-3.55.94-5.88.94Z"/>
      <path class="st0" d="M995.8,999.73c-.59,0-1.1-.22-1.53-.65-.43-.43-.65-.96-.65-1.59s.22-1.14.65-1.56c.43-.42.94-.62,1.53-.62s1.1.21,1.53.62c.43.42.65.94.65,1.56s-.22,1.15-.65,1.59-.95.65-1.53.65Z"/>
    </g>
    <g class="st6">
      <path class="st0" d="M105.71,1196.43c-13.39-24.09-42.78-28.54-65.5-14.44-8.21,5.09-14.86,12.53-19.2,21.15-.35.69-1.81,4.69-2.08,4.75-.34.07-.72-.04-1.03-.19-1.45-.69-4.88-3.6-6.32-4.77-14.27-11.59-23.41-24.84-42.72-29.04-48.91-10.65-84.4,48.92-49.69,86.03,15.43,16.49,42.94,22.31,62.89,10.52,1.34-.79,3.83-3.61,5.34-2.68.32.2,2.76,5.83,3.33,6.84,2.02,3.6,4.9,7.44,7.59,10.58,1.54,1.79,4.89,4.59,6.02,6.29.2.3.41.52.29.92-9.36,6.56-20.02,10.88-31.34,12.71-39.29,6.35-78.15-13.52-92.08-51.27-14.1-38.24,1.39-81.23,36.87-100.95,29.35-16.31,63.29-12.4,90.09,6.92,6.91-3.59,13.08-8.35,20.28-11.43,34.68-14.89,76.58-4.12,99.68,25.48.78,1,3.96,5.13,4.2,5.99.23.81-.56,1.53-1.13,1.99-4.48,3.64-14.37,9.19-19.69,12.04-.81.43-5.33,2.85-5.81,2.57Z"/>
      <path class="st0" d="M-12.69,1198.98c1.27-.19,5.2,3.3,6.39,4.27,7.06,5.73,13.45,12.28,20.64,17.86,1.44,1.99.56,9.08.76,11.87.6,8.38,5.35,18.7,10.36,25.37,20.98,27.9,59.34,22.53,79.89-2.89,1.39-1.72.77-3.15,4.23-2.07l23.19,14.4c.38.24.29.41.19.77-.29,1.01-3.8,5.59-4.69,6.73-35.31,45.49-108.4,40.88-136.11-10.13-10.16-18.7-13.44-42.92-6.7-63.38.33-1.01.59-2.61,1.85-2.8Z"/>
    </g>
    <g class="st6">
      <path class="st0" d="M369.2,1196.43c-13.39-24.09-42.78-28.54-65.5-14.44-8.21,5.09-14.86,12.53-19.2,21.15-.35.69-1.81,4.69-2.08,4.75-.34.07-.72-.04-1.03-.19-1.45-.69-4.88-3.6-6.32-4.77-14.27-11.59-23.41-24.84-42.72-29.04-48.91-10.65-84.4,48.92-49.69,86.03,15.43,16.49,42.94,22.31,62.89,10.52,1.34-.79,3.83-3.61,5.34-2.68.32.2,2.76,5.83,3.33,6.84,2.02,3.6,4.9,7.44,7.59,10.58,1.54,1.79,4.89,4.59,6.02,6.29.2.3.41.52.29.92-9.36,6.56-20.02,10.88-31.34,12.71-39.29,6.35-78.15-13.52-92.08-51.27-14.1-38.24,1.39-81.23,36.87-100.95,29.35-16.31,63.29-12.4,90.09,6.92,6.91-3.59,13.08-8.35,20.28-11.43,34.68-14.89,76.58-4.12,99.68,25.48.78,1,3.96,5.13,4.2,5.99.23.81-.56,1.53-1.13,1.99-4.48,3.64-14.37,9.19-19.69,12.04-.81.43-5.33,2.85-5.81,2.57Z"/>
      <path class="st0" d="M250.8,1198.98c1.27-.19,5.2,3.3,6.39,4.27,7.06,5.73,13.45,12.28,20.64,17.86,1.44,1.99.56,9.08.76,11.87.6,8.38,5.35,18.7,10.36,25.37,20.98,27.9,59.34,22.53,79.89-2.89,1.39-1.72.77-3.15,4.23-2.07l23.19,14.4c.38.24.29.41.19.77-.29,1.01-3.8,5.59-4.69,6.73-35.31,45.49-108.4,40.88-136.11-10.13-10.16-18.7-13.44-42.92-6.7-63.38.33-1.01.59-2.61,1.85-2.8Z"/>
    </g>
    <g class="st6">
      <path class="st0" d="M632.69,1196.43c-13.39-24.09-42.78-28.54-65.5-14.44-8.21,5.09-14.86,12.53-19.2,21.15-.35.69-1.81,4.69-2.08,4.75-.34.07-.72-.04-1.03-.19-1.45-.69-4.88-3.6-6.32-4.77-14.27-11.59-23.41-24.84-42.72-29.04-48.91-10.65-84.4,48.92-49.69,86.03,15.43,16.49,42.94,22.31,62.89,10.52,1.34-.79,3.83-3.61,5.34-2.68.32.2,2.76,5.83,3.33,6.84,2.02,3.6,4.9,7.44,7.59,10.58,1.54,1.79,4.89,4.59,6.02,6.29.2.3.41.52.29.92-9.36,6.56-20.02,10.88-31.34,12.71-39.29,6.35-78.15-13.52-92.08-51.27-14.1-38.24,1.39-81.23,36.87-100.95,29.35-16.31,63.29-12.4,90.09,6.92,6.91-3.59,13.08-8.35,20.28-11.43,34.68-14.89,76.58-4.12,99.68,25.48.78,1,3.96,5.13,4.2,5.99.23.81-.56,1.53-1.13,1.99-4.48,3.64-14.37,9.19-19.69,12.04-.81.43-5.33,2.85-5.81,2.57Z"/>
      <path class="st0" d="M514.29,1198.98c1.27-.19,5.2,3.3,6.39,4.27,7.06,5.73,13.45,12.28,20.64,17.86,1.44,1.99.56,9.08.76,11.87.6,8.38,5.35,18.7,10.36,25.37,20.98,27.9,59.34,22.53,79.89-2.89,1.39-1.72.77-3.15,4.23-2.07l23.19,14.4c.38.24.29.41.19.77-.29,1.01-3.8,5.59-4.69,6.73-35.31,45.49-108.4,40.88-136.11-10.13-10.16-18.7-13.44-42.92-6.7-63.38.33-1.01.59-2.61,1.85-2.8Z"/>
    </g>
    <g class="st6">
      <path class="st0" d="M896.18,1196.43c-13.39-24.09-42.78-28.54-65.5-14.44-8.21,5.09-14.86,12.53-19.2,21.15-.35.69-1.81,4.69-2.08,4.75-.34.07-.72-.04-1.03-.19-1.45-.69-4.88-3.6-6.32-4.77-14.27-11.59-23.41-24.84-42.72-29.04-48.91-10.65-84.4,48.92-49.69,86.03,15.43,16.49,42.94,22.31,62.89,10.52,1.34-.79,3.83-3.61,5.34-2.68.32.2,2.76,5.83,3.33,6.84,2.02,3.6,4.9,7.44,7.59,10.58,1.54,1.79,4.89,4.59,6.02,6.29.2.3.41.52.29.92-9.36,6.56-20.02,10.88-31.34,12.71-39.29,6.35-78.15-13.52-92.08-51.27-14.1-38.24,1.39-81.23,36.87-100.95,29.35-16.31,63.29-12.4,90.09,6.92,6.91-3.59,13.08-8.35,20.28-11.43,34.68-14.89,76.58-4.12,99.68,25.48.78,1,3.96,5.13,4.2,5.99.23.81-.56,1.53-1.13,1.99-4.48,3.64-14.37,9.19-19.69,12.04-.81.43-5.33,2.85-5.81,2.57Z"/>
      <path class="st0" d="M777.78,1198.98c1.27-.19,5.2,3.3,6.39,4.27,7.06,5.73,13.45,12.28,20.64,17.86,1.44,1.99.56,9.08.76,11.87.6,8.38,5.35,18.7,10.36,25.37,20.98,27.9,59.34,22.53,79.89-2.89,1.39-1.72.77-3.15,4.23-2.07l23.19,14.4c.38.24.29.41.19.77-.29,1.01-3.8,5.59-4.69,6.73-35.31,45.49-108.4,40.88-136.11-10.13-10.16-18.7-13.44-42.92-6.7-63.38.33-1.01.59-2.61,1.85-2.8Z"/>
    </g>
    <g class="st6">
      <path class="st0" d="M1159.67,1196.43c-13.39-24.09-42.78-28.54-65.5-14.44-8.21,5.09-14.86,12.53-19.2,21.15-.35.69-1.81,4.69-2.08,4.75-.34.07-.72-.04-1.03-.19-1.45-.69-4.88-3.6-6.32-4.77-14.27-11.59-23.41-24.84-42.72-29.04-48.91-10.65-84.4,48.92-49.69,86.03,15.43,16.49,42.94,22.31,62.89,10.52,1.34-.79,3.83-3.61,5.34-2.68.32.2,2.76,5.83,3.33,6.84,2.02,3.6,4.9,7.44,7.59,10.58,1.54,1.79,4.89,4.59,6.02,6.29.2.3.41.52.29.92-9.36,6.56-20.02,10.88-31.34,12.71-39.29,6.35-78.15-13.52-92.08-51.27-14.1-38.24,1.39-81.23,36.87-100.95,29.35-16.31,63.29-12.4,90.09,6.92,6.91-3.59,13.08-8.35,20.28-11.43,34.68-14.89,76.58-4.12,99.68,25.48.78,1,3.96,5.13,4.2,5.99.23.81-.56,1.53-1.13,1.99-4.48,3.64-14.37,9.19-19.69,12.04-.81.43-5.33,2.85-5.81,2.57Z"/>
      <path class="st0" d="M1041.27,1198.98c1.27-.19,5.2,3.3,6.39,4.27,7.06,5.73,13.45,12.28,20.64,17.86,1.44,1.99.56,9.08.76,11.87.6,8.38,5.35,18.7,10.36,25.37,20.98,27.9,59.34,22.53,79.89-2.89,1.39-1.72.77-3.15,4.23-2.07l23.19,14.4c.38.24.29.41.19.77-.29,1.01-3.8,5.59-4.69,6.73-35.31,45.49-108.4,40.88-136.11-10.13-10.16-18.7-13.44-42.92-6.7-63.38.33-1.01.59-2.61,1.85-2.8Z"/>
    </g>
    <g class="st2">
      <path class="st0" d="M551.08,419.36h-15.79l-13.8-1.73c-54.58-8.75-98.82-51.13-110.2-105.16l-2.88-19.5c.23-5.4-.31-10.94,0-16.33.67-11.53,3.52-23.76,6.99-34.87.63-2.02,2.54-5.5,2.79-7.23.14-.96-.41-1.79-.34-2.31.05-.34,1.47-.79,2.08-1.73,1.59-2.47,3.07-7.1,4.71-10.03,47.53-85.05,164.68-96.02,225.09-18.55,66.63,85.45,8.52,211.18-98.65,217.45ZM462.11,255.84c.55,2.13-.4,6.28,0,8.69,4.28-3.37,8.85-11.3,13.59-3.85,1.39,2.19,6.65,14.43,7.81,14.83,8.99.78,18.98-.75,27.84.06,3.02.28,3.37,1.16,4.99,3.44,4.09,5.74,7.18,12.91,11.26,18.75,2.1,1.54,13.54-.39,17.18.72,2.99.91,2.77,3.76,2.54,6.29-.33,3.64-3.6,20.18-5.09,22.82-2.03,3.86-16,14.51-16.85,17.38-1.67,5.64,2.65,10.68-3.02,15.94-2.25,2.08-14.09,9.77-14.73,11.07-1,6.32.45,13.53-.26,19.75-.38,3.3-2,5.34-5.48,4.97-1.82-.2-14.78-4.71-15.86-5.74-.42-.4-.61-.74-.88-1.22-3.72-6.43-5.73-16.56-9.24-23.4l-.15-42.25c-5.65-1.33-12.4-1.77-17.88-3.44-1.73-.53-2.77-.92-3.91-2.41-1.96-2.56-9.47-18.36-9.76-21.3s-.35-10.18.23-12.93c.69-3.28,4.02-5.18,6.07-7.61l-22.99-15.7-4.9-12.47c-15.5,52.83,4.56,109.23,49.63,140.2,43.47,29.87,101.17,29.02,144.04-1.49,10.47-7.45,19.56-16.67,27.41-26.8l-10.27-10.77-.35-18.61-17.53-35.12-.52-17.39-9.97-6.8c-6.01,1.16-12.14,3.82-18.21,3.94l-33.12-14.29c-1.63-1.74-1.64-4.17-2.05-6.38-1.36-7.5-3.38-18.86-3.76-26.25-.07-1.3-.16-2.72.23-3.97.31-1,12.94-13.83,14.49-14.99,1.12-.83,1.38-1.14,2.89-1.32,8.68-1.02,19.42.69,28.33.12,2.95.66,7.88,11.08,10.21,13.61l23.22,4.05,22.75-7.25c-3.81-6.42-8.16-12.58-13.5-17.84-1.31-.23-9.32,7.41-13.05,7.34-4.42-.09-17.59-3.23-22.41-4.49-3.32-.87-10.24-4.17-12.97-4.32-4.51-.25-12.98,4.32-18.36,4.09-1.98-.09-14.36-4.16-15.8-5.29-1.65-1.3-2.32-3.19-1.47-5.18,2.74-4.04,6.83-16.89,10.05-19.59.71-.6,1.53-.95,2.47-1.07,9.48-1.15,15.21,2.41,24.35-3.54.51-.33.94.06.68-1.17-23.57-8.85-47.98-11.28-72.76-6.17-3.14.65-8.4,1.79-11.24,2.97-.53.22-1.22.39-1.28,1.08,1.79.41,2.88,1.93,4.61,2.5,6.88,2.27,16.98,2.22,24.36,4.07,4.25,1.07,5.32,2.11,4.59,6.74-.29,1.82-4.16,13.01-5.12,14.22-2.01,2.51-11.07,3.41-13.98,5.64l-13.46,21.82c-8.05,3.79-18.23,13.12-26.68,14.92s-17.21,1.94-25.42,3.53c-.79.53-.7,6.6-.22,7.66.95,2.09,8.08,6.9,8.68,9.23ZM453.16,266.63v-7.64c0-.67-8.06-6.92-8.72-9.71-.55-2.32-.54-13.57.26-15.61.88-2.26,2.52-2.75,4.66-3.24,8.86-2,20.69-1.65,29.09-4.08,2.19-.63,20.11-11.62,21.49-13.26,4.51-5.38,8.33-16.63,12.96-21.27,2.91-2.92,9.63-3.45,13.32-5.37l2.23-6.19c-.81-.81-19.18-2.72-22.62-3.97-3.69-1.33-7.68-5.35-11.24-7.24l-.92-.13c-29.1,12.51-53.51,36.37-65.64,65.75l6.86,20.22,18.27,11.73ZM563.19,192.37c2.43-.03,5.3,2.13,7.58,2.07,4.86-.12,12.95-4.47,17.94-4.2,3.37.19,10.18,3.49,13.96,4.51s16.62,4.13,19.74,3.98c2.31-.11,5.58-3.29,7.64-4.53.27-1.1-11.4-10.19-13.22-11.51-4.94-3.58-10.23-6.7-15.55-9.69-1.87-.18-13.49,7.36-17,8.08-4.86,1.01-10.86-.48-15.83.49l-5.26,10.8ZM590.46,217.24h-22.69s-10.86,11.17-10.86,11.17l3.73,26.02,27.6,11.66,18.7-3.91,15.96,10.27c2.88,3.49.45,15.71,1.46,20.66,3.39,10.56,14.98,25.15,17.42,35.24,1.26,5.22-.28,12.03.47,17.44l6.47,6.68c24.5-36.66,26.94-87.04,5.74-125.79l-25.75,8.38c-8.29-1.92-19.81-1.87-27.64-4.48-4.51-1.5-7.79-9.58-10.62-13.34ZM498.44,386.18v-17.64c0-2.25,15.49-11.93,17.63-14.49l.67-13.02,17.74-18.07,2.92-15.77h-12.37c-.45,0-2.97-1.24-3.35-1.92l-12.29-20.62-30.45-.35c-3.08-.94-6.84-11.44-8.4-14.51l-1.32.52c-2.43,3.66-14.81,13.05-15.81,16.3-.49,1.58-.47,8.47-.12,10.18.83,4.05,6.15,10.61,7.38,15,1.36,1.27,17.56,3.16,21.06,4.48,2.36.89,2.83,1.85,3.06,4.31,1.27,13.87-1.02,29.63,0,43.7l7.82,19.97,5.84,1.92Z"/>
    </g>
  </g>
  <g>
    <rect class="st5" x="239.83" y="1052.67" width="600.34" height="49.02" rx="24.51" ry="24.51"/>
    <g>
      <path class="st7" d="M313.89,1088.39c-1.56,0-3.06-.25-4.48-.76-1.43-.51-2.54-1.17-3.31-1.96l.87-1.71c.74.72,1.73,1.33,2.99,1.81,1.25.49,2.56.74,3.94.74s2.4-.17,3.23-.5c.83-.33,1.44-.77,1.83-1.33.39-.56.58-1.18.58-1.86,0-.82-.24-1.48-.71-1.98-.47-.5-1.08-.89-1.85-1.19-.76-.29-1.6-.54-2.52-.76-.92-.22-1.84-.46-2.76-.71-.92-.25-1.77-.58-2.54-1s-1.39-.97-1.86-1.67c-.47-.69-.71-1.59-.71-2.71,0-1.04.27-2,.83-2.87.55-.87,1.4-1.57,2.53-2.1,1.14-.53,2.6-.79,4.38-.79,1.18,0,2.35.17,3.51.5,1.16.33,2.16.79,3,1.36l-.75,1.77c-.9-.6-1.86-1.04-2.86-1.32-1.01-.28-1.99-.42-2.93-.42-1.26,0-2.3.17-3.12.51-.82.34-1.42.79-1.81,1.37-.39.57-.58,1.21-.58,1.93,0,.82.23,1.48.71,1.98.47.5,1.09.89,1.86,1.17.77.28,1.62.53,2.54.75.92.22,1.83.46,2.75.72.91.26,1.75.6,2.52,1,.77.41,1.39.96,1.86,1.64.47.68.71,1.57.71,2.67,0,1.02-.28,1.96-.84,2.83-.56.87-1.42,1.57-2.57,2.1-1.15.53-2.62.79-4.42.79Z"/>
      <path class="st7" d="M332.61,1088.36c-1.34,0-2.51-.25-3.51-.75-1-.5-1.78-1.25-2.33-2.25-.55-1-.83-2.25-.83-3.75v-9.15h2.13v8.91c0,1.68.41,2.95,1.24,3.79.83.85,2,1.28,3.5,1.28,1.1,0,2.06-.23,2.87-.68.81-.45,1.43-1.1,1.86-1.96s.65-1.89.65-3.09v-8.25h2.13v15.75h-2.04v-4.32l.33.78c-.5,1.16-1.27,2.07-2.33,2.71-1.05.65-2.27.98-3.67.98Z"/>
      <path class="st7" d="M350.49,1088.36c-1.3,0-2.53-.19-3.69-.56-1.16-.37-2.07-.83-2.73-1.39l.96-1.68c.64.48,1.46.9,2.46,1.25,1,.35,2.05.53,3.15.53,1.5,0,2.58-.24,3.24-.71.66-.47.99-1.09.99-1.88,0-.58-.19-1.04-.56-1.37s-.85-.58-1.46-.75c-.6-.17-1.27-.31-2.01-.43-.74-.12-1.48-.26-2.21-.42-.73-.16-1.4-.39-2-.71-.6-.31-1.08-.74-1.46-1.28s-.55-1.26-.55-2.16.24-1.63.72-2.31,1.19-1.21,2.12-1.61c.93-.39,2.06-.58,3.4-.58,1.02,0,2.04.14,3.06.41,1.02.27,1.86.62,2.52,1.07l-.93,1.71c-.7-.48-1.45-.83-2.25-1.04-.8-.21-1.6-.32-2.4-.32-1.42,0-2.46.25-3.13.74-.67.49-1,1.12-1,1.88,0,.6.18,1.07.55,1.41s.86.6,1.47.79c.61.19,1.28.34,2.01.46s1.46.27,2.19.43c.73.17,1.4.4,2.01.69.61.29,1.1.7,1.47,1.23.37.53.56,1.22.56,2.08,0,.92-.25,1.71-.77,2.38-.51.67-1.25,1.19-2.22,1.56-.97.37-2.15.56-3.52.56Z"/>
      <path class="st7" d="M358.44,1074.23v-1.77h9.75v1.77h-9.75ZM365.88,1088.36c-1.48,0-2.62-.4-3.42-1.2s-1.2-1.93-1.2-3.39v-14.79h2.13v14.67c0,.92.23,1.63.71,2.13.47.5,1.14.75,2.02.75.94,0,1.72-.27,2.34-.81l.75,1.53c-.42.38-.93.66-1.51.84-.59.18-1.2.27-1.81.27Z"/>
      <path class="st7" d="M376.92,1088.36c-1.18,0-2.21-.2-3.08-.58-.87-.39-1.54-.93-2-1.62-.46-.69-.69-1.49-.69-2.39,0-.82.2-1.56.58-2.23.39-.67,1.03-1.21,1.92-1.62s2.09-.62,3.59-.62h5.43v1.59h-5.37c-1.52,0-2.58.27-3.17.81s-.88,1.21-.88,2.01c0,.9.35,1.62,1.05,2.16s1.68.81,2.94.81,2.23-.27,3.1-.83c.87-.55,1.5-1.34,1.9-2.38l.48,1.47c-.4,1.04-1.1,1.87-2.08,2.49-.99.62-2.23.93-3.73.93ZM382.35,1088.21v-3.48l-.09-.57v-5.82c0-1.34-.38-2.37-1.12-3.09s-1.87-1.08-3.35-1.08c-1.02,0-1.99.17-2.91.51-.92.34-1.7.79-2.34,1.35l-.96-1.59c.8-.68,1.76-1.21,2.88-1.58,1.12-.37,2.3-.56,3.54-.56,2.04,0,3.61.51,4.72,1.52,1.11,1.01,1.67,2.54,1.67,4.6v9.78h-2.04Z"/>
      <path class="st7" d="M391.26,1068.98c-.44,0-.81-.15-1.11-.45-.3-.3-.45-.66-.45-1.08s.15-.78.45-1.07c.3-.29.67-.43,1.11-.43s.81.14,1.11.42c.3.28.45.63.45,1.05,0,.44-.15.81-.44,1.11-.29.3-.67.45-1.12.45ZM390.18,1088.21v-15.75h2.13v15.75h-2.13Z"/>
      <path class="st7" d="M398.25,1088.21v-15.75h2.04v4.32l-.33-.81c.5-1.14,1.3-2.03,2.4-2.68,1.1-.65,2.41-.98,3.93-.98,1.28,0,2.4.25,3.38.74s1.73,1.24,2.28,2.24c.55,1,.83,2.26.83,3.78v9.15h-2.13v-8.94c0-1.66-.42-2.91-1.24-3.76-.83-.85-2-1.28-3.5-1.28-1.12,0-2.1.23-2.93.68-.83.45-1.47,1.1-1.92,1.95-.45.85-.67,1.88-.67,3.08v8.28h-2.13Z"/>
      <path class="st7" d="M422.97,1088.36c-1.18,0-2.21-.2-3.08-.58-.87-.39-1.54-.93-2-1.62-.46-.69-.69-1.49-.69-2.39,0-.82.2-1.56.58-2.23.39-.67,1.03-1.21,1.92-1.62s2.09-.62,3.59-.62h5.43v1.59h-5.37c-1.52,0-2.58.27-3.17.81s-.88,1.21-.88,2.01c0,.9.35,1.62,1.05,2.16s1.68.81,2.94.81,2.23-.27,3.1-.83c.87-.55,1.5-1.34,1.9-2.38l.48,1.47c-.4,1.04-1.1,1.87-2.08,2.49-.99.62-2.23.93-3.73.93ZM428.4,1088.21v-3.48l-.09-.57v-5.82c0-1.34-.38-2.37-1.12-3.09s-1.87-1.08-3.35-1.08c-1.02,0-1.99.17-2.91.51-.92.34-1.7.79-2.34,1.35l-.96-1.59c.8-.68,1.76-1.21,2.88-1.58,1.12-.37,2.3-.56,3.54-.56,2.04,0,3.61.51,4.72,1.52,1.11,1.01,1.67,2.54,1.67,4.6v9.78h-2.04Z"/>
      <path class="st7" d="M436.23,1088.21v-22.26h2.13v11.16l-.3,3.18.21,3.18v4.74h-2.04ZM444.36,1088.36c-1.38,0-2.62-.32-3.72-.95-1.1-.63-1.97-1.54-2.61-2.75-.64-1.2-.96-2.65-.96-4.35s.32-3.17.98-4.37c.65-1.19,1.52-2.09,2.62-2.71,1.1-.62,2.33-.93,3.69-.93,1.5,0,2.84.34,4.03,1.01s2.12,1.6,2.81,2.8c.68,1.2,1.02,2.6,1.02,4.2s-.34,2.97-1.02,4.18c-.68,1.21-1.62,2.16-2.81,2.83-1.19.68-2.53,1.02-4.03,1.02ZM444.21,1086.47c1.12,0,2.12-.25,3-.76.88-.51,1.58-1.23,2.1-2.16s.78-2,.78-3.22-.26-2.32-.78-3.24-1.22-1.63-2.1-2.15c-.88-.51-1.88-.76-3-.76s-2.13.25-3.02.76c-.89.51-1.59,1.23-2.1,2.15-.51.92-.77,2-.77,3.24s.26,2.29.77,3.22c.51.93,1.21,1.65,2.1,2.16.89.51,1.89.76,3.02.76Z"/>
      <path class="st7" d="M457.65,1068.98c-.44,0-.81-.15-1.11-.45-.3-.3-.45-.66-.45-1.08s.15-.78.45-1.07c.3-.29.67-.43,1.11-.43s.81.14,1.11.42c.3.28.45.63.45,1.05,0,.44-.15.81-.44,1.11-.29.3-.67.45-1.12.45ZM456.57,1088.21v-15.75h2.13v15.75h-2.13Z"/>
      <path class="st7" d="M464.64,1088.21v-22.26h2.13v22.26h-2.13Z"/>
      <path class="st7" d="M473.79,1068.98c-.44,0-.81-.15-1.11-.45-.3-.3-.45-.66-.45-1.08s.15-.78.45-1.07c.3-.29.67-.43,1.11-.43s.81.14,1.11.42c.3.28.45.63.45,1.05,0,.44-.15.81-.44,1.11-.29.3-.67.45-1.12.45ZM472.71,1088.21v-15.75h2.13v15.75h-2.13Z"/>
      <path class="st7" d="M478.05,1074.23v-1.77h9.75v1.77h-9.75ZM485.49,1088.36c-1.48,0-2.62-.4-3.42-1.2s-1.2-1.93-1.2-3.39v-14.79h2.13v14.67c0,.92.23,1.63.71,2.13.47.5,1.14.75,2.02.75.94,0,1.72-.27,2.34-.81l.75,1.53c-.42.38-.93.66-1.51.84-.59.18-1.2.27-1.81.27Z"/>
      <path class="st7" d="M491.73,1094.18c-.74,0-1.44-.12-2.11-.36-.67-.24-1.25-.6-1.73-1.08l.99-1.59c.4.38.83.67,1.3.88.47.21.99.31,1.58.31.7,0,1.3-.19,1.81-.58.51-.39.99-1.08,1.46-2.05l1.02-2.31.24-.33,6.48-14.61h2.1l-7.89,17.64c-.44,1.02-.93,1.83-1.46,2.43-.53.6-1.1,1.02-1.72,1.27-.62.25-1.31.38-2.07.38ZM495.93,1088.66l-7.26-16.2h2.22l6.42,14.46-1.38,1.74Z"/>
      <path class="st7" d="M515.73,1088.21v-22.26h2.13v11.16l-.3,3.18.21,3.18v4.74h-2.04ZM523.86,1088.36c-1.38,0-2.62-.32-3.72-.95-1.1-.63-1.97-1.54-2.61-2.75-.64-1.2-.96-2.65-.96-4.35s.32-3.17.98-4.37c.65-1.19,1.52-2.09,2.62-2.71,1.1-.62,2.33-.93,3.69-.93,1.5,0,2.84.34,4.03,1.01s2.12,1.6,2.81,2.8c.68,1.2,1.02,2.6,1.02,4.2s-.34,2.97-1.02,4.18c-.68,1.21-1.62,2.16-2.81,2.83-1.19.68-2.53,1.02-4.03,1.02ZM523.71,1086.47c1.12,0,2.12-.25,3-.76.88-.51,1.58-1.23,2.1-2.16s.78-2,.78-3.22-.26-2.32-.78-3.24-1.22-1.63-2.1-2.15c-.88-.51-1.88-.76-3-.76s-2.13.25-3.02.76c-.89.51-1.59,1.23-2.1,2.15-.51.92-.77,2-.77,3.24s.26,2.29.77,3.22c.51.93,1.21,1.65,2.1,2.16.89.51,1.89.76,3.02.76Z"/>
      <path class="st7" d="M542.58,1088.36c-1.34,0-2.51-.25-3.51-.75-1-.5-1.78-1.25-2.33-2.25-.55-1-.83-2.25-.83-3.75v-9.15h2.13v8.91c0,1.68.41,2.95,1.24,3.79.83.85,2,1.28,3.5,1.28,1.1,0,2.05-.23,2.87-.68.81-.45,1.43-1.1,1.86-1.96.43-.86.65-1.89.65-3.09v-8.25h2.13v15.75h-2.04v-4.32l.33.78c-.5,1.16-1.28,2.07-2.33,2.71-1.05.65-2.28.98-3.67.98Z"/>
      <path class="st7" d="M557.31,1068.98c-.44,0-.81-.15-1.11-.45-.3-.3-.45-.66-.45-1.08s.15-.78.45-1.07c.3-.29.67-.43,1.11-.43s.81.14,1.11.42.45.63.45,1.05c0,.44-.15.81-.44,1.11-.29.3-.67.45-1.12.45ZM556.23,1088.21v-15.75h2.13v15.75h-2.13Z"/>
      <path class="st7" d="M564.3,1088.21v-22.26h2.13v22.26h-2.13Z"/>
      <path class="st7" d="M569.64,1074.23v-1.77h9.75v1.77h-9.75ZM577.08,1088.36c-1.48,0-2.62-.4-3.42-1.2s-1.2-1.93-1.2-3.39v-14.79h2.13v14.67c0,.92.24,1.63.71,2.13s1.14.75,2.03.75c.94,0,1.72-.27,2.34-.81l.75,1.53c-.42.38-.93.66-1.51.84-.59.18-1.2.27-1.82.27Z"/>
      <path class="st7" d="M593.22,1068.98c-.44,0-.81-.15-1.11-.45-.3-.3-.45-.66-.45-1.08s.15-.78.45-1.07c.3-.29.67-.43,1.11-.43s.81.14,1.11.42c.3.28.45.63.45,1.05,0,.44-.14.81-.43,1.11-.29.3-.67.45-1.12.45ZM592.14,1088.21v-15.75h2.13v15.75h-2.13Z"/>
      <path class="st7" d="M600.21,1088.21v-15.75h2.04v4.32l-.33-.81c.5-1.14,1.3-2.03,2.4-2.68,1.1-.65,2.41-.98,3.93-.98,1.28,0,2.41.25,3.38.74.97.49,1.73,1.24,2.28,2.24s.83,2.26.83,3.78v9.15h-2.13v-8.94c0-1.66-.42-2.91-1.25-3.76-.83-.85-2-1.28-3.5-1.28-1.12,0-2.09.23-2.92.68-.83.45-1.47,1.1-1.92,1.95-.45.85-.67,1.88-.67,3.08v8.28h-2.13Z"/>
      <path class="st7" d="M618.03,1074.23v-1.77h9.75v1.77h-9.75ZM625.47,1088.36c-1.48,0-2.62-.4-3.42-1.2s-1.2-1.93-1.2-3.39v-14.79h2.13v14.67c0,.92.23,1.63.71,2.13.47.5,1.14.75,2.02.75.94,0,1.72-.27,2.34-.81l.75,1.53c-.42.38-.92.66-1.51.84s-1.2.27-1.81.27Z"/>
      <path class="st7" d="M638.52,1088.36c-1.54,0-2.91-.35-4.11-1.04-1.2-.69-2.15-1.65-2.85-2.87-.7-1.22-1.05-2.6-1.05-4.14s.35-2.97,1.05-4.17c.7-1.2,1.65-2.14,2.85-2.82s2.57-1.02,4.11-1.02,2.94.35,4.15,1.04c1.21.69,2.16,1.63,2.85,2.82.69,1.19,1.04,2.58,1.04,4.16s-.35,2.94-1.04,4.15c-.69,1.21-1.65,2.16-2.87,2.85-1.22.69-2.6,1.04-4.14,1.04ZM638.52,1086.47c1.14,0,2.15-.25,3.03-.76s1.58-1.23,2.08-2.16c.51-.93.77-2,.77-3.22s-.25-2.32-.77-3.24c-.51-.92-1.21-1.63-2.08-2.15-.88-.51-1.88-.76-3-.76s-2.12.25-3,.76c-.88.51-1.58,1.23-2.1,2.15-.52.92-.78,2-.78,3.24s.26,2.29.78,3.22c.52.93,1.21,1.65,2.08,2.16s1.86.76,2.99.76Z"/>
      <path class="st7" d="M658.88,1094.18c-.74,0-1.44-.12-2.11-.36-.67-.24-1.25-.6-1.73-1.08l.99-1.59c.4.38.83.67,1.3.88s1,.31,1.58.31c.7,0,1.3-.19,1.82-.58.51-.39.99-1.08,1.46-2.05l1.02-2.31.24-.33,6.48-14.61h2.1l-7.89,17.64c-.44,1.02-.92,1.83-1.46,2.43-.53.6-1.1,1.02-1.72,1.27s-1.31.38-2.07.38ZM663.08,1088.66l-7.26-16.2h2.22l6.42,14.46-1.38,1.74Z"/>
      <path class="st7" d="M681,1088.36c-1.54,0-2.91-.35-4.11-1.04-1.2-.69-2.15-1.65-2.85-2.87-.7-1.22-1.05-2.6-1.05-4.14s.35-2.97,1.05-4.17c.7-1.2,1.65-2.14,2.85-2.82s2.57-1.02,4.11-1.02,2.94.35,4.15,1.04c1.21.69,2.16,1.63,2.85,2.82.69,1.19,1.04,2.58,1.04,4.16s-.35,2.94-1.04,4.15c-.69,1.21-1.65,2.16-2.87,2.85-1.22.69-2.6,1.04-4.14,1.04ZM681,1086.47c1.14,0,2.15-.25,3.03-.76s1.58-1.23,2.08-2.16c.51-.93.77-2,.77-3.22s-.25-2.32-.77-3.24c-.51-.92-1.21-1.63-2.08-2.15-.88-.51-1.88-.76-3-.76s-2.12.25-3,.76c-.88.51-1.58,1.23-2.1,2.15-.52.92-.78,2-.78,3.24s.26,2.29.78,3.22c.52.93,1.21,1.65,2.08,2.16s1.86.76,2.99.76Z"/>
      <path class="st7" d="M699.89,1088.36c-1.34,0-2.51-.25-3.51-.75s-1.78-1.25-2.33-2.25-.83-2.25-.83-3.75v-9.15h2.13v8.91c0,1.68.41,2.95,1.24,3.79.83.85,2,1.28,3.5,1.28,1.1,0,2.06-.23,2.87-.68.81-.45,1.43-1.1,1.86-1.96.43-.86.64-1.89.64-3.09v-8.25h2.13v15.75h-2.04v-4.32l.33.78c-.5,1.16-1.27,2.07-2.33,2.71-1.05.65-2.27.98-3.67.98Z"/>
      <path class="st7" d="M713.54,1088.21v-15.75h2.04v4.29l-.21-.75c.44-1.2,1.18-2.12,2.22-2.75s2.33-.95,3.87-.95v2.07c-.08,0-.16,0-.24-.01s-.16-.02-.24-.02c-1.66,0-2.96.51-3.9,1.52-.94,1.01-1.41,2.44-1.41,4.3v8.04h-2.13Z"/>
      <path class="st7" d="M737.67,1088.36c-1.3,0-2.53-.19-3.69-.56-1.16-.37-2.07-.83-2.73-1.39l.96-1.68c.64.48,1.46.9,2.46,1.25,1,.35,2.05.53,3.15.53,1.5,0,2.58-.24,3.24-.71s.99-1.09.99-1.88c0-.58-.19-1.04-.56-1.37s-.85-.58-1.46-.75c-.6-.17-1.27-.31-2.01-.43s-1.47-.26-2.21-.42-1.39-.39-2-.71c-.6-.31-1.08-.74-1.46-1.28s-.55-1.26-.55-2.16.24-1.63.72-2.31c.48-.68,1.19-1.21,2.12-1.61.93-.39,2.07-.58,3.41-.58,1.02,0,2.04.14,3.06.41,1.02.27,1.86.62,2.52,1.07l-.93,1.71c-.7-.48-1.45-.83-2.25-1.04-.8-.21-1.6-.32-2.4-.32-1.42,0-2.46.25-3.13.74-.67.49-1,1.12-1,1.88,0,.6.18,1.07.55,1.41s.86.6,1.47.79,1.28.34,2.01.46c.73.12,1.46.27,2.19.43.73.17,1.4.4,2.01.69s1.1.7,1.47,1.23c.37.53.56,1.22.56,2.08,0,.92-.25,1.71-.77,2.38-.51.67-1.25,1.19-2.22,1.56-.97.37-2.14.56-3.52.56Z"/>
      <path class="st7" d="M745.61,1074.23v-1.77h9.75v1.77h-9.75ZM753.05,1088.36c-1.48,0-2.62-.4-3.42-1.2s-1.2-1.93-1.2-3.39v-14.79h2.13v14.67c0,.92.23,1.63.71,2.13.47.5,1.14.75,2.02.75.94,0,1.72-.27,2.34-.81l.75,1.53c-.42.38-.92.66-1.51.84s-1.2.27-1.81.27Z"/>
      <path class="st7" d="M764.09,1088.36c-1.18,0-2.21-.2-3.08-.58-.87-.39-1.54-.93-2-1.62-.46-.69-.69-1.49-.69-2.39,0-.82.2-1.56.58-2.23.39-.67,1.03-1.21,1.92-1.62.89-.41,2.09-.62,3.59-.62h5.43v1.59h-5.37c-1.52,0-2.58.27-3.17.81s-.88,1.21-.88,2.01c0,.9.35,1.62,1.05,2.16s1.68.81,2.94.81,2.23-.27,3.1-.83c.87-.55,1.5-1.34,1.91-2.38l.48,1.47c-.4,1.04-1.09,1.87-2.08,2.49-.99.62-2.23.93-3.73.93ZM769.52,1088.21v-3.48l-.09-.57v-5.82c0-1.34-.38-2.37-1.12-3.09s-1.87-1.08-3.35-1.08c-1.02,0-1.99.17-2.91.51-.92.34-1.7.79-2.34,1.35l-.96-1.59c.8-.68,1.76-1.21,2.88-1.58,1.12-.37,2.3-.56,3.54-.56,2.04,0,3.61.51,4.72,1.52s1.67,2.54,1.67,4.6v9.78h-2.04Z"/>
      <path class="st7" d="M783.89,1088.36c-1.56,0-2.95-.35-4.18-1.04-1.23-.69-2.2-1.64-2.89-2.85-.7-1.21-1.05-2.59-1.05-4.15s.35-2.97,1.05-4.17c.7-1.2,1.67-2.14,2.89-2.82,1.23-.68,2.62-1.02,4.18-1.02,1.34,0,2.55.26,3.63.78,1.08.52,1.93,1.3,2.55,2.34l-1.59,1.08c-.54-.8-1.21-1.39-2.01-1.77s-1.67-.57-2.61-.57c-1.12,0-2.13.25-3.03.76-.9.51-1.61,1.23-2.13,2.15-.52.92-.78,2-.78,3.24s.26,2.32.78,3.24c.52.92,1.23,1.64,2.13,2.15s1.91.76,3.03.76c.94,0,1.81-.19,2.61-.57s1.47-.96,2.01-1.74l1.59,1.08c-.62,1.02-1.47,1.79-2.55,2.33-1.08.53-2.29.79-3.63.79Z"/>
      <path class="st7" d="M794,1088.21v-22.26h2.13v22.26h-2.13ZM795.68,1084.13l.06-2.73,9.81-8.94h2.61l-6.93,6.63-1.2,1.02-4.35,4.02ZM806.21,1088.21l-6.57-8.19,1.38-1.65,7.8,9.84h-2.61Z"/>
      <path class="st7" d="M812.45,1088.36c-.44,0-.82-.16-1.12-.48-.31-.32-.47-.71-.47-1.17s.16-.87.47-1.17c.31-.3.68-.45,1.12-.45s.81.15,1.12.45c.31.3.46.69.46,1.17s-.16.85-.46,1.17c-.31.32-.69.48-1.12.48Z"/>
    </g>
    <circle class="st7" cx="264.68" cy="1077.19" r="15.32"/>
  </g>
</svg>