<?xml version="1.0" encoding="UTF-8"?>
<svg id="Layer_1" xmlns="http://www.w3.org/2000/svg" version="1.1" xmlns:xlink="http://www.w3.org/1999/xlink" viewBox="0 0 1080 1350">
  <!-- Generator: Adobe Illustrator 30.0.0, SVG Export Plug-In . SVG Version: 2.1.1 Build 123)  -->
  <defs>
    <style>
      .st0 {
        fill: #009734;
      }

      .st1 {
        fill: #005e08;
        font-family: Metropolis-Light, Metropolis;
        font-size: 55px;
        font-weight: 300;
      }

      .st2 {
        fill: #fff;
      }

      .st3 {
        opacity: .55;
      }

      .st4 {
        fill: none;
      }

      .st5 {
        fill: #cbffbc;
      }

      .st6 {
        opacity: .38;
      }

      .st7 {
        fill: #00a63d;
      }

      .st8 {
        fill: #b0ea1d;
      }

      .st9 {
        clip-path: url(#clippath);
      }
    </style>
    <clipPath id="clippath">
      <rect class="st4" width="1080" height="1350" rx="31.79" ry="31.79"/>
    </clipPath>
  </defs>
  <g class="st9">
    <rect class="st8" width="1080" height="1350" rx="31.79" ry="31.79"/>
    <g class="st6">
      <path class="st2" d="M1108.7,258.35c24.09-13.39,28.54-42.78,14.44-65.5-5.09-8.21-12.53-14.86-21.15-19.2-.69-.35-4.69-1.81-4.75-2.08-.07-.34.04-.72.19-1.03.69-1.45,3.6-4.88,4.77-6.32,11.59-14.27,24.84-23.41,29.04-42.72,10.65-48.91-48.92-84.4-86.03-49.69-16.49,15.43-22.31,42.94-10.52,62.89.79,1.34,3.61,3.83,2.68,5.34-.2.32-5.83,2.76-6.84,3.33-3.6,2.02-7.44,4.9-10.58,7.59-1.79,1.54-4.59,4.89-6.29,6.02-.3.2-.52.41-.92.29-6.56-9.36-10.88-20.02-12.71-31.34-6.35-39.29,13.52-78.15,51.27-92.08,38.24-14.1,81.23,1.39,100.95,36.87,16.31,29.35,12.4,63.29-6.92,90.09,3.59,6.91,8.35,13.08,11.43,20.28,14.89,34.68,4.12,76.58-25.48,99.68-1,.78-5.13,3.96-5.99,4.2-.81.23-1.53-.56-1.99-1.13-3.64-4.48-9.19-14.37-12.04-19.69-.43-.81-2.85-5.33-2.57-5.81Z"/>
      <path class="st2" d="M1106.15,139.95c.19,1.27-3.3,5.2-4.27,6.39-5.73,7.06-12.28,13.45-17.86,20.64-1.99,1.44-9.08.56-11.87.76-8.38.6-18.7,5.35-25.37,10.36-27.9,20.98-22.53,59.34,2.89,79.89,1.72,1.39,3.15.77,2.07,4.23l-14.4,23.19c-.24.38-.41.29-.77.19-1.01-.29-5.59-3.8-6.73-4.69-45.49-35.31-40.88-108.4,10.13-136.11,18.7-10.16,42.92-13.44,63.38-6.7,1.01.33,2.61.59,2.8,1.85Z"/>
    </g>
    <g class="st6">
      <path class="st2" d="M1108.7,521.84c24.09-13.39,28.54-42.78,14.44-65.5-5.09-8.21-12.53-14.86-21.15-19.2-.69-.35-4.69-1.81-4.75-2.08-.07-.34.04-.72.19-1.03.69-1.45,3.6-4.88,4.77-6.32,11.59-14.27,24.84-23.41,29.04-42.72,10.65-48.91-48.92-84.4-86.03-49.69-16.49,15.43-22.31,42.94-10.52,62.89.79,1.34,3.61,3.83,2.68,5.34-.2.32-5.83,2.76-6.84,3.33-3.6,2.02-7.44,4.9-10.58,7.59-1.79,1.54-4.59,4.89-6.29,6.02-.3.2-.52.41-.92.29-6.56-9.36-10.88-20.02-12.71-31.34-6.35-39.29,13.52-78.15,51.27-92.08,38.24-14.1,81.23,1.39,100.95,36.87,16.31,29.35,12.4,63.29-6.92,90.09,3.59,6.91,8.35,13.08,11.43,20.28,14.89,34.68,4.12,76.58-25.48,99.68-1,.78-5.13,3.96-5.99,4.2-.81.23-1.53-.56-1.99-1.13-3.64-4.48-9.19-14.37-12.04-19.69-.43-.81-2.85-5.33-2.57-5.81Z"/>
      <path class="st2" d="M1106.15,403.44c.19,1.27-3.3,5.2-4.27,6.39-5.73,7.06-12.28,13.45-17.86,20.64-1.99,1.44-9.08.56-11.87.76-8.38.6-18.7,5.35-25.37,10.36-27.9,20.98-22.53,59.34,2.89,79.89,1.72,1.39,3.15.77,2.07,4.23l-14.4,23.19c-.24.38-.41.29-.77.19-1.01-.29-5.59-3.8-6.73-4.69-45.49-35.31-40.88-108.4,10.13-136.11,18.7-10.16,42.92-13.44,63.38-6.7,1.01.33,2.61.59,2.8,1.85Z"/>
    </g>
    <g class="st6">
      <path class="st2" d="M1108.7,785.33c24.09-13.39,28.54-42.78,14.44-65.5-5.09-8.21-12.53-14.86-21.15-19.2-.69-.35-4.69-1.81-4.75-2.08-.07-.34.04-.72.19-1.03.69-1.45,3.6-4.88,4.77-6.32,11.59-14.27,24.84-23.41,29.04-42.72,10.65-48.91-48.92-84.4-86.03-49.69-16.49,15.43-22.31,42.94-10.52,62.89.79,1.34,3.61,3.83,2.68,5.34-.2.32-5.83,2.76-6.84,3.33-3.6,2.02-7.44,4.9-10.58,7.59-1.79,1.54-4.59,4.89-6.29,6.02-.3.2-.52.41-.92.29-6.56-9.36-10.88-20.02-12.71-31.34-6.35-39.29,13.52-78.15,51.27-92.08,38.24-14.1,81.23,1.39,100.95,36.87,16.31,29.35,12.4,63.29-6.92,90.09,3.59,6.91,8.35,13.08,11.43,20.28,14.89,34.68,4.12,76.58-25.48,99.68-1,.78-5.13,3.96-5.99,4.2-.81.23-1.53-.56-1.99-1.13-3.64-4.48-9.19-14.37-12.04-19.69-.43-.81-2.85-5.33-2.57-5.81Z"/>
      <path class="st2" d="M1106.15,666.93c.19,1.27-3.3,5.2-4.27,6.39-5.73,7.06-12.28,13.45-17.86,20.64-1.99,1.44-9.08.56-11.87.76-8.38.6-18.7,5.35-25.37,10.36-27.9,20.98-22.53,59.34,2.89,79.89,1.72,1.39,3.15.77,2.07,4.23l-14.4,23.19c-.24.38-.41.29-.77.19-1.01-.29-5.59-3.8-6.73-4.69-45.49-35.31-40.88-108.4,10.13-136.11,18.7-10.16,42.92-13.44,63.38-6.7,1.01.33,2.61.59,2.8,1.85Z"/>
    </g>
    <g class="st6">
      <path class="st2" d="M1108.7,1048.82c24.09-13.39,28.54-42.78,14.44-65.5-5.09-8.21-12.53-14.86-21.15-19.2-.69-.35-4.69-1.81-4.75-2.08-.07-.34.04-.72.19-1.03.69-1.45,3.6-4.88,4.77-6.32,11.59-14.27,24.84-23.41,29.04-42.72,10.65-48.91-48.92-84.4-86.03-49.69-16.49,15.43-22.31,42.94-10.52,62.89.79,1.34,3.61,3.83,2.68,5.34-.2.32-5.83,2.76-6.84,3.33-3.6,2.02-7.44,4.9-10.58,7.59-1.79,1.54-4.59,4.89-6.29,6.02-.3.2-.52.41-.92.29-6.56-9.36-10.88-20.02-12.71-31.34-6.35-39.29,13.52-78.15,51.27-92.08,38.24-14.1,81.23,1.39,100.95,36.87,16.31,29.35,12.4,63.29-6.92,90.09,3.59,6.91,8.35,13.08,11.43,20.28,14.89,34.68,4.12,76.58-25.48,99.68-1,.78-5.13,3.96-5.99,4.2-.81.23-1.53-.56-1.99-1.13-3.64-4.48-9.19-14.37-12.04-19.69-.43-.81-2.85-5.33-2.57-5.81Z"/>
      <path class="st2" d="M1106.15,930.42c.19,1.27-3.3,5.2-4.27,6.39-5.73,7.06-12.28,13.45-17.86,20.64-1.99,1.44-9.08.56-11.87.76-8.38.6-18.7,5.35-25.37,10.36-27.9,20.98-22.53,59.34,2.89,79.89,1.72,1.39,3.15.77,2.07,4.23l-14.4,23.19c-.24.38-.41.29-.77.19-1.01-.29-5.59-3.8-6.73-4.69-45.49-35.31-40.88-108.4,10.13-136.11,18.7-10.16,42.92-13.44,63.38-6.7,1.01.33,2.61.59,2.8,1.85Z"/>
    </g>
    <g class="st6">
      <path class="st2" d="M1108.7,1312.31c24.09-13.39,28.54-42.78,14.44-65.5-5.09-8.21-12.53-14.86-21.15-19.2-.69-.35-4.69-1.81-4.75-2.08-.07-.34.04-.72.19-1.03.69-1.45,3.6-4.88,4.77-6.32,11.59-14.27,24.84-23.41,29.04-42.72,10.65-48.91-48.92-84.4-86.03-49.69-16.49,15.43-22.31,42.94-10.52,62.89.79,1.34,3.61,3.83,2.68,5.34-.2.32-5.83,2.76-6.84,3.33-3.6,2.02-7.44,4.9-10.58,7.59-1.79,1.54-4.59,4.89-6.29,6.02-.3.2-.52.41-.92.29-6.56-9.36-10.88-20.02-12.71-31.34-6.35-39.29,13.52-78.15,51.27-92.08,38.24-14.1,81.23,1.39,100.95,36.87,16.31,29.35,12.4,63.29-6.92,90.09,3.59,6.91,8.35,13.08,11.43,20.28,14.89,34.68,4.12,76.58-25.48,99.68-1,.78-5.13,3.96-5.99,4.2-.81.23-1.53-.56-1.99-1.13-3.64-4.48-9.19-14.37-12.04-19.69-.43-.81-2.85-5.33-2.57-5.81Z"/>
      <path class="st2" d="M1106.15,1193.91c.19,1.27-3.3,5.2-4.27,6.39-5.73,7.06-12.28,13.45-17.86,20.64-1.99,1.44-9.08.56-11.87.76-8.38.6-18.7,5.35-25.37,10.36-27.9,20.98-22.53,59.34,2.89,79.89,1.72,1.39,3.15.77,2.07,4.23l-14.4,23.19c-.24.38-.41.29-.77.19-1.01-.29-5.59-3.8-6.73-4.69-45.49-35.31-40.88-108.4,10.13-136.11,18.7-10.16,42.92-13.44,63.38-6.7,1.01.33,2.61.59,2.8,1.85Z"/>
    </g>
    <text class="st1" transform="translate(66.75 876.38)"><tspan x="0" y="0">Built on GHG Protocol and ISO </tspan><tspan x="0" y="66">14064, with outputs mapped to </tspan><tspan x="0" y="132">SECR (UK), CSRD (EU), and SEC </tspan><tspan x="0" y="198">(US) disclosure formats.</tspan></text>
    <rect class="st5" x="64.71" y="1165.42" width="917.11" height="49.02" rx="24.51" ry="24.51"/>
    <g>
      <path class="st7" d="M142.1,1201.14c-1.58,0-3.04-.26-4.38-.79-1.34-.53-2.5-1.27-3.48-2.23-.98-.96-1.75-2.09-2.3-3.39-.55-1.3-.82-2.72-.82-4.26s.27-2.96.82-4.26,1.32-2.43,2.31-3.39c.99-.96,2.15-1.7,3.5-2.23,1.34-.53,2.8-.79,4.38-.79s2.95.25,4.29.76,2.47,1.28,3.39,2.29l-1.41,1.41c-.86-.88-1.81-1.51-2.85-1.91-1.04-.39-2.16-.58-3.36-.58-1.26,0-2.43.22-3.51.65s-2.02,1.04-2.82,1.83-1.42,1.71-1.88,2.76c-.45,1.05-.67,2.21-.67,3.46s.23,2.42.67,3.46c.45,1.05,1.08,1.97,1.88,2.76.8.79,1.74,1.4,2.82,1.83,1.08.43,2.25.65,3.51.65s2.32-.2,3.36-.6c1.04-.4,1.99-1.04,2.85-1.92l1.41,1.41c-.92,1.02-2.05,1.79-3.39,2.31-1.34.52-2.78.78-4.32.78Z"/>
      <path class="st7" d="M158,1201.11c-1.18,0-2.21-.2-3.08-.58-.87-.39-1.54-.93-2-1.62-.46-.69-.69-1.49-.69-2.39,0-.82.2-1.56.58-2.23.39-.67,1.03-1.21,1.92-1.62s2.09-.62,3.59-.62h5.43v1.59h-5.37c-1.52,0-2.58.27-3.17.81s-.88,1.21-.88,2.01c0,.9.35,1.62,1.05,2.16s1.68.81,2.94.81,2.23-.27,3.1-.83c.87-.55,1.5-1.34,1.9-2.38l.48,1.47c-.4,1.04-1.1,1.87-2.08,2.49-.99.62-2.23.93-3.73.93ZM163.43,1200.96v-3.48l-.09-.57v-5.82c0-1.34-.38-2.37-1.12-3.09s-1.87-1.08-3.35-1.08c-1.02,0-1.99.17-2.91.51-.92.34-1.7.79-2.34,1.35l-.96-1.59c.8-.68,1.76-1.21,2.88-1.58,1.12-.37,2.3-.56,3.54-.56,2.04,0,3.61.51,4.72,1.52,1.11,1.01,1.67,2.54,1.67,4.6v9.78h-2.04Z"/>
      <path class="st7" d="M171.26,1200.96v-15.75h2.04v4.26l-.33-.75c.48-1.14,1.25-2.03,2.32-2.68,1.07-.65,2.33-.98,3.79-.98,1.54,0,2.85.39,3.93,1.16,1.08.77,1.78,1.92,2.1,3.46l-.84-.33c.46-1.28,1.27-2.31,2.44-3.1s2.57-1.19,4.21-1.19c1.28,0,2.4.25,3.35.74.95.49,1.69,1.24,2.22,2.24s.79,2.26.79,3.78v9.15h-2.13v-8.94c0-1.66-.4-2.91-1.19-3.76-.79-.85-1.9-1.28-3.34-1.28-1.08,0-2.02.23-2.81.68-.79.45-1.4,1.1-1.83,1.95-.43.85-.65,1.88-.65,3.08v8.28h-2.13v-8.94c0-1.66-.4-2.91-1.2-3.76-.8-.85-1.92-1.28-3.36-1.28-1.06,0-1.99.23-2.79.68-.8.45-1.42,1.1-1.84,1.95-.43.85-.65,1.88-.65,3.08v8.28h-2.13Z"/>
      <path class="st7" d="M203.09,1206.78v-21.57h2.04v4.74l-.21,3.15.3,3.18v10.5h-2.13ZM211.22,1201.11c-1.36,0-2.59-.32-3.69-.95-1.1-.63-1.98-1.54-2.62-2.73-.65-1.19-.98-2.64-.98-4.36s.32-3.17.96-4.37c.64-1.19,1.51-2.09,2.61-2.71,1.1-.62,2.34-.93,3.72-.93,1.5,0,2.84.34,4.03,1.01s2.12,1.61,2.81,2.82c.68,1.21,1.02,2.61,1.02,4.19s-.34,3-1.02,4.2c-.68,1.2-1.62,2.14-2.81,2.82-1.19.68-2.53,1.02-4.03,1.02ZM211.07,1199.22c1.12,0,2.12-.25,3-.76.88-.51,1.58-1.23,2.1-2.16s.78-2,.78-3.22-.26-2.29-.78-3.21-1.22-1.64-2.1-2.16c-.88-.52-1.88-.78-3-.78s-2.13.26-3.02.78c-.89.52-1.59,1.24-2.1,2.16-.51.92-.77,1.99-.77,3.21s.26,2.29.77,3.22c.51.93,1.21,1.65,2.1,2.16.89.51,1.89.76,3.02.76Z"/>
      <path class="st7" d="M227.78,1201.11c-1.18,0-2.21-.2-3.08-.58-.87-.39-1.54-.93-2-1.62-.46-.69-.69-1.49-.69-2.39,0-.82.2-1.56.58-2.23.39-.67,1.03-1.21,1.92-1.62s2.09-.62,3.59-.62h5.43v1.59h-5.37c-1.52,0-2.58.27-3.17.81s-.88,1.21-.88,2.01c0,.9.35,1.62,1.05,2.16s1.68.81,2.94.81,2.23-.27,3.1-.83c.87-.55,1.5-1.34,1.9-2.38l.48,1.47c-.4,1.04-1.1,1.87-2.08,2.49-.99.62-2.23.93-3.73.93ZM233.21,1200.96v-3.48l-.09-.57v-5.82c0-1.34-.38-2.37-1.12-3.09s-1.87-1.08-3.35-1.08c-1.02,0-1.99.17-2.91.51-.92.34-1.7.79-2.34,1.35l-.96-1.59c.8-.68,1.76-1.21,2.88-1.58,1.12-.37,2.3-.56,3.54-.56,2.04,0,3.61.51,4.72,1.52,1.11,1.01,1.67,2.54,1.67,4.6v9.78h-2.04Z"/>
      <path class="st7" d="M242.12,1181.73c-.44,0-.81-.15-1.11-.45-.3-.3-.45-.66-.45-1.08s.15-.78.45-1.07c.3-.29.67-.43,1.11-.43s.81.14,1.11.42c.3.28.45.63.45,1.05,0,.44-.15.81-.44,1.11-.29.3-.67.45-1.12.45ZM241.04,1200.96v-15.75h2.13v15.75h-2.13Z"/>
      <path class="st7" d="M255.44,1200.36c-1.5,0-2.85-.33-4.05-.98-1.2-.65-2.15-1.55-2.83-2.71-.69-1.16-1.04-2.49-1.04-3.99s.35-2.82,1.04-3.97,1.63-2.04,2.83-2.69c1.2-.64,2.55-.96,4.05-.96,1.4,0,2.66.29,3.78.87,1.12.58,2.01,1.44,2.67,2.58.66,1.14.99,2.53.99,4.17s-.33,3.03-.99,4.17c-.66,1.14-1.55,2.01-2.67,2.61-1.12.6-2.38.9-3.78.9ZM255.83,1206.93c-1.44,0-2.82-.21-4.14-.63-1.32-.42-2.39-1.02-3.21-1.8l1.08-1.62c.74.66,1.65,1.19,2.75,1.58,1.09.39,2.24.58,3.46.58,2,0,3.47-.46,4.41-1.4.94-.93,1.41-2.38,1.41-4.33v-3.93l.3-2.7-.21-2.7v-4.77h2.04v13.83c0,2.72-.67,4.71-2,5.99-1.33,1.27-3.3,1.9-5.9,1.9ZM255.65,1198.47c1.16,0,2.19-.24,3.09-.73s1.61-1.17,2.13-2.04c.52-.87.78-1.88.78-3.02s-.26-2.14-.78-3c-.52-.86-1.23-1.53-2.13-2.02s-1.93-.74-3.09-.74-2.17.25-3.07.74c-.91.49-1.62,1.17-2.13,2.02-.51.86-.77,1.86-.77,3s.25,2.15.77,3.02c.51.87,1.22,1.55,2.13,2.04.91.49,1.94.73,3.07.73Z"/>
      <path class="st7" d="M269.66,1200.96v-15.75h2.04v4.32l-.33-.81c.5-1.14,1.3-2.03,2.4-2.68,1.1-.65,2.41-.98,3.93-.98,1.28,0,2.4.25,3.38.74s1.73,1.24,2.28,2.24c.55,1,.83,2.26.83,3.78v9.15h-2.13v-8.94c0-1.66-.42-2.91-1.24-3.76-.83-.85-2-1.28-3.5-1.28-1.12,0-2.1.23-2.93.68-.83.45-1.47,1.1-1.92,1.95-.45.85-.67,1.88-.67,3.08v8.28h-2.13Z"/>
      <path class="st7" d="M304.22,1201.11c-1.54,0-2.91-.35-4.11-1.04-1.2-.69-2.15-1.65-2.85-2.87-.7-1.22-1.05-2.6-1.05-4.14s.35-2.97,1.05-4.17c.7-1.2,1.65-2.14,2.85-2.82,1.2-.68,2.57-1.02,4.11-1.02s2.94.35,4.15,1.04c1.21.69,2.16,1.63,2.85,2.82.69,1.19,1.04,2.58,1.04,4.16s-.35,2.94-1.04,4.15c-.69,1.21-1.65,2.16-2.87,2.85-1.22.69-2.6,1.04-4.14,1.04ZM304.22,1199.22c1.14,0,2.15-.25,3.03-.76.88-.51,1.58-1.23,2.08-2.16.51-.93.77-2,.77-3.22s-.25-2.32-.77-3.24c-.51-.92-1.21-1.63-2.08-2.15-.88-.51-1.88-.76-3-.76s-2.12.25-3,.76c-.88.51-1.58,1.23-2.1,2.15s-.78,2-.78,3.24.26,2.29.78,3.22,1.22,1.65,2.08,2.16c.87.51,1.86.76,2.99.76Z"/>
      <path class="st7" d="M316.61,1200.96v-15.75h2.04v4.29l-.21-.75c.44-1.2,1.18-2.12,2.22-2.75,1.04-.63,2.33-.95,3.87-.95v2.07c-.08,0-.16,0-.24-.01-.08,0-.16-.02-.24-.02-1.66,0-2.96.51-3.9,1.52s-1.41,2.44-1.41,4.3v8.04h-2.13Z"/>
      <path class="st7" d="M340.73,1201.11c-1.3,0-2.53-.19-3.69-.56-1.16-.37-2.07-.83-2.73-1.39l.96-1.68c.64.48,1.46.9,2.46,1.25,1,.35,2.05.53,3.15.53,1.5,0,2.58-.24,3.24-.71.66-.47.99-1.09.99-1.88,0-.58-.19-1.04-.56-1.37s-.85-.58-1.46-.75c-.6-.17-1.27-.31-2.01-.43-.74-.12-1.48-.26-2.21-.42-.73-.16-1.4-.39-2-.71-.6-.31-1.08-.74-1.46-1.28s-.55-1.26-.55-2.16.24-1.63.72-2.31,1.19-1.21,2.12-1.61c.93-.39,2.06-.58,3.4-.58,1.02,0,2.04.14,3.06.41,1.02.27,1.86.62,2.52,1.07l-.93,1.71c-.7-.48-1.45-.83-2.25-1.04-.8-.21-1.6-.32-2.4-.32-1.42,0-2.46.25-3.13.74-.67.49-1,1.12-1,1.88,0,.6.18,1.07.55,1.41s.86.6,1.47.79c.61.19,1.28.34,2.01.46s1.46.27,2.19.43c.73.17,1.4.4,2.01.69.61.29,1.1.7,1.47,1.23.37.53.56,1.22.56,2.08,0,.92-.25,1.71-.77,2.38-.51.67-1.25,1.19-2.22,1.56-.97.37-2.15.56-3.52.56Z"/>
      <path class="st7" d="M352.22,1181.73c-.44,0-.81-.15-1.11-.45-.3-.3-.45-.66-.45-1.08s.15-.78.45-1.07c.3-.29.67-.43,1.11-.43s.81.14,1.11.42c.3.28.45.63.45,1.05,0,.44-.15.81-.44,1.11-.29.3-.67.45-1.12.45ZM351.14,1200.96v-15.75h2.13v15.75h-2.13Z"/>
      <path class="st7" d="M356.48,1186.98v-1.77h9.75v1.77h-9.75ZM363.92,1201.11c-1.48,0-2.62-.4-3.42-1.2s-1.2-1.93-1.2-3.39v-14.79h2.13v14.67c0,.92.23,1.63.71,2.13.47.5,1.14.75,2.02.75.94,0,1.72-.27,2.34-.81l.75,1.53c-.42.38-.93.66-1.51.84-.59.18-1.2.27-1.81.27Z"/>
      <path class="st7" d="M377.24,1201.11c-1.64,0-3.08-.35-4.32-1.04-1.24-.69-2.21-1.64-2.91-2.85-.7-1.21-1.05-2.59-1.05-4.15s.33-2.94,1-4.14,1.59-2.14,2.76-2.83c1.17-.69,2.48-1.04,3.94-1.04s2.79.34,3.95,1.01c1.15.67,2.05,1.61,2.71,2.82.66,1.21.99,2.61.99,4.19,0,.1,0,.21-.02.31-.01.11-.02.23-.02.34h-13.71v-1.59h12.57l-.84.63c0-1.14-.25-2.15-.73-3.04-.49-.89-1.16-1.58-2-2.08-.84-.5-1.81-.75-2.91-.75s-2.05.25-2.91.75c-.86.5-1.53,1.2-2.01,2.1-.48.9-.72,1.93-.72,3.09v.33c0,1.2.26,2.25.79,3.17.53.91,1.27,1.62,2.22,2.13.95.51,2.04.76,3.26.76.96,0,1.85-.17,2.68-.51s1.55-.86,2.15-1.56l1.2,1.38c-.7.84-1.58,1.48-2.62,1.92s-2.21.66-3.46.66Z"/>
      <path class="st7" d="M387.8,1193.76v-1.86h7.86v1.86h-7.86Z"/>
      <path class="st7" d="M400.43,1200.96v-22.26h2.13v22.26h-2.13Z"/>
      <path class="st7" d="M415.19,1201.11c-1.64,0-3.08-.35-4.32-1.04-1.24-.69-2.21-1.64-2.91-2.85-.7-1.21-1.05-2.59-1.05-4.15s.33-2.94,1-4.14,1.59-2.14,2.76-2.83c1.17-.69,2.48-1.04,3.94-1.04s2.79.34,3.95,1.01c1.15.67,2.05,1.61,2.71,2.82.66,1.21.99,2.61.99,4.19,0,.1,0,.21-.02.31-.01.11-.02.23-.02.34h-13.71v-1.59h12.57l-.84.63c0-1.14-.25-2.15-.73-3.04-.49-.89-1.16-1.58-2-2.08-.84-.5-1.81-.75-2.91-.75s-2.05.25-2.91.75c-.86.5-1.53,1.2-2.01,2.1-.48.9-.72,1.93-.72,3.09v.33c0,1.2.26,2.25.79,3.17.53.91,1.27,1.62,2.22,2.13.95.51,2.04.76,3.26.76.96,0,1.85-.17,2.68-.51s1.55-.86,2.15-1.56l1.2,1.38c-.7.84-1.58,1.48-2.62,1.92s-2.21.66-3.46.66Z"/>
      <path class="st7" d="M430.37,1200.96l-6.99-15.75h2.22l6.42,14.61h-1.05l6.51-14.61h2.1l-7.02,15.75h-2.19Z"/>
      <path class="st7" d="M448.82,1201.11c-1.64,0-3.08-.35-4.32-1.04-1.24-.69-2.21-1.64-2.91-2.85-.7-1.21-1.05-2.59-1.05-4.15s.33-2.94,1-4.14,1.59-2.14,2.76-2.83c1.17-.69,2.48-1.04,3.94-1.04s2.79.34,3.95,1.01c1.15.67,2.05,1.61,2.71,2.82.66,1.21.99,2.61.99,4.19,0,.1,0,.21-.02.31-.01.11-.02.23-.02.34h-13.71v-1.59h12.57l-.84.63c0-1.14-.25-2.15-.73-3.04-.49-.89-1.16-1.58-2-2.08-.84-.5-1.81-.75-2.91-.75s-2.05.25-2.91.75c-.86.5-1.53,1.2-2.01,2.1-.48.9-.72,1.93-.72,3.09v.33c0,1.2.26,2.25.79,3.17.53.91,1.27,1.62,2.22,2.13.95.51,2.04.76,3.26.76.96,0,1.85-.17,2.68-.51s1.55-.86,2.15-1.56l1.2,1.38c-.7.84-1.58,1.48-2.62,1.92s-2.21.66-3.46.66Z"/>
      <path class="st7" d="M460.25,1200.96v-22.26h2.13v22.26h-2.13Z"/>
      <path class="st7" d="M485.75,1201.14c-1.58,0-3.04-.26-4.38-.79-1.34-.53-2.5-1.27-3.48-2.23-.98-.96-1.75-2.09-2.3-3.39-.55-1.3-.82-2.72-.82-4.26s.27-2.96.82-4.26,1.32-2.43,2.31-3.39c.99-.96,2.15-1.7,3.5-2.23,1.34-.53,2.8-.79,4.38-.79s2.95.25,4.29.76,2.47,1.28,3.39,2.29l-1.41,1.41c-.86-.88-1.81-1.51-2.85-1.91-1.04-.39-2.16-.58-3.36-.58-1.26,0-2.43.22-3.51.65s-2.02,1.04-2.82,1.83-1.42,1.71-1.88,2.76c-.45,1.05-.67,2.21-.67,3.46s.23,2.42.67,3.46c.45,1.05,1.08,1.97,1.88,2.76.8.79,1.74,1.4,2.82,1.83,1.08.43,2.25.65,3.51.65s2.32-.2,3.36-.6c1.04-.4,1.99-1.04,2.85-1.92l1.41,1.41c-.92,1.02-2.05,1.79-3.39,2.31-1.34.52-2.78.78-4.32.78Z"/>
      <path class="st7" d="M506.03,1201.14c-1.58,0-3.04-.26-4.4-.79-1.35-.53-2.52-1.28-3.51-2.25-.99-.97-1.76-2.1-2.31-3.39s-.82-2.71-.82-4.25.27-2.96.82-4.25,1.32-2.42,2.31-3.39c.99-.97,2.15-1.72,3.5-2.25,1.34-.53,2.81-.79,4.41-.79s3.04.26,4.38.79c1.34.53,2.5,1.27,3.5,2.23.99.96,1.76,2.09,2.31,3.39.55,1.3.82,2.72.82,4.26s-.27,2.96-.82,4.26c-.55,1.3-1.32,2.43-2.31,3.39-.99.96-2.16,1.71-3.5,2.23-1.34.53-2.8.79-4.38.79ZM506.03,1199.16c1.26,0,2.42-.21,3.5-.65,1.07-.43,2-1.04,2.79-1.83.79-.79,1.41-1.71,1.85-2.76s.66-2.21.66-3.46-.22-2.42-.66-3.46-1.06-1.97-1.85-2.76-1.72-1.4-2.79-1.83c-1.07-.43-2.24-.65-3.5-.65s-2.43.22-3.51.65-2.02,1.04-2.82,1.83c-.8.79-1.42,1.71-1.86,2.76-.44,1.05-.66,2.21-.66,3.46s.22,2.39.66,3.45c.44,1.06,1.06,1.99,1.86,2.77.8.79,1.74,1.4,2.82,1.83,1.08.43,2.25.65,3.51.65Z"/>
      <path class="st7" d="M520.04,1203.96v-1.05l5.7-5.04c.78-.7,1.29-1.26,1.54-1.7.25-.43.38-.85.38-1.27,0-.58-.26-1.08-.78-1.5-.52-.42-1.37-.63-2.55-.63-.76,0-1.46.12-2.1.35s-1.16.58-1.56,1.04l-1.11-.87c.52-.62,1.19-1.09,2.01-1.41.82-.32,1.77-.48,2.85-.48,1.62,0,2.83.33,3.65.99s1.22,1.47,1.22,2.43c0,.62-.16,1.21-.47,1.77s-.94,1.26-1.88,2.1l-5.13,4.53-.51-.6h8.58v1.35h-9.84Z"/>
      <path class="st7" d="M541.16,1201.11c-1.64,0-3.08-.35-4.32-1.04-1.24-.69-2.21-1.64-2.91-2.85-.7-1.21-1.05-2.59-1.05-4.15s.33-2.94,1-4.14,1.59-2.14,2.76-2.83c1.17-.69,2.48-1.04,3.94-1.04s2.79.34,3.95,1.01,2.05,1.61,2.71,2.82c.66,1.21.99,2.61.99,4.19,0,.1,0,.21-.01.31-.01.11-.02.23-.02.34h-13.71v-1.59h12.57l-.84.63c0-1.14-.25-2.15-.74-3.04-.49-.89-1.16-1.58-2-2.08-.84-.5-1.81-.75-2.91-.75s-2.05.25-2.91.75c-.86.5-1.53,1.2-2.01,2.1-.48.9-.72,1.93-.72,3.09v.33c0,1.2.26,2.25.79,3.17.53.91,1.27,1.62,2.22,2.13.95.51,2.04.76,3.26.76.96,0,1.85-.17,2.68-.51s1.54-.86,2.14-1.56l1.2,1.38c-.7.84-1.58,1.48-2.62,1.92s-2.21.66-3.46.66Z"/>
      <path class="st7" d="M561.53,1181.73c-.44,0-.81-.15-1.11-.45-.3-.3-.45-.66-.45-1.08s.15-.78.45-1.07c.3-.29.67-.43,1.11-.43s.81.14,1.11.42.45.63.45,1.05c0,.44-.15.81-.44,1.11-.29.3-.67.45-1.12.45ZM560.45,1200.96v-15.75h2.13v15.75h-2.13Z"/>
      <path class="st7" d="M568.52,1200.96v-15.75h2.04v4.32l-.33-.81c.5-1.14,1.3-2.03,2.4-2.68,1.1-.65,2.41-.98,3.93-.98,1.28,0,2.4.25,3.38.74.97.49,1.73,1.24,2.28,2.24.55,1,.83,2.26.83,3.78v9.15h-2.13v-8.94c0-1.66-.42-2.91-1.24-3.76-.83-.85-2-1.28-3.5-1.28-1.12,0-2.1.23-2.93.68-.83.45-1.47,1.1-1.92,1.95-.45.85-.67,1.88-.67,3.08v8.28h-2.13Z"/>
      <path class="st7" d="M596.66,1200.96v-15.75h2.04v4.26l-.33-.75c.48-1.14,1.25-2.03,2.33-2.68,1.07-.65,2.33-.98,3.79-.98,1.54,0,2.85.39,3.93,1.16,1.08.77,1.78,1.92,2.1,3.46l-.84-.33c.46-1.28,1.27-2.31,2.44-3.1s2.58-1.19,4.21-1.19c1.28,0,2.4.25,3.35.74.95.49,1.69,1.24,2.22,2.24.53,1,.79,2.26.79,3.78v9.15h-2.13v-8.94c0-1.66-.4-2.91-1.19-3.76-.79-.85-1.9-1.28-3.34-1.28-1.08,0-2.01.23-2.8.68-.79.45-1.4,1.1-1.83,1.95-.43.85-.65,1.88-.65,3.08v8.28h-2.13v-8.94c0-1.66-.4-2.91-1.2-3.76-.8-.85-1.92-1.28-3.36-1.28-1.06,0-1.99.23-2.79.68-.8.45-1.42,1.1-1.84,1.95-.43.85-.65,1.88-.65,3.08v8.28h-2.13Z"/>
      <path class="st7" d="M629.56,1181.73c-.44,0-.81-.15-1.11-.45-.3-.3-.45-.66-.45-1.08s.15-.78.45-1.07c.3-.29.67-.43,1.11-.43s.81.14,1.11.42.45.63.45,1.05c0,.44-.15.81-.44,1.11-.29.3-.67.45-1.12.45ZM628.49,1200.96v-15.75h2.13v15.75h-2.13Z"/>
      <path class="st7" d="M636.55,1200.96v-15.75h2.04v4.32l-.33-.81c.5-1.14,1.3-2.03,2.4-2.68,1.1-.65,2.41-.98,3.93-.98,1.28,0,2.4.25,3.38.74.97.49,1.73,1.24,2.28,2.24.55,1,.83,2.26.83,3.78v9.15h-2.13v-8.94c0-1.66-.42-2.91-1.24-3.76-.83-.85-2-1.28-3.5-1.28-1.12,0-2.1.23-2.93.68-.83.45-1.47,1.1-1.92,1.95-.45.85-.67,1.88-.67,3.08v8.28h-2.13Z"/>
      <path class="st7" d="M663.34,1201.11c-1.34,0-2.51-.25-3.51-.75-1-.5-1.78-1.25-2.33-2.25-.55-1-.83-2.25-.83-3.75v-9.15h2.13v8.91c0,1.68.42,2.95,1.25,3.79.83.85,2,1.28,3.5,1.28,1.1,0,2.05-.23,2.87-.68.81-.45,1.43-1.1,1.86-1.96.43-.86.65-1.89.65-3.09v-8.25h2.13v15.75h-2.04v-4.32l.33.78c-.5,1.16-1.28,2.07-2.33,2.71-1.05.65-2.28.98-3.67.98Z"/>
      <path class="st7" d="M674.53,1186.98v-1.77h9.75v1.77h-9.75ZM681.97,1201.11c-1.48,0-2.62-.4-3.42-1.2s-1.2-1.93-1.2-3.39v-14.79h2.13v14.67c0,.92.23,1.63.71,2.13.47.5,1.14.75,2.02.75.94,0,1.72-.27,2.34-.81l.75,1.53c-.42.38-.92.66-1.51.84s-1.2.27-1.81.27Z"/>
      <path class="st7" d="M695.29,1201.11c-1.64,0-3.08-.35-4.32-1.04-1.24-.69-2.21-1.64-2.91-2.85-.7-1.21-1.05-2.59-1.05-4.15s.33-2.94,1-4.14,1.59-2.14,2.76-2.83c1.17-.69,2.48-1.04,3.94-1.04s2.79.34,3.95,1.01,2.05,1.61,2.71,2.82c.66,1.21.99,2.61.99,4.19,0,.1,0,.21-.01.31-.01.11-.02.23-.02.34h-13.71v-1.59h12.57l-.84.63c0-1.14-.25-2.15-.74-3.04-.49-.89-1.16-1.58-2-2.08-.84-.5-1.81-.75-2.91-.75s-2.05.25-2.91.75c-.86.5-1.53,1.2-2.01,2.1-.48.9-.72,1.93-.72,3.09v.33c0,1.2.26,2.25.79,3.17s1.27,1.62,2.22,2.13,2.04.76,3.26.76c.96,0,1.85-.17,2.68-.51s1.54-.86,2.14-1.56l1.2,1.38c-.7.84-1.58,1.48-2.62,1.92s-2.21.66-3.46.66Z"/>
      <path class="st7" d="M710.95,1201.11c-1.3,0-2.53-.19-3.69-.56-1.16-.37-2.07-.83-2.73-1.39l.96-1.68c.64.48,1.46.9,2.46,1.25,1,.35,2.05.53,3.15.53,1.5,0,2.58-.24,3.24-.71s.99-1.09.99-1.88c0-.58-.19-1.04-.56-1.37s-.85-.58-1.46-.75c-.6-.17-1.27-.31-2.01-.43s-1.47-.26-2.21-.42-1.39-.39-2-.71c-.6-.31-1.08-.74-1.46-1.28s-.55-1.26-.55-2.16.24-1.63.72-2.31c.48-.68,1.19-1.21,2.12-1.61.93-.39,2.07-.58,3.41-.58,1.02,0,2.04.14,3.06.41,1.02.27,1.86.62,2.52,1.07l-.93,1.71c-.7-.48-1.45-.83-2.25-1.04-.8-.21-1.6-.32-2.4-.32-1.42,0-2.46.25-3.13.74-.67.49-1,1.12-1,1.88,0,.6.18,1.07.55,1.41s.86.6,1.47.79,1.28.34,2.01.46c.73.12,1.46.27,2.19.43.73.17,1.4.4,2.01.69s1.1.7,1.47,1.23c.37.53.55,1.22.55,2.08,0,.92-.25,1.71-.76,2.38-.51.67-1.25,1.19-2.22,1.56-.97.37-2.14.56-3.52.56Z"/>
      <path class="st7" d="M721.57,1201.11c-.44,0-.81-.16-1.12-.48-.31-.32-.46-.71-.46-1.17s.16-.87.46-1.17c.31-.3.69-.45,1.12-.45s.82.15,1.12.45c.31.3.46.69.46,1.17s-.15.85-.46,1.17c-.31.32-.68.48-1.12.48Z"/>
    </g>
    <circle class="st7" cx="89.56" cy="1189.94" r="15.32"/>
    <g class="st3">
      <path class="st5" d="M89.2,213.12c9.52,3.07,15.71,9.11,16.75,19.44l-.03,417.9c2.84,30.73,26.61,54.81,57.15,58.22l416.98-.02c10.94.95,17.06,6.6,20.39,16.84v8.4c-3.33,10.24-9.45,15.89-20.39,16.84H161.97c-52.27-3.96-94.08-45.75-97.95-98.16V233.55c.95-10.97,6.59-17.1,16.81-20.44h8.38Z"/>
      <path class="st5" d="M600.45,511.3c-2.77,31.7,3.7,69.86,0,100.79-8.59,71.78-118.19,72.37-125.59-1.7-2.43-24.36-1.91-69.6-.17-94.41,5.31-75.85,113.75-79.12,125.76-4.68ZM534.2,498.97c-9.32,1.24-16.34,8.96-17.44,18.21,1.61,28.1-2.55,59.34-.15,87.06,2.25,26.09,36.62,27.52,41.67,2.84-1.34-28.33,2.73-60,.31-87.96-1.15-13.33-10.88-21.96-24.38-20.16Z"/>
      <path class="st5" d="M366.59,247c35.79-4.09,67.14,22.37,70.46,57.94l-.16,305.44c-11.14,75.66-116.81,74.06-125.63-1.93l.16-305.44c3.33-28.47,26.5-52.74,55.16-56.01ZM370.77,288.99c-9.7,1.29-16.76,9.52-17.55,19.16l-.05,296.11c1.41,26.38,39.24,27.6,41.93,1l.05-296.11c-.73-13.23-11.25-21.91-24.38-20.16Z"/>
      <path class="st5" d="M203.16,373c35.25-4.02,67.69,22.43,70.46,57.94,4.46,57.06-3.45,119.85,0,177.51-9.04,77.09-116.73,77.13-125.79,0,3.45-57.66-4.46-120.46,0-177.51,2.29-29.21,26.09-54.6,55.33-57.94ZM207.34,414.98c-9.7,1.29-16.76,9.52-17.55,19.16l-.05,170.11c1.41,26.38,39.24,27.6,41.93,1l.05-170.11c-.73-13.23-11.25-21.91-24.38-20.16Z"/>
    </g>
    <g>
      <path class="st0" d="M128.35,579.4c-8.23,0-15.85-1.3-22.86-3.9-7.01-2.6-13.08-6.3-18.23-11.1-5.15-4.8-9.14-10.49-11.98-17.05-2.84-6.56-4.26-13.82-4.26-21.76s1.42-15.19,4.26-21.76c2.84-6.56,6.84-12.25,11.98-17.05,5.15-4.8,11.22-8.5,18.23-11.1,7.01-2.6,14.63-3.9,22.86-3.9,10.09,0,19.04,1.76,26.83,5.29s14.23,8.62,19.33,15.29l-21.9,19.55c-3.04-3.82-6.39-6.78-10.07-8.89-3.67-2.11-7.82-3.16-12.42-3.16-3.63,0-6.91.59-9.85,1.76-2.94,1.18-5.46,2.89-7.57,5.15-2.11,2.26-3.75,4.98-4.92,8.16-1.18,3.19-1.76,6.74-1.76,10.66s.59,7.47,1.76,10.66c1.18,3.19,2.82,5.91,4.92,8.16,2.11,2.26,4.63,3.97,7.57,5.15,2.94,1.18,6.22,1.76,9.85,1.76,4.61,0,8.75-1.05,12.42-3.16,3.68-2.11,7.03-5.07,10.07-8.89l21.9,19.55c-5.1,6.57-11.54,11.64-19.33,15.21s-16.73,5.37-26.83,5.37Z"/>
      <path class="st0" d="M208.31,578.52c-6.57,0-12.05-1.13-16.46-3.38-4.41-2.25-7.74-5.27-10-9.04-2.26-3.77-3.38-7.96-3.38-12.57,0-5.19,1.32-9.6,3.97-13.23,2.65-3.62,6.69-6.37,12.13-8.23,5.44-1.86,12.32-2.79,20.65-2.79h16.76v16.02h-11.47c-3.53,0-6.1.56-7.72,1.69-1.62,1.13-2.43,2.82-2.43,5.07,0,1.86.71,3.41,2.13,4.63,1.42,1.23,3.36,1.84,5.81,1.84,2.25,0,4.34-.61,6.25-1.84,1.91-1.22,3.31-3.16,4.19-5.81l4.26,9.85c-1.27,5.98-3.97,10.44-8.08,13.38s-9.65,4.41-16.61,4.41ZM231.1,577.05v-14.26l-2.35-3.82v-27.05c0-3.92-1.2-6.91-3.6-8.97-2.4-2.06-6.3-3.09-11.69-3.09-3.63,0-7.3.56-11.03,1.69-3.73,1.13-6.91,2.67-9.55,4.63l-10.58-21.9c4.7-2.94,10.34-5.19,16.9-6.76,6.56-1.57,12.98-2.35,19.26-2.35,13.82,0,24.52,3.09,32.12,9.26,7.59,6.17,11.39,15.98,11.39,29.4v43.22h-30.87Z"/>
      <path class="st0" d="M276.37,577.05v-80.41h31.6v24.26l-5.15-6.91c2.45-6.27,6.37-10.97,11.76-14.11,5.39-3.14,11.86-4.7,19.4-4.7v29.4c-1.47-.2-2.77-.34-3.9-.44-1.13-.1-2.28-.15-3.45-.15-5,0-9.09,1.3-12.27,3.9-3.19,2.6-4.78,7.08-4.78,13.45v35.72h-33.22Z"/>
      <path class="st0" d="M343.4,577.05v-109.07h33.22v39.4l-1.47,29.4-.15,29.4v10.88h-31.6ZM397.06,578.52c-7.35,0-13.28-1.47-17.79-4.41-4.51-2.94-7.77-7.5-9.78-13.67-2.01-6.17-3.01-14.06-3.01-23.67s1.08-17.32,3.23-23.45c2.15-6.12,5.51-10.68,10.07-13.67,4.56-2.99,10.31-4.48,17.27-4.48s13.52,1.67,19.4,5c5.88,3.33,10.58,8.11,14.11,14.33,3.53,6.22,5.29,13.65,5.29,22.27s-1.76,16.05-5.29,22.27c-3.53,6.22-8.23,11.02-14.11,14.41-5.88,3.38-12.35,5.07-19.4,5.07ZM389.12,552.65c2.45,0,4.65-.59,6.62-1.76,1.96-1.18,3.53-2.96,4.7-5.37,1.18-2.4,1.76-5.31,1.76-8.75s-.59-6.44-1.76-8.75c-1.18-2.3-2.75-4.04-4.7-5.22-1.96-1.18-4.17-1.76-6.62-1.76s-4.66.59-6.61,1.76c-1.96,1.18-3.53,2.92-4.7,5.22-1.18,2.3-1.76,5.22-1.76,8.75s.59,6.35,1.76,8.75c1.18,2.4,2.74,4.19,4.7,5.37,1.96,1.18,4.16,1.76,6.61,1.76Z"/>
      <path class="st0" d="M488.79,578.52c-9.11,0-17.18-1.79-24.18-5.37-7.01-3.58-12.52-8.5-16.54-14.77-4.02-6.27-6.03-13.47-6.03-21.61s2.01-15.34,6.03-21.61c4.02-6.27,9.53-11.17,16.54-14.7,7.01-3.53,15.07-5.29,24.18-5.29s17.2,1.76,24.25,5.29c7.06,3.53,12.57,8.43,16.54,14.7,3.97,6.27,5.95,13.48,5.95,21.61s-1.98,15.34-5.95,21.61c-3.97,6.27-9.48,11.2-16.54,14.77-7.06,3.58-15.14,5.37-24.25,5.37ZM488.79,552.65c2.45,0,4.65-.59,6.62-1.76,1.96-1.18,3.53-2.96,4.7-5.37,1.18-2.4,1.76-5.31,1.76-8.75s-.59-6.44-1.76-8.75c-1.18-2.3-2.74-4.04-4.7-5.22-1.96-1.18-4.17-1.76-6.62-1.76s-4.66.59-6.62,1.76c-1.96,1.18-3.53,2.92-4.7,5.22-1.18,2.3-1.76,5.22-1.76,8.75s.59,6.35,1.76,8.75c1.18,2.4,2.74,4.19,4.7,5.37,1.96,1.18,4.16,1.76,6.62,1.76Z"/>
      <path class="st0" d="M545.97,577.05v-80.41h31.61v23.52l-6.32-6.76c3.14-6.08,7.37-10.63,12.72-13.67,5.34-3.04,11.29-4.56,17.86-4.56,6.17,0,11.76,1.25,16.76,3.75s8.94,6.39,11.83,11.69c2.89,5.29,4.34,12.15,4.34,20.58v45.86h-33.22v-40.13c0-5-.88-8.55-2.65-10.66-1.76-2.11-4.17-3.16-7.2-3.16-2.26,0-4.34.51-6.25,1.54-1.91,1.03-3.43,2.72-4.56,5.07-1.13,2.35-1.69,5.54-1.69,9.56v37.78h-33.22Z"/>
      <path class="st0" d="M128.35,755.8c-8.23,0-15.85-1.3-22.86-3.9-7.01-2.59-13.08-6.29-18.23-11.1-5.15-4.8-9.14-10.49-11.98-17.05-2.84-6.56-4.26-13.82-4.26-21.76s1.42-15.19,4.26-21.76c2.84-6.56,6.84-12.25,11.98-17.05,5.15-4.8,11.22-8.5,18.23-11.1,7.01-2.6,14.63-3.9,22.86-3.9,10.09,0,19.04,1.76,26.83,5.29s14.23,8.62,19.33,15.29l-21.9,19.55c-3.04-3.82-6.39-6.79-10.07-8.89-3.67-2.11-7.82-3.16-12.42-3.16-3.63,0-6.91.59-9.85,1.76-2.94,1.18-5.46,2.89-7.57,5.15-2.11,2.25-3.75,4.97-4.92,8.16-1.18,3.19-1.76,6.74-1.76,10.66s.59,7.47,1.76,10.66c1.18,3.19,2.82,5.91,4.92,8.16,2.11,2.25,4.63,3.97,7.57,5.14,2.94,1.18,6.22,1.76,9.85,1.76,4.61,0,8.75-1.05,12.42-3.16,3.68-2.11,7.03-5.07,10.07-8.89l21.9,19.55c-5.1,6.57-11.54,11.64-19.33,15.21s-16.73,5.37-26.83,5.37Z"/>
      <path class="st0" d="M208.31,754.92c-6.57,0-12.05-1.13-16.46-3.38-4.41-2.25-7.74-5.27-10-9.04-2.26-3.77-3.38-7.96-3.38-12.57,0-5.19,1.32-9.6,3.97-13.23,2.65-3.62,6.69-6.37,12.13-8.23,5.44-1.86,12.32-2.79,20.65-2.79h16.76v16.02h-11.47c-3.53,0-6.1.57-7.72,1.69-1.62,1.13-2.43,2.82-2.43,5.07,0,1.86.71,3.41,2.13,4.63,1.42,1.23,3.36,1.84,5.81,1.84,2.25,0,4.34-.61,6.25-1.84,1.91-1.22,3.31-3.16,4.19-5.81l4.26,9.85c-1.27,5.98-3.97,10.44-8.08,13.38-4.12,2.94-9.65,4.41-16.61,4.41ZM231.1,753.45v-14.26l-2.35-3.82v-27.05c0-3.92-1.2-6.91-3.6-8.97-2.4-2.06-6.3-3.09-11.69-3.09-3.63,0-7.3.56-11.03,1.69-3.73,1.13-6.91,2.67-9.55,4.63l-10.58-21.9c4.7-2.94,10.34-5.19,16.9-6.76,6.56-1.57,12.98-2.35,19.26-2.35,13.82,0,24.52,3.09,32.12,9.26,7.59,6.17,11.39,15.97,11.39,29.4v43.22h-30.87Z"/>
      <path class="st0" d="M276.37,753.45v-109.07h33.22v109.07h-33.22Z"/>
      <path class="st0" d="M367.51,754.92c-9.21,0-17.4-1.76-24.55-5.29-7.15-3.53-12.77-8.45-16.83-14.77-4.07-6.32-6.1-13.55-6.1-21.68s2.03-15.34,6.1-21.61c4.07-6.27,9.68-11.17,16.83-14.7,7.15-3.53,15.34-5.29,24.55-5.29,9.8,0,18.18,2.11,25.14,6.32,6.96,4.21,11.76,10.05,14.41,17.49l-25.72,12.64c-1.67-3.72-3.7-6.42-6.1-8.08-2.4-1.67-5.02-2.5-7.86-2.5-2.45,0-4.73.59-6.84,1.76-2.11,1.18-3.77,2.92-5,5.22-1.23,2.3-1.84,5.22-1.84,8.75s.61,6.47,1.84,8.82c1.22,2.35,2.89,4.12,5,5.29,2.11,1.18,4.38,1.76,6.84,1.76,2.84,0,5.46-.83,7.86-2.5,2.4-1.67,4.43-4.36,6.1-8.08l25.72,12.64c-2.65,7.45-7.45,13.28-14.41,17.49-6.96,4.21-15.34,6.32-25.14,6.32Z"/>
      <path class="st0" d="M448.21,754.92c-6.37,0-12.13-1.3-17.27-3.9-5.14-2.59-9.19-6.66-12.13-12.2-2.94-5.54-4.41-12.66-4.41-21.39v-44.39h33.22v38.66c0,5.68.93,9.65,2.79,11.91,1.86,2.25,4.41,3.38,7.64,3.38,1.96,0,3.8-.51,5.51-1.54,1.71-1.03,3.11-2.74,4.19-5.14,1.08-2.4,1.62-5.56,1.62-9.48v-37.78h33.22v80.41h-31.6v-23.23l6.32,6.32c-2.84,6.27-6.89,10.9-12.13,13.89-5.24,2.99-10.9,4.48-16.98,4.48Z"/>
      <path class="st0" d="M517.3,753.45v-109.07h33.22v109.07h-33.22Z"/>
      <path class="st0" d="M591.09,754.92c-6.57,0-12.05-1.13-16.46-3.38s-7.74-5.27-10-9.04c-2.25-3.77-3.38-7.96-3.38-12.57,0-5.19,1.32-9.6,3.97-13.23,2.65-3.62,6.69-6.37,12.13-8.23,5.44-1.86,12.32-2.79,20.65-2.79h16.76v16.02h-11.47c-3.53,0-6.1.57-7.72,1.69-1.62,1.13-2.42,2.82-2.42,5.07,0,1.86.71,3.41,2.13,4.63,1.42,1.23,3.36,1.84,5.81,1.84,2.25,0,4.34-.61,6.25-1.84,1.91-1.22,3.31-3.16,4.19-5.81l4.26,9.85c-1.27,5.98-3.97,10.44-8.08,13.38-4.12,2.94-9.65,4.41-16.61,4.41ZM613.88,753.45v-14.26l-2.35-3.82v-27.05c0-3.92-1.2-6.91-3.6-8.97-2.4-2.06-6.3-3.09-11.69-3.09-3.63,0-7.3.56-11.03,1.69-3.73,1.13-6.91,2.67-9.55,4.63l-10.58-21.9c4.7-2.94,10.34-5.19,16.91-6.76,6.56-1.57,12.98-2.35,19.26-2.35,13.82,0,24.52,3.09,32.12,9.26,7.59,6.17,11.39,15.97,11.39,29.4v43.22h-30.87Z"/>
      <path class="st0" d="M651.8,697.3v-24.25h60.71v24.25h-60.71ZM697.96,754.92c-11.08,0-19.7-2.67-25.87-8.01-6.17-5.34-9.26-13.55-9.26-24.62v-67.33h33.22v67.03c0,2.45.66,4.36,1.98,5.73,1.32,1.37,2.96,2.06,4.92,2.06,2.84,0,5.34-.74,7.5-2.21l7.94,23.08c-2.55,1.47-5.61,2.55-9.19,3.23-3.58.68-7.33,1.03-11.25,1.03Z"/>
      <path class="st0" d="M767.05,754.92c-9.11,0-17.18-1.79-24.18-5.37-7.01-3.58-12.52-8.5-16.54-14.77-4.02-6.27-6.03-13.47-6.03-21.61s2.01-15.34,6.03-21.61c4.02-6.27,9.53-11.17,16.54-14.7,7.01-3.53,15.07-5.29,24.18-5.29s17.2,1.76,24.25,5.29,12.57,8.43,16.54,14.7c3.97,6.27,5.95,13.48,5.95,21.61s-1.98,15.34-5.95,21.61c-3.97,6.27-9.48,11.2-16.54,14.77-7.06,3.58-15.14,5.37-24.25,5.37ZM767.05,729.05c2.45,0,4.65-.59,6.62-1.76,1.96-1.18,3.53-2.96,4.7-5.37,1.18-2.4,1.76-5.32,1.76-8.75s-.59-6.44-1.76-8.75c-1.18-2.3-2.75-4.04-4.7-5.22-1.96-1.18-4.17-1.76-6.62-1.76s-4.66.59-6.62,1.76c-1.96,1.18-3.53,2.92-4.7,5.22-1.18,2.3-1.76,5.22-1.76,8.75s.59,6.35,1.76,8.75c1.18,2.4,2.74,4.19,4.7,5.37,1.96,1.18,4.16,1.76,6.62,1.76Z"/>
      <path class="st0" d="M824.23,753.45v-80.41h31.61v24.25l-5.15-6.91c2.45-6.27,6.37-10.97,11.76-14.11,5.39-3.14,11.86-4.7,19.4-4.7v29.4c-1.47-.2-2.77-.34-3.9-.44-1.13-.1-2.28-.15-3.45-.15-5,0-9.09,1.3-12.27,3.9-3.19,2.6-4.78,7.08-4.78,13.45v35.72h-33.22Z"/>
    </g>
  </g>
</svg>