<svg width="126" height="61" viewBox="0 0 126 61" fill="none" xmlns="http://www.w3.org/2000/svg">
<path d="M51.6721 41.2656C53.8591 43.341 56.4498 44.9311 59.4521 46.0437C62.4517 47.1563 65.7309 47.7112 69.2896 47.7112C72.4186 47.7112 75.4623 47.0711 78.4205 45.7881C81.3788 44.5052 83.822 42.5176 85.7501 39.8252L77.393 33.6041C76.3629 35.1426 75.0559 36.3404 73.4694 37.1948C71.8829 38.0492 70.0608 38.4777 68.0033 38.4777C66.2045 38.4777 64.5196 38.1163 62.9564 37.3884C61.3906 36.663 60.0318 35.646 58.8723 34.3424C57.7154 33.0388 56.8044 31.5003 56.1393 29.7243C55.4741 27.9509 55.1428 25.9943 55.1428 23.8569C55.1428 21.7195 55.4741 19.8171 56.1393 18.0205C56.8044 16.2238 57.7232 14.675 58.9034 13.3714C60.081 12.0678 61.476 11.0534 63.0832 10.3254C64.6905 9.60007 66.4374 9.2361 68.3242 9.2361C70.2109 9.2361 71.8699 9.55619 73.3064 10.1989C74.7428 10.8417 75.9514 11.7607 76.9401 12.9558L84.6553 6.67023C83.6693 5.43118 82.5538 4.38315 81.3115 3.52872C80.0692 2.67429 78.7725 1.99023 77.4215 1.47654C76.0705 0.962847 74.6988 0.588548 73.3064 0.353645C71.9139 0.118741 70.5733 0 69.287 0C65.7283 0 62.4491 0.554992 59.4495 1.66756C56.4498 2.78012 53.8565 4.37282 51.6696 6.44565C49.4826 8.52106 47.7796 11.0301 46.558 13.9806C45.3364 16.9311 44.7256 20.2224 44.7256 23.8569C44.7256 27.4915 45.3364 30.7827 46.558 33.7332C47.7796 36.6837 49.4826 39.1953 51.6696 41.2682L51.6721 41.2656Z" fill="white"/>
<path d="M15.7023 37.7834H4.98481L1.18542 46.5575H12.2419L15.7023 37.7834Z" fill="white"/>
<path d="M43.5169 46.5572H48.9572L29.1528 1.15625H20.8578L9.01965 28.4748H7.92746C3.55092 28.4748 0 32.0138 0 36.3815V36.9416H33.7156L35.4238 41.1312C36.7619 44.4147 39.9608 46.5598 43.5143 46.5598L43.5169 46.5572ZM19.1884 28.4722L24.7167 14.3651L30.3096 28.4722H19.1858H19.1884Z" fill="white"/>
<path d="M110.084 41.8823C111.59 44.7554 114.572 46.5572 117.822 46.5572H123.995L114.108 27.3828C119.756 26.3322 122.82 20.2815 122.823 14.9433C122.823 12.2922 122.362 10.08 121.44 8.30661C120.516 6.53322 119.274 5.12122 117.711 4.07319C116.148 3.02515 114.326 2.27656 112.247 1.82998C110.167 1.38083 107.972 1.15625 105.658 1.15625H98.9211V9.62052H104.628C105.529 9.62052 106.45 9.68506 107.392 9.81413C108.334 9.94319 109.17 10.1884 109.9 10.5524C110.627 10.9164 111.228 11.4404 111.699 12.1244C112.17 12.8085 112.405 13.7275 112.405 14.8813C112.405 16.123 112.136 17.0832 111.6 17.7673C111.065 18.4513 110.389 18.9547 109.576 19.2748C108.761 19.5949 107.85 19.7885 106.843 19.853C105.834 19.9176 104.882 19.9485 103.981 19.9485H98.067V1.15883H88.0354V46.5598H98.067V28.4128H104.141L110.081 41.8875L110.084 41.8823Z" fill="white"/>
<path d="M2.54421 56.7356L0.748047 60.84H1.14921L1.61507 59.7506H3.79428L4.24203 60.84H4.67166L2.9402 56.7356H2.54421ZM1.76518 59.4021L2.72538 57.1538L3.65452 59.4021H1.76518Z" fill="white"/>
<path d="M4.49048 57.0841H5.89842V60.84H6.28147V57.0841H7.68941V56.7356H4.49048V57.0841Z" fill="white"/>
<path d="M16.5771 60.1352H16.5616L15.0009 54.6833H14.2685L12.7078 60.1352H12.6897L11.1549 54.6833H10.5623L12.3584 60.8399H13.065L14.6256 55.3622H14.6437L16.2044 60.8399H16.9084L18.7045 54.6833H18.1118L16.5771 60.1352Z" fill="white"/>
<path d="M20.3429 54.6833H19.7683V60.8399H20.3429V54.6833Z" fill="white"/>
<path d="M26.725 60.0758H26.7095L22.9515 54.6833H22.2113V60.8399H22.7859V55.45H22.804L26.5594 60.8399H27.3022V54.6833H26.725V60.0758Z" fill="white"/>
<path d="M31.9401 57.763C32.1265 57.7062 32.2973 57.6159 32.45 57.4971C32.6027 57.3784 32.7321 57.2235 32.833 57.0325C32.934 56.8415 32.9857 56.5988 32.9857 56.302C32.9857 56.0361 32.9417 55.8089 32.8537 55.6231C32.7657 55.4372 32.657 55.2849 32.5225 55.1636C32.3879 55.0423 32.2378 54.9493 32.0695 54.8848C31.9013 54.8203 31.7357 54.7738 31.5726 54.7454C31.4096 54.717 31.2595 54.6989 31.1197 54.6938C30.9799 54.6886 30.8686 54.686 30.7884 54.686H29.1656V60.8426H29.7402V57.9205H30.8117L32.5458 60.8426H33.2006L31.4044 57.8869C31.5726 57.8637 31.7512 57.8224 31.935 57.7656L31.9401 57.763ZM29.7428 57.399V55.2075H30.9644C31.2672 55.2075 31.5131 55.2462 31.702 55.3211C31.891 55.3959 32.0385 55.4888 32.142 55.5998C32.2455 55.7108 32.318 55.8296 32.3568 55.9561C32.3956 56.0826 32.4138 56.1987 32.4138 56.3046C32.4138 56.4104 32.3956 56.524 32.3568 56.653C32.318 56.7795 32.2481 56.9008 32.142 57.0093C32.0385 57.1203 31.891 57.2132 31.702 57.288C31.5131 57.3629 31.2672 57.4016 30.9644 57.4016H29.7428V57.399Z" fill="white"/>
<path d="M39.6037 55.4449C39.3242 55.1584 38.9877 54.9338 38.5969 54.7712C38.2035 54.6086 37.7739 54.5286 37.3029 54.5286C36.8318 54.5286 36.3996 54.6086 36.0088 54.7712C35.6154 54.9338 35.2815 55.1584 35.002 55.4449C34.7225 55.7315 34.5051 56.0722 34.3472 56.4672C34.1893 56.8621 34.1117 57.2932 34.1117 57.763C34.1117 58.2328 34.1893 58.6665 34.3472 59.064C34.5051 59.4615 34.7225 59.8023 35.002 60.0888C35.2815 60.3753 35.6154 60.5999 36.0088 60.7574C36.4022 60.9174 36.8318 60.9974 37.3029 60.9974C37.7739 60.9974 38.2061 60.9174 38.5969 60.7574C38.9903 60.5973 39.3242 60.3753 39.6037 60.0888C39.8832 59.8023 40.1006 59.459 40.2585 59.064C40.4164 58.6665 40.494 58.2328 40.494 57.763C40.494 57.2932 40.4164 56.8621 40.2585 56.4672C40.1006 56.0722 39.8832 55.7315 39.6037 55.4449ZM39.7331 58.8317C39.6115 59.1621 39.4355 59.4486 39.2103 59.6913C38.9852 59.9339 38.7082 60.1249 38.3873 60.2643C38.0638 60.4037 37.7014 60.4734 37.3029 60.4734C36.9043 60.4734 36.5394 60.4037 36.2184 60.2643C35.8975 60.1249 35.6206 59.9339 35.3954 59.6913C35.1677 59.4486 34.9942 59.1621 34.8726 58.8317C34.751 58.5013 34.6888 58.145 34.6888 57.763C34.6888 57.381 34.751 57.0247 34.8726 56.6943C34.9942 56.3639 35.1702 56.0774 35.3954 55.8347C35.6232 55.5921 35.8975 55.4011 36.2184 55.2617C36.5394 55.1223 36.9017 55.0526 37.3029 55.0526C37.704 55.0526 38.0664 55.1223 38.3873 55.2617C38.7108 55.4011 38.9852 55.5921 39.2103 55.8347C39.4355 56.0774 39.6115 56.3639 39.7331 56.6943C39.8548 57.0247 39.9169 57.381 39.9169 57.763C39.9169 58.145 39.8548 58.5013 39.7331 58.8317Z" fill="white"/>
<path d="M46.1852 59.9495C46.0403 60.0683 45.8876 60.1664 45.7271 60.2438C45.5667 60.3212 45.4036 60.3806 45.2354 60.4167C45.0672 60.4555 44.9041 60.4735 44.7462 60.4735C44.3451 60.4735 43.9827 60.4038 43.6618 60.2644C43.3409 60.1251 43.0639 59.934 42.8388 59.6914C42.611 59.4487 42.4376 59.1622 42.316 58.8318C42.1943 58.5014 42.1322 58.1451 42.1322 57.7631C42.1322 57.3811 42.1943 57.0248 42.316 56.6944C42.4376 56.364 42.6136 56.0775 42.8388 55.8348C43.0665 55.5922 43.3409 55.4012 43.6618 55.2618C43.9827 55.1224 44.3451 55.0527 44.7462 55.0527C45.0594 55.0527 45.3674 55.1198 45.665 55.2514C45.9652 55.3857 46.2085 55.5974 46.4026 55.8865L46.8737 55.4967C46.5993 55.1482 46.281 54.9004 45.9187 54.7532C45.5563 54.6061 45.1655 54.5312 44.7462 54.5312C44.2752 54.5312 43.843 54.6113 43.4522 54.7739C43.0588 54.9365 42.7249 55.1611 42.4454 55.4476C42.1659 55.7342 41.9485 56.0749 41.7906 56.4698C41.6327 56.8648 41.5551 57.2959 41.5551 57.7657C41.5551 58.2355 41.6327 58.6692 41.7906 59.0667C41.9485 59.4642 42.1659 59.805 42.4454 60.0915C42.7249 60.378 43.0588 60.6026 43.4522 60.7601C43.8456 60.9201 44.2752 61.0001 44.7462 61.0001C45.2173 61.0001 45.621 60.9124 46.0092 60.7394C46.3975 60.5665 46.7417 60.2774 47.0393 59.8798L46.5683 59.5236C46.457 59.6914 46.3302 59.8359 46.1852 59.9547V59.9495Z" fill="white"/>
<path d="M52.6816 54.6833H51.887L48.8977 57.3964H48.846V54.6833H48.2688V60.8399H48.846V57.6571H48.8977L52.0268 60.8399H52.855L49.5603 57.5022L52.6816 54.6833Z" fill="white"/>
<path d="M56.7864 54.6833H56.2118V60.8399H56.7864V54.6833Z" fill="white"/>
<path d="M63.1686 60.0758H63.1505L59.3951 54.6833H58.6523V60.8399H59.2269V55.45H59.245L63.003 60.8399H63.7432V54.6833H63.1686V60.0758Z" fill="white"/>
<path d="M64.869 55.2048H66.9783V60.8399H67.5529V55.2048H69.6648V54.6833H64.869V55.2048Z" fill="white"/>
<path d="M71.3654 57.9178H74.3624V57.3964H71.3654V55.2048H74.5643V54.6833H70.7882V60.8399H74.7041V60.3185H71.3654V57.9178Z" fill="white"/>
<path d="M78.9046 57.763C79.0909 57.7062 79.2617 57.6159 79.4144 57.4971C79.5671 57.3784 79.6966 57.2235 79.7975 57.0325C79.8984 56.8415 79.9502 56.5988 79.9502 56.302C79.9502 56.0361 79.9062 55.8089 79.8208 55.6231C79.7328 55.4372 79.6241 55.2849 79.4895 55.1636C79.3549 55.0423 79.2048 54.9493 79.0366 54.8848C78.8683 54.8203 78.7027 54.7738 78.5397 54.7454C78.3766 54.717 78.2265 54.6989 78.0867 54.6938C77.947 54.6886 77.8357 54.686 77.7554 54.686H76.1327V60.8426H76.7073V57.9205H77.7787L79.5128 60.8426H80.1676L78.3714 57.8869C78.5397 57.8637 78.7182 57.8224 78.902 57.7656L78.9046 57.763ZM76.7073 57.399V55.2075H77.9289C78.2317 55.2075 78.4775 55.2462 78.6665 55.3211C78.8554 55.3959 79.0029 55.4888 79.1065 55.5998C79.21 55.7108 79.2825 55.8296 79.3213 55.9561C79.3601 56.0826 79.3782 56.1987 79.3782 56.3046C79.3782 56.4104 79.3601 56.524 79.3213 56.653C79.2825 56.7795 79.2126 56.9008 79.1065 57.0093C79.0029 57.1203 78.8554 57.2132 78.6665 57.288C78.4775 57.3629 78.2317 57.4016 77.9289 57.4016H76.7073V57.399Z" fill="white"/>
<path d="M85.9933 60.0758H85.9752L82.2173 54.6833H81.4771V60.8399H82.0516V55.45H82.0697L85.8277 60.8399H86.5679V54.6833H85.9933V60.0758Z" fill="white"/>
<path d="M90.326 54.6833L87.6317 60.8399H88.2322L88.9284 59.2059H92.1972L92.8675 60.8399H93.512L90.9135 54.6833H90.3208H90.326ZM89.1587 58.6845L90.5977 55.3106L91.9927 58.6845H89.1587Z" fill="white"/>
<path d="M93.2479 55.2048H95.3573V60.8399H95.9318V55.2048H98.0411V54.6833H93.2479V55.2048Z" fill="white"/>
<path d="M99.7416 54.6833H99.167V60.8399H99.7416V54.6833Z" fill="white"/>
<path d="M106.699 55.4449C106.419 55.1584 106.083 54.9338 105.692 54.7712C105.298 54.6086 104.869 54.5286 104.398 54.5286C103.927 54.5286 103.494 54.6086 103.104 54.7712C102.71 54.9338 102.376 55.1584 102.097 55.4449C101.817 55.7315 101.6 56.0722 101.442 56.4672C101.284 56.8621 101.207 57.2932 101.207 57.763C101.207 58.2328 101.284 58.6665 101.442 59.064C101.6 59.4615 101.817 59.8023 102.097 60.0888C102.376 60.3753 102.71 60.5999 103.104 60.7574C103.497 60.9174 103.927 60.9974 104.398 60.9974C104.869 60.9974 105.301 60.9174 105.692 60.7574C106.085 60.5973 106.419 60.3753 106.699 60.0888C106.978 59.8023 107.195 59.459 107.353 59.064C107.511 58.6691 107.589 58.2328 107.589 57.763C107.589 57.2932 107.511 56.8621 107.353 56.4672C107.195 56.0722 106.978 55.7315 106.699 55.4449ZM106.831 58.8317C106.709 59.1621 106.533 59.4486 106.308 59.6913C106.08 59.9339 105.806 60.1249 105.485 60.2643C105.161 60.4037 104.799 60.4734 104.4 60.4734C104.002 60.4734 103.637 60.4037 103.316 60.2643C102.995 60.1249 102.718 59.9339 102.493 59.6913C102.268 59.4486 102.092 59.1621 101.97 58.8317C101.848 58.5013 101.786 58.145 101.786 57.763C101.786 57.381 101.848 57.0247 101.97 56.6943C102.092 56.3639 102.268 56.0774 102.493 55.8347C102.718 55.5921 102.995 55.4011 103.316 55.2617C103.637 55.1223 103.999 55.0526 104.4 55.0526C104.801 55.0526 105.164 55.1223 105.485 55.2617C105.808 55.4011 106.083 55.5921 106.308 55.8347C106.536 56.0774 106.709 56.3639 106.831 56.6943C106.952 57.0247 107.014 57.381 107.014 57.763C107.014 58.145 106.952 58.5013 106.831 58.8317Z" fill="white"/>
<path d="M113.57 60.0758H113.552L109.794 54.6833H109.054V60.8399H109.628V55.45H109.646L113.404 60.8399H114.145V54.6833H113.57V60.0758Z" fill="white"/>
<path d="M117.903 54.6833L115.208 60.8399H115.809L116.505 59.2059H119.774L120.444 60.8399H121.089L118.49 54.6833H117.897H117.903ZM116.735 58.6845L118.174 55.3106L119.569 58.6845H116.735Z" fill="white"/>
<path d="M122.732 60.3185V54.6833H122.157V60.8399H125.61V60.3185H122.732Z" fill="white"/>
</svg>
