<?xml version="1.0" encoding="utf-8"?>
<!-- Generator: Adobe Illustrator 28.1.0, SVG Export Plug-In . SVG Version: 6.00 Build 0)  -->
<svg version="1.1" id="Layer_1" xmlns="http://www.w3.org/2000/svg" xmlns:xlink="http://www.w3.org/1999/xlink" x="0px" y="0px"
	 viewBox="0 0 27 29" style="enable-background:new 0 0 27 29;" xml:space="preserve">
<style type="text/css">
	.st0{fill:#5A595C;}
	.st1{fill:#0FB2B7;}
</style>
<path class="st0" d="M18.2,23.2c-1.1,0.6-2.3,0.9-3.8,0.9c-2,0-3.7-0.7-5.3-2.1c-1.5-1.4-2.3-3.8-2.3-7.2c0-3.4,0.7-5.9,2.1-7.5
	c1.4-1.7,3.3-2.5,5.5-2.5c1.2,0,2.2,0.2,3.2,0.6c1.7,0.7,2.8,2.1,3.2,3.9h5.7c-0.3-2.7-1.5-4.9-3.7-6.6C20.7,0.9,17.9,0,14.4,0
	c-4,0-7.3,1.3-9.7,4S1,10.3,1,14.8c0,4.4,1.2,7.9,3.6,10.4c2.3,2.5,5.3,3.8,9,3.8c1.8,0,3.3-0.3,4.6-0.9V23.2z"/>
<path class="st1" d="M14.4,13.6v5h7.2v7.2h5V13.6H14.4z"/>
</svg>
